STARTFONT 2.1
COMMENT
COMMENT Converted from OpenType font "ipamjm.ttf" by "..\otf2bdf.exe 3.0".
COMMENT
FONT -FreeType-IPAmjMincho-Medium-R-Normal--8-80-72-72-P-73-ISO10646-1
SIZE 8 72 72
FONTBOUNDINGBOX 11 11 -2 -3
STARTPROPERTIES 19
FOUNDRY "FreeType"
FAMILY_NAME "IPAmjMincho"
WEIGHT_NAME "Medium"
SLANT "R"
SETWIDTH_NAME "Normal"
ADD_STYLE_NAME ""
PIXEL_SIZE 8
POINT_SIZE 80
RESOLUTION_X 72
RESOLUTION_Y 72
SPACING "P"
AVERAGE_WIDTH 73
CHARSET_REGISTRY "ISO10646"
CHARSET_ENCODING "1"
FONT_ASCENT 7
FONT_DESCENT 0
COPYRIGHT "Copyright(c) Information-technology Promotion Agency, Japan (IPA), 2011-2019. You must accept "https://opensource.org/licenses/IPA/" to use this product."
_OTF_FONTFILE "ipamjm.ttf"
_OTF_PSNAME "IPAmjMincho"
ENDPROPERTIES
CHARS 25899
STARTCHAR 0020
ENCODING 32
SWIDTH 250 0
DWIDTH 2 0
BBX 0 0 0 0
BITMAP
ENDCHAR
STARTCHAR 0021
ENCODING 33
SWIDTH 250 0
DWIDTH 2 0
BBX 1 1 1 5
BITMAP
80
ENDCHAR
STARTCHAR 0022
ENCODING 34
SWIDTH 375 0
DWIDTH 3 0
BBX 0 0 0 4
BITMAP
ENDCHAR
STARTCHAR 0023
ENCODING 35
SWIDTH 625 0
DWIDTH 5 0
BBX 5 6 0 0
BITMAP
10
60
78
60
F0
40
ENDCHAR
STARTCHAR 0024
ENCODING 36
SWIDTH 625 0
DWIDTH 5 0
BBX 5 6 0 0
BITMAP
70
A8
E0
38
A8
70
ENDCHAR
STARTCHAR 0025
ENCODING 37
SWIDTH 750 0
DWIDTH 6 0
BBX 6 6 0 0
BITMAP
E8
B0
70
2C
4C
4C
ENDCHAR
STARTCHAR 0026
ENCODING 38
SWIDTH 750 0
DWIDTH 6 0
BBX 4 6 1 0
BITMAP
E0
A0
C0
50
B0
F0
ENDCHAR
STARTCHAR 0027
ENCODING 39
SWIDTH 250 0
DWIDTH 2 0
BBX 0 0 0 4
BITMAP
ENDCHAR
STARTCHAR 0028
ENCODING 40
SWIDTH 375 0
DWIDTH 3 0
BBX 1 6 1 0
BITMAP
80
80
80
80
80
80
ENDCHAR
STARTCHAR 0029
ENCODING 41
SWIDTH 375 0
DWIDTH 3 0
BBX 2 7 0 -1
BITMAP
80
40
40
40
40
40
80
ENDCHAR
STARTCHAR 002A
ENCODING 42
SWIDTH 250 0
DWIDTH 2 0
BBX 2 2 0 4
BITMAP
C0
C0
ENDCHAR
STARTCHAR 002B
ENCODING 43
SWIDTH 625 0
DWIDTH 5 0
BBX 4 5 1 0
BITMAP
20
20
F0
20
20
ENDCHAR
STARTCHAR 002C
ENCODING 44
SWIDTH 250 0
DWIDTH 2 0
BBX 0 0 0 -1
BITMAP
ENDCHAR
STARTCHAR 002D
ENCODING 45
SWIDTH 250 0
DWIDTH 2 0
BBX 2 1 0 2
BITMAP
C0
ENDCHAR
STARTCHAR 002E
ENCODING 46
SWIDTH 250 0
DWIDTH 2 0
BBX 1 1 1 0
BITMAP
80
ENDCHAR
STARTCHAR 002F
ENCODING 47
SWIDTH 500 0
DWIDTH 4 0
BBX 3 6 0 -2
BITMAP
20
20
20
40
40
80
ENDCHAR
STARTCHAR 0030
ENCODING 48
SWIDTH 625 0
DWIDTH 5 0
BBX 4 6 0 0
BITMAP
70
90
90
90
90
50
ENDCHAR
STARTCHAR 0031
ENCODING 49
SWIDTH 625 0
DWIDTH 5 0
BBX 2 6 1 0
BITMAP
C0
40
40
40
40
40
ENDCHAR
STARTCHAR 0032
ENCODING 50
SWIDTH 625 0
DWIDTH 5 0
BBX 4 6 0 0
BITMAP
70
50
10
20
40
F0
ENDCHAR
STARTCHAR 0033
ENCODING 51
SWIDTH 625 0
DWIDTH 5 0
BBX 3 6 1 0
BITMAP
E0
A0
20
20
20
A0
ENDCHAR
STARTCHAR 0034
ENCODING 52
SWIDTH 625 0
DWIDTH 5 0
BBX 4 6 0 0
BITMAP
10
30
50
90
70
10
ENDCHAR
STARTCHAR 0035
ENCODING 53
SWIDTH 625 0
DWIDTH 5 0
BBX 4 6 0 0
BITMAP
70
80
70
10
50
50
ENDCHAR
STARTCHAR 0036
ENCODING 54
SWIDTH 625 0
DWIDTH 5 0
BBX 4 6 0 0
BITMAP
70
80
B0
D0
90
50
ENDCHAR
STARTCHAR 0037
ENCODING 55
SWIDTH 625 0
DWIDTH 5 0
BBX 3 6 1 0
BITMAP
E0
20
40
40
40
40
ENDCHAR
STARTCHAR 0038
ENCODING 56
SWIDTH 625 0
DWIDTH 5 0
BBX 4 6 0 0
BITMAP
70
90
60
50
90
90
ENDCHAR
STARTCHAR 0039
ENCODING 57
SWIDTH 625 0
DWIDTH 5 0
BBX 4 6 0 0
BITMAP
70
90
90
70
10
60
ENDCHAR
STARTCHAR 003A
ENCODING 58
SWIDTH 250 0
DWIDTH 2 0
BBX 1 4 1 0
BITMAP
80
00
00
80
ENDCHAR
STARTCHAR 003B
ENCODING 59
SWIDTH 250 0
DWIDTH 2 0
BBX 1 5 1 -1
BITMAP
80
00
00
80
80
ENDCHAR
STARTCHAR 003C
ENCODING 60
SWIDTH 625 0
DWIDTH 5 0
BBX 3 3 1 1
BITMAP
20
C0
60
ENDCHAR
STARTCHAR 003D
ENCODING 61
SWIDTH 625 0
DWIDTH 5 0
BBX 4 1 1 2
BITMAP
F0
ENDCHAR
STARTCHAR 003E
ENCODING 62
SWIDTH 625 0
DWIDTH 5 0
BBX 3 3 2 1
BITMAP
80
60
C0
ENDCHAR
STARTCHAR 003F
ENCODING 63
SWIDTH 500 0
DWIDTH 4 0
BBX 4 6 0 0
BITMAP
F0
90
20
00
00
40
ENDCHAR
STARTCHAR 0040
ENCODING 64
SWIDTH 875 0
DWIDTH 7 0
BBX 6 6 1 0
BITMAP
78
F4
D4
D4
F8
78
ENDCHAR
STARTCHAR 0041
ENCODING 65
SWIDTH 750 0
DWIDTH 6 0
BBX 5 6 0 0
BITMAP
20
30
50
50
A8
88
ENDCHAR
STARTCHAR 0042
ENCODING 66
SWIDTH 750 0
DWIDTH 6 0
BBX 5 6 0 0
BITMAP
F8
48
48
70
48
F8
ENDCHAR
STARTCHAR 0043
ENCODING 67
SWIDTH 750 0
DWIDTH 6 0
BBX 5 6 0 0
BITMAP
78
88
80
80
C8
70
ENDCHAR
STARTCHAR 0044
ENCODING 68
SWIDTH 750 0
DWIDTH 6 0
BBX 6 6 0 0
BITMAP
F8
44
44
44
44
F8
ENDCHAR
STARTCHAR 0045
ENCODING 69
SWIDTH 750 0
DWIDTH 6 0
BBX 5 6 0 0
BITMAP
F8
40
40
70
40
F8
ENDCHAR
STARTCHAR 0046
ENCODING 70
SWIDTH 625 0
DWIDTH 5 0
BBX 5 6 0 0
BITMAP
F8
40
40
70
40
40
ENDCHAR
STARTCHAR 0047
ENCODING 71
SWIDTH 750 0
DWIDTH 6 0
BBX 5 6 0 0
BITMAP
78
C8
80
88
C8
78
ENDCHAR
STARTCHAR 0048
ENCODING 72
SWIDTH 875 0
DWIDTH 7 0
BBX 4 6 1 0
BITMAP
90
90
90
F0
90
90
ENDCHAR
STARTCHAR 0049
ENCODING 73
SWIDTH 375 0
DWIDTH 3 0
BBX 1 6 1 0
BITMAP
80
80
80
80
80
80
ENDCHAR
STARTCHAR 004A
ENCODING 74
SWIDTH 500 0
DWIDTH 4 0
BBX 3 6 0 0
BITMAP
20
20
20
20
20
E0
ENDCHAR
STARTCHAR 004B
ENCODING 75
SWIDTH 750 0
DWIDTH 6 0
BBX 4 6 1 0
BITMAP
80
B0
C0
A0
90
80
ENDCHAR
STARTCHAR 004C
ENCODING 76
SWIDTH 625 0
DWIDTH 5 0
BBX 5 6 0 0
BITMAP
40
40
40
40
40
F8
ENDCHAR
STARTCHAR 004D
ENCODING 77
SWIDTH 1000 0
DWIDTH 8 0
BBX 5 6 1 0
BITMAP
88
88
F8
E8
E8
A8
ENDCHAR
STARTCHAR 004E
ENCODING 78
SWIDTH 875 0
DWIDTH 7 0
BBX 5 6 1 0
BITMAP
88
C8
C8
A8
98
88
ENDCHAR
STARTCHAR 004F
ENCODING 79
SWIDTH 750 0
DWIDTH 6 0
BBX 6 6 0 0
BITMAP
78
CC
84
84
CC
78
ENDCHAR
STARTCHAR 0050
ENCODING 80
SWIDTH 625 0
DWIDTH 5 0
BBX 5 6 0 0
BITMAP
F8
48
48
78
40
40
ENDCHAR
STARTCHAR 0051
ENCODING 81
SWIDTH 750 0
DWIDTH 6 0
BBX 6 7 0 -1
BITMAP
78
CC
84
84
B4
78
04
ENDCHAR
STARTCHAR 0052
ENCODING 82
SWIDTH 750 0
DWIDTH 6 0
BBX 5 6 0 0
BITMAP
F8
48
48
70
48
48
ENDCHAR
STARTCHAR 0053
ENCODING 83
SWIDTH 625 0
DWIDTH 5 0
BBX 3 6 1 0
BITMAP
E0
80
80
60
20
E0
ENDCHAR
STARTCHAR 0054
ENCODING 84
SWIDTH 625 0
DWIDTH 5 0
BBX 5 6 0 0
BITMAP
F8
20
20
20
20
20
ENDCHAR
STARTCHAR 0055
ENCODING 85
SWIDTH 750 0
DWIDTH 6 0
BBX 4 6 1 0
BITMAP
90
90
90
90
90
60
ENDCHAR
STARTCHAR 0056
ENCODING 86
SWIDTH 750 0
DWIDTH 6 0
BBX 5 6 0 0
BITMAP
08
88
50
50
30
20
ENDCHAR
STARTCHAR 0057
ENCODING 87
SWIDTH 1000 0
DWIDTH 8 0
BBX 7 6 0 0
BITMAP
02
92
5A
6C
6C
24
ENDCHAR
STARTCHAR 0058
ENCODING 88
SWIDTH 750 0
DWIDTH 6 0
BBX 4 6 1 0
BITMAP
80
B0
60
60
A0
10
ENDCHAR
STARTCHAR 0059
ENCODING 89
SWIDTH 625 0
DWIDTH 5 0
BBX 4 6 1 0
BITMAP
90
A0
A0
40
40
40
ENDCHAR
STARTCHAR 005A
ENCODING 90
SWIDTH 625 0
DWIDTH 5 0
BBX 5 6 0 0
BITMAP
F8
90
20
40
80
F8
ENDCHAR
STARTCHAR 005B
ENCODING 91
SWIDTH 375 0
DWIDTH 3 0
BBX 1 8 1 -2
BITMAP
80
80
80
80
80
80
80
80
ENDCHAR
STARTCHAR 005C
ENCODING 92
SWIDTH 500 0
DWIDTH 4 0
BBX 3 5 0 -1
BITMAP
80
40
40
20
20
ENDCHAR
STARTCHAR 005D
ENCODING 93
SWIDTH 375 0
DWIDTH 3 0
BBX 2 8 0 -2
BITMAP
C0
40
40
40
40
40
40
C0
ENDCHAR
STARTCHAR 005E
ENCODING 94
SWIDTH 500 0
DWIDTH 4 0
BBX 2 1 1 3
BITMAP
C0
ENDCHAR
STARTCHAR 005F
ENCODING 95
SWIDTH 500 0
DWIDTH 4 0
BBX 4 1 0 -1
BITMAP
F0
ENDCHAR
STARTCHAR 0060
ENCODING 96
SWIDTH 500 0
DWIDTH 4 0
BBX 1 1 1 6
BITMAP
80
ENDCHAR
STARTCHAR 0061
ENCODING 97
SWIDTH 500 0
DWIDTH 4 0
BBX 5 4 0 0
BITMAP
70
10
F0
F8
ENDCHAR
STARTCHAR 0062
ENCODING 98
SWIDTH 625 0
DWIDTH 5 0
BBX 5 6 0 0
BITMAP
C0
40
70
48
48
70
ENDCHAR
STARTCHAR 0063
ENCODING 99
SWIDTH 500 0
DWIDTH 4 0
BBX 4 4 0 0
BITMAP
70
80
80
70
ENDCHAR
STARTCHAR 0064
ENCODING 100
SWIDTH 625 0
DWIDTH 5 0
BBX 3 6 1 0
BITMAP
20
20
E0
A0
A0
E0
ENDCHAR
STARTCHAR 0065
ENCODING 101
SWIDTH 500 0
DWIDTH 4 0
BBX 4 4 0 0
BITMAP
60
90
F0
B0
ENDCHAR
STARTCHAR 0066
ENCODING 102
SWIDTH 375 0
DWIDTH 3 0
BBX 4 6 0 0
BITMAP
70
40
E0
40
40
40
ENDCHAR
STARTCHAR 0067
ENCODING 103
SWIDTH 500 0
DWIDTH 4 0
BBX 4 6 0 -1
BITMAP
70
50
70
60
90
F0
ENDCHAR
STARTCHAR 0068
ENCODING 104
SWIDTH 625 0
DWIDTH 5 0
BBX 4 6 0 0
BITMAP
C0
40
70
50
50
50
ENDCHAR
STARTCHAR 0069
ENCODING 105
SWIDTH 250 0
DWIDTH 2 0
BBX 1 6 1 0
BITMAP
80
00
80
80
80
80
ENDCHAR
STARTCHAR 006A
ENCODING 106
SWIDTH 250 0
DWIDTH 2 0
BBX 3 7 -1 -1
BITMAP
20
00
20
20
20
20
E0
ENDCHAR
STARTCHAR 006B
ENCODING 107
SWIDTH 625 0
DWIDTH 5 0
BBX 4 6 0 0
BITMAP
C0
40
40
60
60
50
ENDCHAR
STARTCHAR 006C
ENCODING 108
SWIDTH 250 0
DWIDTH 2 0
BBX 2 6 0 0
BITMAP
C0
40
40
40
40
40
ENDCHAR
STARTCHAR 006D
ENCODING 109
SWIDTH 875 0
DWIDTH 7 0
BBX 5 4 1 1
BITMAP
F8
A8
A8
A8
ENDCHAR
STARTCHAR 006E
ENCODING 110
SWIDTH 625 0
DWIDTH 5 0
BBX 3 4 1 1
BITMAP
E0
A0
A0
A0
ENDCHAR
STARTCHAR 006F
ENCODING 111
SWIDTH 625 0
DWIDTH 5 0
BBX 4 4 0 0
BITMAP
60
90
90
60
ENDCHAR
STARTCHAR 0070
ENCODING 112
SWIDTH 625 0
DWIDTH 5 0
BBX 3 5 1 0
BITMAP
C0
A0
A0
E0
80
ENDCHAR
STARTCHAR 0071
ENCODING 113
SWIDTH 625 0
DWIDTH 5 0
BBX 3 5 1 -1
BITMAP
E0
A0
A0
E0
20
ENDCHAR
STARTCHAR 0072
ENCODING 114
SWIDTH 375 0
DWIDTH 3 0
BBX 2 4 1 1
BITMAP
C0
80
80
80
ENDCHAR
STARTCHAR 0073
ENCODING 115
SWIDTH 500 0
DWIDTH 4 0
BBX 2 4 1 1
BITMAP
C0
80
40
C0
ENDCHAR
STARTCHAR 0074
ENCODING 116
SWIDTH 375 0
DWIDTH 3 0
BBX 3 5 0 0
BITMAP
40
E0
40
40
60
ENDCHAR
STARTCHAR 0075
ENCODING 117
SWIDTH 625 0
DWIDTH 5 0
BBX 3 4 1 0
BITMAP
A0
A0
A0
E0
ENDCHAR
STARTCHAR 0076
ENCODING 118
SWIDTH 500 0
DWIDTH 4 0
BBX 4 4 0 0
BITMAP
10
A0
60
20
ENDCHAR
STARTCHAR 0077
ENCODING 119
SWIDTH 750 0
DWIDTH 6 0
BBX 6 4 0 0
BITMAP
04
98
78
08
ENDCHAR
STARTCHAR 0078
ENCODING 120
SWIDTH 500 0
DWIDTH 4 0
BBX 3 4 1 0
BITMAP
80
C0
40
A0
ENDCHAR
STARTCHAR 0079
ENCODING 121
SWIDTH 500 0
DWIDTH 4 0
BBX 3 6 1 -2
BITMAP
20
C0
C0
40
80
80
ENDCHAR
STARTCHAR 007A
ENCODING 122
SWIDTH 500 0
DWIDTH 4 0
BBX 3 4 0 0
BITMAP
E0
40
80
E0
ENDCHAR
STARTCHAR 007B
ENCODING 123
SWIDTH 375 0
DWIDTH 3 0
BBX 1 8 1 -2
BITMAP
80
80
80
80
80
80
80
80
ENDCHAR
STARTCHAR 007C
ENCODING 124
SWIDTH 250 0
DWIDTH 2 0
BBX 1 7 1 -1
BITMAP
80
80
80
80
80
80
80
ENDCHAR
STARTCHAR 007D
ENCODING 125
SWIDTH 375 0
DWIDTH 3 0
BBX 2 8 0 -2
BITMAP
C0
40
40
40
40
40
40
C0
ENDCHAR
STARTCHAR 007E
ENCODING 126
SWIDTH 500 0
DWIDTH 4 0
BBX 2 1 1 5
BITMAP
C0
ENDCHAR
STARTCHAR 00A0
ENCODING 160
SWIDTH 250 0
DWIDTH 2 0
BBX 0 0 0 0
BITMAP
ENDCHAR
STARTCHAR 00A1
ENCODING 161
SWIDTH 250 0
DWIDTH 2 0
BBX 1 1 1 0
BITMAP
80
ENDCHAR
STARTCHAR 00A2
ENCODING 162
SWIDTH 500 0
DWIDTH 4 0
BBX 3 5 1 1
BITMAP
E0
C0
80
E0
80
ENDCHAR
STARTCHAR 00A3
ENCODING 163
SWIDTH 750 0
DWIDTH 6 0
BBX 4 7 1 -1
BITMAP
70
50
40
E0
40
C0
F0
ENDCHAR
STARTCHAR 00A4
ENCODING 164
SWIDTH 625 0
DWIDTH 5 0
BBX 3 3 1 1
BITMAP
E0
A0
E0
ENDCHAR
STARTCHAR 00A5
ENCODING 165
SWIDTH 625 0
DWIDTH 5 0
BBX 5 6 0 0
BITMAP
88
50
60
70
70
20
ENDCHAR
STARTCHAR 00A6
ENCODING 166
SWIDTH 250 0
DWIDTH 2 0
BBX 1 7 1 -1
BITMAP
80
80
80
00
80
80
80
ENDCHAR
STARTCHAR 00A7
ENCODING 167
SWIDTH 625 0
DWIDTH 5 0
BBX 3 8 1 -1
BITMAP
E0
A0
80
E0
E0
20
A0
E0
ENDCHAR
STARTCHAR 00A8
ENCODING 168
SWIDTH 500 0
DWIDTH 4 0
BBX 2 1 1 5
BITMAP
C0
ENDCHAR
STARTCHAR 00A9
ENCODING 169
SWIDTH 1000 0
DWIDTH 8 0
BBX 7 6 1 0
BITMAP
38
FE
C2
C2
FE
38
ENDCHAR
STARTCHAR 00AA
ENCODING 170
SWIDTH 375 0
DWIDTH 3 0
BBX 3 4 0 2
BITMAP
E0
A0
E0
E0
ENDCHAR
STARTCHAR 00AB
ENCODING 171
SWIDTH 500 0
DWIDTH 4 0
BBX 3 3 0 1
BITMAP
40
A0
40
ENDCHAR
STARTCHAR 00AC
ENCODING 172
SWIDTH 625 0
DWIDTH 5 0
BBX 4 2 1 1
BITMAP
F0
10
ENDCHAR
STARTCHAR 00AD
ENCODING 173
SWIDTH 625 0
DWIDTH 5 0
BBX 4 1 1 2
BITMAP
F0
ENDCHAR
STARTCHAR 00AE
ENCODING 174
SWIDTH 1000 0
DWIDTH 8 0
BBX 7 6 0 0
BITMAP
38
D6
96
9A
D6
38
ENDCHAR
STARTCHAR 00AF
ENCODING 175
SWIDTH 500 0
DWIDTH 4 0
BBX 2 1 1 4
BITMAP
C0
ENDCHAR
STARTCHAR 00B0
ENCODING 176
SWIDTH 250 0
DWIDTH 2 0
BBX 2 2 0 5
BITMAP
C0
C0
ENDCHAR
STARTCHAR 00B1
ENCODING 177
SWIDTH 625 0
DWIDTH 5 0
BBX 4 4 1 1
BITMAP
20
20
F0
F0
ENDCHAR
STARTCHAR 00B2
ENCODING 178
SWIDTH 375 0
DWIDTH 3 0
BBX 2 4 0 2
BITMAP
C0
40
80
C0
ENDCHAR
STARTCHAR 00B3
ENCODING 179
SWIDTH 375 0
DWIDTH 3 0
BBX 2 3 0 3
BITMAP
C0
40
C0
ENDCHAR
STARTCHAR 00B4
ENCODING 180
SWIDTH 500 0
DWIDTH 4 0
BBX 1 1 2 6
BITMAP
80
ENDCHAR
STARTCHAR 00B6
ENCODING 182
SWIDTH 1000 0
DWIDTH 8 0
BBX 3 8 2 -1
BITMAP
E0
E0
E0
60
60
60
60
60
ENDCHAR
STARTCHAR 00B7
ENCODING 183
SWIDTH 250 0
DWIDTH 2 0
BBX 1 1 1 2
BITMAP
80
ENDCHAR
STARTCHAR 00B8
ENCODING 184
SWIDTH 500 0
DWIDTH 4 0
BBX 1 1 2 -1
BITMAP
80
ENDCHAR
STARTCHAR 00B9
ENCODING 185
SWIDTH 375 0
DWIDTH 3 0
BBX 1 2 1 4
BITMAP
80
80
ENDCHAR
STARTCHAR 00BA
ENCODING 186
SWIDTH 375 0
DWIDTH 3 0
BBX 3 4 0 2
BITMAP
E0
A0
E0
E0
ENDCHAR
STARTCHAR 00BB
ENCODING 187
SWIDTH 500 0
DWIDTH 4 0
BBX 2 3 1 1
BITMAP
40
C0
40
ENDCHAR
STARTCHAR 00BC
ENCODING 188
SWIDTH 750 0
DWIDTH 6 0
BBX 5 6 1 0
BITMAP
90
A0
A0
50
B8
10
ENDCHAR
STARTCHAR 00BD
ENCODING 189
SWIDTH 750 0
DWIDTH 6 0
BBX 4 6 1 0
BITMAP
90
A0
C0
70
A0
30
ENDCHAR
STARTCHAR 00BE
ENCODING 190
SWIDTH 750 0
DWIDTH 6 0
BBX 6 6 0 0
BITMAP
C8
50
D0
28
5C
48
ENDCHAR
STARTCHAR 00BF
ENCODING 191
SWIDTH 500 0
DWIDTH 4 0
BBX 4 6 0 0
BITMAP
20
00
00
80
90
F0
ENDCHAR
STARTCHAR 00C0
ENCODING 192
SWIDTH 750 0
DWIDTH 6 0
BBX 4 6 1 1
BITMAP
40
40
60
A0
90
F0
ENDCHAR
STARTCHAR 00C1
ENCODING 193
SWIDTH 750 0
DWIDTH 6 0
BBX 4 5 1 2
BITMAP
40
60
A0
90
F0
ENDCHAR
STARTCHAR 00C2
ENCODING 194
SWIDTH 750 0
DWIDTH 6 0
BBX 4 6 1 0
BITMAP
40
40
60
A0
90
F0
ENDCHAR
STARTCHAR 00C3
ENCODING 195
SWIDTH 750 0
DWIDTH 6 0
BBX 4 6 1 1
BITMAP
60
40
60
A0
90
F0
ENDCHAR
STARTCHAR 00C4
ENCODING 196
SWIDTH 750 0
DWIDTH 6 0
BBX 4 6 1 0
BITMAP
50
40
60
A0
90
F0
ENDCHAR
STARTCHAR 00C5
ENCODING 197
SWIDTH 750 0
DWIDTH 6 0
BBX 4 7 1 0
BITMAP
20
60
40
60
A0
90
F0
ENDCHAR
STARTCHAR 00C6
ENCODING 198
SWIDTH 1000 0
DWIDTH 8 0
BBX 7 6 0 0
BITMAP
3E
10
70
3C
D0
DE
ENDCHAR
STARTCHAR 00C7
ENCODING 199
SWIDTH 750 0
DWIDTH 6 0
BBX 5 8 0 -3
BITMAP
78
C8
80
80
80
48
30
10
ENDCHAR
STARTCHAR 00C8
ENCODING 200
SWIDTH 750 0
DWIDTH 6 0
BBX 5 7 0 1
BITMAP
20
F8
40
40
70
40
F8
ENDCHAR
STARTCHAR 00C9
ENCODING 201
SWIDTH 750 0
DWIDTH 6 0
BBX 5 6 0 2
BITMAP
F8
40
40
70
40
F8
ENDCHAR
STARTCHAR 00CA
ENCODING 202
SWIDTH 750 0
DWIDTH 6 0
BBX 5 7 0 0
BITMAP
20
F8
40
40
70
40
F8
ENDCHAR
STARTCHAR 00CB
ENCODING 203
SWIDTH 750 0
DWIDTH 6 0
BBX 5 8 0 0
BITMAP
28
00
F8
40
40
70
40
F8
ENDCHAR
STARTCHAR 00CC
ENCODING 204
SWIDTH 375 0
DWIDTH 3 0
BBX 2 7 0 1
BITMAP
C0
40
40
40
40
40
40
ENDCHAR
STARTCHAR 00CD
ENCODING 205
SWIDTH 375 0
DWIDTH 3 0
BBX 2 8 1 0
BITMAP
40
80
80
80
80
80
80
80
ENDCHAR
STARTCHAR 00CE
ENCODING 206
SWIDTH 375 0
DWIDTH 3 0
BBX 3 7 0 0
BITMAP
E0
40
40
40
40
40
40
ENDCHAR
STARTCHAR 00CF
ENCODING 207
SWIDTH 375 0
DWIDTH 3 0
BBX 3 8 0 0
BITMAP
A0
00
40
40
40
40
40
40
ENDCHAR
STARTCHAR 00D0
ENCODING 208
SWIDTH 750 0
DWIDTH 6 0
BBX 6 6 0 0
BITMAP
F8
4C
44
E4
4C
F8
ENDCHAR
STARTCHAR 00D1
ENCODING 209
SWIDTH 875 0
DWIDTH 7 0
BBX 5 8 1 0
BITMAP
20
40
88
C8
C8
A8
98
88
ENDCHAR
STARTCHAR 00D2
ENCODING 210
SWIDTH 750 0
DWIDTH 6 0
BBX 6 8 0 0
BITMAP
20
00
78
CC
84
84
CC
78
ENDCHAR
STARTCHAR 00D3
ENCODING 211
SWIDTH 750 0
DWIDTH 6 0
BBX 6 7 0 1
BITMAP
10
78
CC
84
84
CC
78
ENDCHAR
STARTCHAR 00D4
ENCODING 212
SWIDTH 750 0
DWIDTH 6 0
BBX 6 7 0 0
BITMAP
20
78
CC
84
84
CC
78
ENDCHAR
STARTCHAR 00D5
ENCODING 213
SWIDTH 750 0
DWIDTH 6 0
BBX 6 8 0 0
BITMAP
10
20
78
CC
84
84
CC
78
ENDCHAR
STARTCHAR 00D6
ENCODING 214
SWIDTH 750 0
DWIDTH 6 0
BBX 6 8 0 0
BITMAP
28
00
78
CC
84
84
CC
78
ENDCHAR
STARTCHAR 00D7
ENCODING 215
SWIDTH 625 0
DWIDTH 5 0
BBX 3 3 1 1
BITMAP
A0
40
A0
ENDCHAR
STARTCHAR 00D8
ENCODING 216
SWIDTH 750 0
DWIDTH 6 0
BBX 6 6 0 0
BITMAP
78
CC
94
A4
CC
B8
ENDCHAR
STARTCHAR 00D9
ENCODING 217
SWIDTH 750 0
DWIDTH 6 0
BBX 4 6 1 2
BITMAP
90
90
90
90
90
60
ENDCHAR
STARTCHAR 00DA
ENCODING 218
SWIDTH 750 0
DWIDTH 6 0
BBX 4 6 1 2
BITMAP
90
90
90
90
90
60
ENDCHAR
STARTCHAR 00DB
ENCODING 219
SWIDTH 750 0
DWIDTH 6 0
BBX 4 6 1 1
BITMAP
90
90
90
90
90
60
ENDCHAR
STARTCHAR 00DC
ENCODING 220
SWIDTH 750 0
DWIDTH 6 0
BBX 4 8 1 0
BITMAP
50
00
90
90
90
90
90
60
ENDCHAR
STARTCHAR 00DD
ENCODING 221
SWIDTH 625 0
DWIDTH 5 0
BBX 4 7 1 1
BITMAP
40
90
A0
A0
40
40
40
ENDCHAR
STARTCHAR 00DE
ENCODING 222
SWIDTH 625 0
DWIDTH 5 0
BBX 5 6 1 0
BITMAP
80
F0
88
88
F0
80
ENDCHAR
STARTCHAR 00DF
ENCODING 223
SWIDTH 500 0
DWIDTH 4 0
BBX 3 6 1 0
BITMAP
E0
A0
C0
A0
A0
E0
ENDCHAR
STARTCHAR 00E0
ENCODING 224
SWIDTH 500 0
DWIDTH 4 0
BBX 5 6 0 1
BITMAP
40
00
70
10
F0
F8
ENDCHAR
STARTCHAR 00E1
ENCODING 225
SWIDTH 500 0
DWIDTH 4 0
BBX 5 6 0 1
BITMAP
20
00
70
10
F0
F8
ENDCHAR
STARTCHAR 00E2
ENCODING 226
SWIDTH 500 0
DWIDTH 4 0
BBX 5 6 0 0
BITMAP
20
00
70
10
F0
F8
ENDCHAR
STARTCHAR 00E3
ENCODING 227
SWIDTH 500 0
DWIDTH 4 0
BBX 5 6 0 0
BITMAP
60
00
70
10
F0
F8
ENDCHAR
STARTCHAR 00E4
ENCODING 228
SWIDTH 500 0
DWIDTH 4 0
BBX 5 6 0 0
BITMAP
60
00
70
10
F0
F8
ENDCHAR
STARTCHAR 00E5
ENCODING 229
SWIDTH 500 0
DWIDTH 4 0
BBX 5 6 0 0
BITMAP
60
00
70
10
F0
F8
ENDCHAR
STARTCHAR 00E6
ENCODING 230
SWIDTH 875 0
DWIDTH 7 0
BBX 6 4 0 0
BITMAP
6C
14
FC
FC
ENDCHAR
STARTCHAR 00E7
ENCODING 231
SWIDTH 500 0
DWIDTH 4 0
BBX 4 6 0 -2
BITMAP
70
80
80
50
20
20
ENDCHAR
STARTCHAR 00E8
ENCODING 232
SWIDTH 500 0
DWIDTH 4 0
BBX 4 6 0 1
BITMAP
40
00
60
90
F0
70
ENDCHAR
STARTCHAR 00E9
ENCODING 233
SWIDTH 500 0
DWIDTH 4 0
BBX 4 6 0 1
BITMAP
20
00
60
90
F0
70
ENDCHAR
STARTCHAR 00EA
ENCODING 234
SWIDTH 500 0
DWIDTH 4 0
BBX 4 6 0 0
BITMAP
20
00
60
90
F0
70
ENDCHAR
STARTCHAR 00EB
ENCODING 235
SWIDTH 500 0
DWIDTH 4 0
BBX 4 6 0 0
BITMAP
50
00
60
90
F0
70
ENDCHAR
STARTCHAR 00EC
ENCODING 236
SWIDTH 250 0
DWIDTH 2 0
BBX 2 6 0 1
BITMAP
80
00
40
40
40
40
ENDCHAR
STARTCHAR 00ED
ENCODING 237
SWIDTH 250 0
DWIDTH 2 0
BBX 1 6 1 1
BITMAP
80
00
80
80
80
80
ENDCHAR
STARTCHAR 00EE
ENCODING 238
SWIDTH 250 0
DWIDTH 2 0
BBX 2 6 0 0
BITMAP
C0
00
40
40
40
40
ENDCHAR
STARTCHAR 00EF
ENCODING 239
SWIDTH 250 0
DWIDTH 2 0
BBX 3 6 0 0
BITMAP
A0
00
40
40
40
40
ENDCHAR
STARTCHAR 00F0
ENCODING 240
SWIDTH 625 0
DWIDTH 5 0
BBX 4 6 0 1
BITMAP
20
20
70
90
90
60
ENDCHAR
STARTCHAR 00F1
ENCODING 241
SWIDTH 625 0
DWIDTH 5 0
BBX 3 6 1 0
BITMAP
40
00
E0
A0
A0
A0
ENDCHAR
STARTCHAR 00F2
ENCODING 242
SWIDTH 625 0
DWIDTH 5 0
BBX 4 6 0 1
BITMAP
40
00
60
90
90
60
ENDCHAR
STARTCHAR 00F3
ENCODING 243
SWIDTH 625 0
DWIDTH 5 0
BBX 4 6 0 1
BITMAP
20
00
60
90
90
60
ENDCHAR
STARTCHAR 00F4
ENCODING 244
SWIDTH 625 0
DWIDTH 5 0
BBX 4 6 0 0
BITMAP
20
00
60
90
90
60
ENDCHAR
STARTCHAR 00F5
ENCODING 245
SWIDTH 625 0
DWIDTH 5 0
BBX 4 6 0 0
BITMAP
60
00
60
90
90
60
ENDCHAR
STARTCHAR 00F6
ENCODING 246
SWIDTH 625 0
DWIDTH 5 0
BBX 4 6 0 0
BITMAP
50
00
60
90
90
60
ENDCHAR
STARTCHAR 00F7
ENCODING 247
SWIDTH 625 0
DWIDTH 5 0
BBX 4 5 1 0
BITMAP
20
00
F0
00
20
ENDCHAR
STARTCHAR 00F8
ENCODING 248
SWIDTH 625 0
DWIDTH 5 0
BBX 4 4 0 0
BITMAP
70
B0
D0
60
ENDCHAR
STARTCHAR 00F9
ENCODING 249
SWIDTH 625 0
DWIDTH 5 0
BBX 3 6 1 1
BITMAP
40
00
A0
A0
A0
E0
ENDCHAR
STARTCHAR 00FA
ENCODING 250
SWIDTH 625 0
DWIDTH 5 0
BBX 3 4 1 3
BITMAP
A0
A0
A0
E0
ENDCHAR
STARTCHAR 00FB
ENCODING 251
SWIDTH 625 0
DWIDTH 5 0
BBX 3 6 1 0
BITMAP
40
00
A0
A0
A0
E0
ENDCHAR
STARTCHAR 00FC
ENCODING 252
SWIDTH 625 0
DWIDTH 5 0
BBX 3 6 1 0
BITMAP
60
00
A0
A0
A0
E0
ENDCHAR
STARTCHAR 00FD
ENCODING 253
SWIDTH 500 0
DWIDTH 4 0
BBX 3 8 1 -1
BITMAP
40
00
20
C0
C0
40
80
80
ENDCHAR
STARTCHAR 00FE
ENCODING 254
SWIDTH 625 0
DWIDTH 5 0
BBX 4 7 0 -1
BITMAP
C0
40
70
50
50
70
40
ENDCHAR
STARTCHAR 00FF
ENCODING 255
SWIDTH 500 0
DWIDTH 4 0
BBX 3 8 1 -2
BITMAP
A0
00
20
C0
C0
40
80
80
ENDCHAR
STARTCHAR 0100
ENCODING 256
SWIDTH 750 0
DWIDTH 6 0
BBX 4 7 1 0
BITMAP
60
40
60
A0
90
F0
10
ENDCHAR
STARTCHAR 0101
ENCODING 257
SWIDTH 500 0
DWIDTH 4 0
BBX 5 5 0 0
BITMAP
60
70
10
F0
F8
ENDCHAR
STARTCHAR 0102
ENCODING 258
SWIDTH 750 0
DWIDTH 6 0
BBX 4 6 1 0
BITMAP
60
40
60
A0
90
F0
ENDCHAR
STARTCHAR 0103
ENCODING 259
SWIDTH 500 0
DWIDTH 4 0
BBX 5 6 0 0
BITMAP
60
00
70
30
D0
F8
ENDCHAR
STARTCHAR 0104
ENCODING 260
SWIDTH 750 0
DWIDTH 6 0
BBX 5 8 1 -2
BITMAP
40
60
A0
90
F0
10
10
18
ENDCHAR
STARTCHAR 0105
ENCODING 261
SWIDTH 500 0
DWIDTH 4 0
BBX 5 6 0 -2
BITMAP
70
10
F0
F0
20
38
ENDCHAR
STARTCHAR 0106
ENCODING 262
SWIDTH 750 0
DWIDTH 6 0
BBX 5 8 0 0
BITMAP
10
00
78
C8
80
80
C0
78
ENDCHAR
STARTCHAR 0107
ENCODING 263
SWIDTH 500 0
DWIDTH 4 0
BBX 4 4 0 2
BITMAP
70
80
80
70
ENDCHAR
STARTCHAR 0108
ENCODING 264
SWIDTH 750 0
DWIDTH 6 0
BBX 5 7 0 0
BITMAP
10
78
C8
80
80
C0
78
ENDCHAR
STARTCHAR 0109
ENCODING 265
SWIDTH 500 0
DWIDTH 4 0
BBX 4 6 0 0
BITMAP
20
00
70
80
80
70
ENDCHAR
STARTCHAR 010A
ENCODING 266
SWIDTH 750 0
DWIDTH 6 0
BBX 5 8 0 0
BITMAP
20
00
78
88
80
80
C8
70
ENDCHAR
STARTCHAR 010B
ENCODING 267
SWIDTH 500 0
DWIDTH 4 0
BBX 4 6 0 0
BITMAP
20
00
70
80
80
70
ENDCHAR
STARTCHAR 010C
ENCODING 268
SWIDTH 750 0
DWIDTH 6 0
BBX 5 7 0 1
BITMAP
30
78
C8
80
80
C0
78
ENDCHAR
STARTCHAR 010D
ENCODING 269
SWIDTH 500 0
DWIDTH 4 0
BBX 4 6 0 0
BITMAP
60
00
70
80
80
70
ENDCHAR
STARTCHAR 010E
ENCODING 270
SWIDTH 750 0
DWIDTH 6 0
BBX 6 7 0 1
BITMAP
30
F8
44
44
44
4C
F8
ENDCHAR
STARTCHAR 010F
ENCODING 271
SWIDTH 625 0
DWIDTH 5 0
BBX 5 6 1 0
BITMAP
28
20
E0
A0
A0
E0
ENDCHAR
STARTCHAR 0110
ENCODING 272
SWIDTH 750 0
DWIDTH 6 0
BBX 6 6 0 0
BITMAP
F8
4C
44
E4
4C
F8
ENDCHAR
STARTCHAR 0111
ENCODING 273
SWIDTH 625 0
DWIDTH 5 0
BBX 4 6 0 1
BITMAP
10
30
70
90
90
70
ENDCHAR
STARTCHAR 0112
ENCODING 274
SWIDTH 750 0
DWIDTH 6 0
BBX 5 7 0 0
BITMAP
30
F8
40
40
70
40
F8
ENDCHAR
STARTCHAR 0113
ENCODING 275
SWIDTH 500 0
DWIDTH 4 0
BBX 4 5 0 0
BITMAP
60
60
90
F0
70
ENDCHAR
STARTCHAR 0116
ENCODING 278
SWIDTH 750 0
DWIDTH 6 0
BBX 5 8 0 0
BITMAP
10
00
F8
40
40
70
40
F8
ENDCHAR
STARTCHAR 0117
ENCODING 279
SWIDTH 500 0
DWIDTH 4 0
BBX 4 6 0 0
BITMAP
20
00
60
90
F0
B0
ENDCHAR
STARTCHAR 0118
ENCODING 280
SWIDTH 750 0
DWIDTH 6 0
BBX 5 8 0 -2
BITMAP
F8
40
40
70
40
F8
20
30
ENDCHAR
STARTCHAR 0119
ENCODING 281
SWIDTH 500 0
DWIDTH 4 0
BBX 4 7 0 -3
BITMAP
60
90
F0
80
90
60
60
ENDCHAR
STARTCHAR 011A
ENCODING 282
SWIDTH 750 0
DWIDTH 6 0
BBX 5 7 0 1
BITMAP
30
F8
40
40
70
40
F8
ENDCHAR
STARTCHAR 011B
ENCODING 283
SWIDTH 500 0
DWIDTH 4 0
BBX 4 6 0 1
BITMAP
20
00
60
90
F0
70
ENDCHAR
STARTCHAR 011C
ENCODING 284
SWIDTH 750 0
DWIDTH 6 0
BBX 5 7 0 0
BITMAP
20
78
C8
80
88
C8
78
ENDCHAR
STARTCHAR 011D
ENCODING 285
SWIDTH 500 0
DWIDTH 4 0
BBX 4 7 0 -1
BITMAP
20
10
70
70
40
B0
F0
ENDCHAR
STARTCHAR 011E
ENCODING 286
SWIDTH 750 0
DWIDTH 6 0
BBX 5 7 0 0
BITMAP
30
78
C8
80
88
C8
78
ENDCHAR
STARTCHAR 011F
ENCODING 287
SWIDTH 500 0
DWIDTH 4 0
BBX 4 8 0 -2
BITMAP
60
10
70
50
70
60
90
F0
ENDCHAR
STARTCHAR 0120
ENCODING 288
SWIDTH 750 0
DWIDTH 6 0
BBX 5 8 0 0
BITMAP
10
00
78
C8
80
88
C8
78
ENDCHAR
STARTCHAR 0121
ENCODING 289
SWIDTH 500 0
DWIDTH 4 0
BBX 4 8 0 -2
BITMAP
20
10
70
50
70
60
90
F0
ENDCHAR
STARTCHAR 0122
ENCODING 290
SWIDTH 750 0
DWIDTH 6 0
BBX 5 8 0 -3
BITMAP
78
C8
80
88
C8
78
00
10
ENDCHAR
STARTCHAR 0124
ENCODING 292
SWIDTH 875 0
DWIDTH 7 0
BBX 4 6 1 1
BITMAP
90
90
90
F0
90
90
ENDCHAR
STARTCHAR 0125
ENCODING 293
SWIDTH 625 0
DWIDTH 5 0
BBX 4 7 0 0
BITMAP
40
C0
40
70
50
50
50
ENDCHAR
STARTCHAR 0126
ENCODING 294
SWIDTH 875 0
DWIDTH 7 0
BBX 6 6 0 0
BITMAP
48
48
FC
78
48
48
ENDCHAR
STARTCHAR 0127
ENCODING 295
SWIDTH 625 0
DWIDTH 5 0
BBX 4 6 0 1
BITMAP
40
C0
70
50
50
50
ENDCHAR
STARTCHAR 0128
ENCODING 296
SWIDTH 375 0
DWIDTH 3 0
BBX 3 8 0 0
BITMAP
20
C0
40
40
40
40
40
40
ENDCHAR
STARTCHAR 0129
ENCODING 297
SWIDTH 250 0
DWIDTH 2 0
BBX 2 6 0 0
BITMAP
C0
00
40
40
40
40
ENDCHAR
STARTCHAR 012A
ENCODING 298
SWIDTH 375 0
DWIDTH 3 0
BBX 2 7 1 0
BITMAP
C0
80
80
80
80
80
80
ENDCHAR
STARTCHAR 012B
ENCODING 299
SWIDTH 250 0
DWIDTH 2 0
BBX 2 5 0 0
BITMAP
C0
00
40
40
40
ENDCHAR
STARTCHAR 012E
ENCODING 302
SWIDTH 375 0
DWIDTH 3 0
BBX 3 9 0 -3
BITMAP
40
40
40
40
40
40
60
80
40
ENDCHAR
STARTCHAR 012F
ENCODING 303
SWIDTH 250 0
DWIDTH 2 0
BBX 2 8 0 -2
BITMAP
40
00
40
40
40
40
80
80
ENDCHAR
STARTCHAR 0130
ENCODING 304
SWIDTH 375 0
DWIDTH 3 0
BBX 1 8 1 0
BITMAP
80
00
80
80
80
80
80
80
ENDCHAR
STARTCHAR 0131
ENCODING 305
SWIDTH 250 0
DWIDTH 2 0
BBX 1 4 1 0
BITMAP
80
80
80
80
ENDCHAR
STARTCHAR 0132
ENCODING 306
SWIDTH 875 0
DWIDTH 7 0
BBX 5 6 1 0
BITMAP
88
88
88
88
88
B8
ENDCHAR
STARTCHAR 0133
ENCODING 307
SWIDTH 625 0
DWIDTH 5 0
BBX 3 8 1 -2
BITMAP
A0
00
A0
A0
A0
A0
20
60
ENDCHAR
STARTCHAR 0134
ENCODING 308
SWIDTH 500 0
DWIDTH 4 0
BBX 3 7 0 0
BITMAP
40
20
20
20
20
20
E0
ENDCHAR
STARTCHAR 0135
ENCODING 309
SWIDTH 250 0
DWIDTH 2 0
BBX 3 7 -1 -1
BITMAP
60
00
20
20
20
20
E0
ENDCHAR
STARTCHAR 0136
ENCODING 310
SWIDTH 750 0
DWIDTH 6 0
BBX 4 8 1 -3
BITMAP
80
B0
C0
A0
90
80
00
20
ENDCHAR
STARTCHAR 0137
ENCODING 311
SWIDTH 625 0
DWIDTH 5 0
BBX 4 8 0 -2
BITMAP
C0
40
40
60
60
50
20
20
ENDCHAR
STARTCHAR 0138
ENCODING 312
SWIDTH 625 0
DWIDTH 5 0
BBX 3 4 1 1
BITMAP
80
C0
C0
A0
ENDCHAR
STARTCHAR 0139
ENCODING 313
SWIDTH 625 0
DWIDTH 5 0
BBX 5 7 0 1
BITMAP
40
40
40
40
40
40
F8
ENDCHAR
STARTCHAR 013A
ENCODING 314
SWIDTH 250 0
DWIDTH 2 0
BBX 2 7 0 1
BITMAP
40
C0
40
40
40
40
40
ENDCHAR
STARTCHAR 013B
ENCODING 315
SWIDTH 625 0
DWIDTH 5 0
BBX 5 8 0 -3
BITMAP
40
40
40
40
40
F8
00
10
ENDCHAR
STARTCHAR 013C
ENCODING 316
SWIDTH 250 0
DWIDTH 2 0
BBX 2 8 0 -2
BITMAP
C0
40
40
40
40
40
40
40
ENDCHAR
STARTCHAR 013D
ENCODING 317
SWIDTH 625 0
DWIDTH 5 0
BBX 5 6 0 0
BITMAP
40
40
40
40
40
F8
ENDCHAR
STARTCHAR 013E
ENCODING 318
SWIDTH 375 0
DWIDTH 3 0
BBX 3 6 0 0
BITMAP
E0
60
40
40
40
40
ENDCHAR
STARTCHAR 013F
ENCODING 319
SWIDTH 625 0
DWIDTH 5 0
BBX 5 6 0 0
BITMAP
40
40
50
40
40
F8
ENDCHAR
STARTCHAR 0140
ENCODING 320
SWIDTH 375 0
DWIDTH 3 0
BBX 3 6 0 0
BITMAP
C0
40
60
40
40
40
ENDCHAR
STARTCHAR 0141
ENCODING 321
SWIDTH 625 0
DWIDTH 5 0
BBX 5 6 0 0
BITMAP
40
40
40
40
40
F8
ENDCHAR
STARTCHAR 0142
ENCODING 322
SWIDTH 250 0
DWIDTH 2 0
BBX 2 6 0 0
BITMAP
C0
40
40
C0
40
40
ENDCHAR
STARTCHAR 0143
ENCODING 323
SWIDTH 875 0
DWIDTH 7 0
BBX 5 6 1 2
BITMAP
88
C8
C8
A8
98
88
ENDCHAR
STARTCHAR 0144
ENCODING 324
SWIDTH 625 0
DWIDTH 5 0
BBX 3 4 1 2
BITMAP
E0
A0
A0
A0
ENDCHAR
STARTCHAR 0145
ENCODING 325
SWIDTH 875 0
DWIDTH 7 0
BBX 5 6 1 -3
BITMAP
88
C8
C8
A8
98
88
ENDCHAR
STARTCHAR 0146
ENCODING 326
SWIDTH 625 0
DWIDTH 5 0
BBX 3 6 1 -1
BITMAP
E0
A0
A0
A0
40
40
ENDCHAR
STARTCHAR 0147
ENCODING 327
SWIDTH 875 0
DWIDTH 7 0
BBX 5 7 1 1
BITMAP
60
88
C8
C8
A8
98
88
ENDCHAR
STARTCHAR 0148
ENCODING 328
SWIDTH 625 0
DWIDTH 5 0
BBX 3 4 1 2
BITMAP
E0
A0
A0
A0
ENDCHAR
STARTCHAR 0149
ENCODING 329
SWIDTH 750 0
DWIDTH 6 0
BBX 5 6 0 0
BITMAP
80
80
38
28
28
28
ENDCHAR
STARTCHAR 014A
ENCODING 330
SWIDTH 875 0
DWIDTH 7 0
BBX 5 8 1 -2
BITMAP
88
C8
C8
A8
98
88
28
38
ENDCHAR
STARTCHAR 014B
ENCODING 331
SWIDTH 625 0
DWIDTH 5 0
BBX 3 6 1 -1
BITMAP
E0
A0
A0
A0
20
60
ENDCHAR
STARTCHAR 014C
ENCODING 332
SWIDTH 750 0
DWIDTH 6 0
BBX 6 7 0 0
BITMAP
30
78
CC
84
84
CC
78
ENDCHAR
STARTCHAR 014D
ENCODING 333
SWIDTH 625 0
DWIDTH 5 0
BBX 4 5 0 0
BITMAP
60
60
90
90
60
ENDCHAR
STARTCHAR 0150
ENCODING 336
SWIDTH 750 0
DWIDTH 6 0
BBX 6 6 0 2
BITMAP
78
CC
84
84
CC
78
ENDCHAR
STARTCHAR 0151
ENCODING 337
SWIDTH 625 0
DWIDTH 5 0
BBX 4 6 0 0
BITMAP
10
00
60
90
90
60
ENDCHAR
STARTCHAR 0152
ENCODING 338
SWIDTH 1000 0
DWIDTH 8 0
BBX 7 5 1 0
BITMAP
7C
90
98
90
52
ENDCHAR
STARTCHAR 0153
ENCODING 339
SWIDTH 875 0
DWIDTH 7 0
BBX 7 4 0 0
BITMAP
6C
92
9E
7E
ENDCHAR
STARTCHAR 0154
ENCODING 340
SWIDTH 750 0
DWIDTH 6 0
BBX 5 6 0 2
BITMAP
F8
48
48
70
48
48
ENDCHAR
STARTCHAR 0155
ENCODING 341
SWIDTH 375 0
DWIDTH 3 0
BBX 2 4 1 2
BITMAP
C0
80
80
80
ENDCHAR
STARTCHAR 0156
ENCODING 342
SWIDTH 750 0
DWIDTH 6 0
BBX 5 6 0 -3
BITMAP
F8
48
48
70
48
48
ENDCHAR
STARTCHAR 0157
ENCODING 343
SWIDTH 375 0
DWIDTH 3 0
BBX 2 5 1 -1
BITMAP
C0
80
80
80
80
ENDCHAR
STARTCHAR 0158
ENCODING 344
SWIDTH 750 0
DWIDTH 6 0
BBX 5 7 0 1
BITMAP
30
F8
48
48
70
48
48
ENDCHAR
STARTCHAR 0159
ENCODING 345
SWIDTH 375 0
DWIDTH 3 0
BBX 2 6 1 0
BITMAP
80
00
C0
80
80
80
ENDCHAR
STARTCHAR 015A
ENCODING 346
SWIDTH 625 0
DWIDTH 5 0
BBX 3 7 1 1
BITMAP
40
E0
80
80
60
20
E0
ENDCHAR
STARTCHAR 015B
ENCODING 347
SWIDTH 500 0
DWIDTH 4 0
BBX 2 4 1 3
BITMAP
C0
80
40
C0
ENDCHAR
STARTCHAR 015C
ENCODING 348
SWIDTH 625 0
DWIDTH 5 0
BBX 3 7 1 0
BITMAP
40
E0
80
80
60
20
E0
ENDCHAR
STARTCHAR 015D
ENCODING 349
SWIDTH 500 0
DWIDTH 4 0
BBX 2 6 1 0
BITMAP
40
00
C0
80
40
C0
ENDCHAR
STARTCHAR 015E
ENCODING 350
SWIDTH 625 0
DWIDTH 5 0
BBX 3 8 1 -2
BITMAP
E0
80
80
60
20
E0
40
40
ENDCHAR
STARTCHAR 015F
ENCODING 351
SWIDTH 500 0
DWIDTH 4 0
BBX 2 6 1 -1
BITMAP
C0
80
40
C0
00
80
ENDCHAR
STARTCHAR 0160
ENCODING 352
SWIDTH 625 0
DWIDTH 5 0
BBX 3 6 1 2
BITMAP
E0
80
80
60
20
E0
ENDCHAR
STARTCHAR 0161
ENCODING 353
SWIDTH 500 0
DWIDTH 4 0
BBX 2 6 1 1
BITMAP
80
00
C0
80
40
C0
ENDCHAR
STARTCHAR 0162
ENCODING 354
SWIDTH 625 0
DWIDTH 5 0
BBX 5 8 0 -2
BITMAP
F8
20
20
20
20
20
20
20
ENDCHAR
STARTCHAR 0163
ENCODING 355
SWIDTH 375 0
DWIDTH 3 0
BBX 3 7 0 -2
BITMAP
40
E0
40
40
60
20
20
ENDCHAR
STARTCHAR 0164
ENCODING 356
SWIDTH 625 0
DWIDTH 5 0
BBX 5 7 0 1
BITMAP
50
F8
20
20
20
20
20
ENDCHAR
STARTCHAR 0165
ENCODING 357
SWIDTH 375 0
DWIDTH 3 0
BBX 3 5 0 1
BITMAP
40
E0
40
40
60
ENDCHAR
STARTCHAR 0166
ENCODING 358
SWIDTH 625 0
DWIDTH 5 0
BBX 5 6 0 0
BITMAP
F8
20
20
70
20
20
ENDCHAR
STARTCHAR 0167
ENCODING 359
SWIDTH 375 0
DWIDTH 3 0
BBX 3 5 0 0
BITMAP
40
E0
E0
40
60
ENDCHAR
STARTCHAR 0168
ENCODING 360
SWIDTH 750 0
DWIDTH 6 0
BBX 4 8 1 0
BITMAP
20
40
90
90
90
90
90
60
ENDCHAR
STARTCHAR 0169
ENCODING 361
SWIDTH 625 0
DWIDTH 5 0
BBX 3 6 1 0
BITMAP
40
00
A0
A0
A0
E0
ENDCHAR
STARTCHAR 016A
ENCODING 362
SWIDTH 750 0
DWIDTH 6 0
BBX 4 7 1 0
BITMAP
60
90
90
90
90
90
60
ENDCHAR
STARTCHAR 016B
ENCODING 363
SWIDTH 625 0
DWIDTH 5 0
BBX 3 5 1 0
BITMAP
C0
00
A0
A0
E0
ENDCHAR
STARTCHAR 016C
ENCODING 364
SWIDTH 750 0
DWIDTH 6 0
BBX 4 7 1 0
BITMAP
60
90
90
90
90
90
60
ENDCHAR
STARTCHAR 016D
ENCODING 365
SWIDTH 625 0
DWIDTH 5 0
BBX 3 6 1 0
BITMAP
40
00
A0
A0
A0
E0
ENDCHAR
STARTCHAR 016E
ENCODING 366
SWIDTH 750 0
DWIDTH 6 0
BBX 4 8 1 0
BITMAP
40
60
90
90
90
90
90
60
ENDCHAR
STARTCHAR 016F
ENCODING 367
SWIDTH 625 0
DWIDTH 5 0
BBX 3 6 1 0
BITMAP
C0
00
A0
A0
A0
E0
ENDCHAR
STARTCHAR 0170
ENCODING 368
SWIDTH 750 0
DWIDTH 6 0
BBX 4 6 1 2
BITMAP
90
90
90
90
90
60
ENDCHAR
STARTCHAR 0171
ENCODING 369
SWIDTH 625 0
DWIDTH 5 0
BBX 3 6 1 0
BITMAP
60
00
A0
A0
A0
E0
ENDCHAR
STARTCHAR 0172
ENCODING 370
SWIDTH 750 0
DWIDTH 6 0
BBX 4 8 1 -3
BITMAP
90
90
90
90
90
A0
40
40
ENDCHAR
STARTCHAR 0173
ENCODING 371
SWIDTH 625 0
DWIDTH 5 0
BBX 4 6 1 -2
BITMAP
A0
A0
A0
E0
30
20
ENDCHAR
STARTCHAR 0174
ENCODING 372
SWIDTH 1000 0
DWIDTH 8 0
BBX 7 7 0 0
BITMAP
10
02
92
5A
6C
6C
24
ENDCHAR
STARTCHAR 0175
ENCODING 373
SWIDTH 750 0
DWIDTH 6 0
BBX 6 6 0 0
BITMAP
30
00
04
98
78
08
ENDCHAR
STARTCHAR 0176
ENCODING 374
SWIDTH 625 0
DWIDTH 5 0
BBX 4 7 1 0
BITMAP
60
90
A0
A0
40
40
40
ENDCHAR
STARTCHAR 0177
ENCODING 375
SWIDTH 500 0
DWIDTH 4 0
BBX 3 8 1 -2
BITMAP
40
00
20
C0
C0
40
80
80
ENDCHAR
STARTCHAR 0178
ENCODING 376
SWIDTH 625 0
DWIDTH 5 0
BBX 4 8 1 0
BITMAP
50
00
90
A0
A0
40
40
40
ENDCHAR
STARTCHAR 0179
ENCODING 377
SWIDTH 625 0
DWIDTH 5 0
BBX 5 8 0 0
BITMAP
10
20
F8
90
20
40
80
F8
ENDCHAR
STARTCHAR 017A
ENCODING 378
SWIDTH 500 0
DWIDTH 4 0
BBX 3 6 0 0
BITMAP
20
00
E0
40
80
E0
ENDCHAR
STARTCHAR 017B
ENCODING 379
SWIDTH 625 0
DWIDTH 5 0
BBX 5 8 0 0
BITMAP
20
00
F8
90
20
40
80
F8
ENDCHAR
STARTCHAR 017C
ENCODING 380
SWIDTH 500 0
DWIDTH 4 0
BBX 3 6 0 0
BITMAP
40
00
E0
40
80
E0
ENDCHAR
STARTCHAR 017D
ENCODING 381
SWIDTH 625 0
DWIDTH 5 0
BBX 5 7 0 1
BITMAP
60
F8
90
20
40
80
F8
ENDCHAR
STARTCHAR 017E
ENCODING 382
SWIDTH 500 0
DWIDTH 4 0
BBX 3 6 0 1
BITMAP
40
00
E0
40
80
E0
ENDCHAR
STARTCHAR 0193
ENCODING 403
SWIDTH 750 0
DWIDTH 6 0
BBX 7 7 0 0
BITMAP
06
78
C8
80
88
C8
78
ENDCHAR
STARTCHAR 01C2
ENCODING 450
SWIDTH 500 0
DWIDTH 4 0
BBX 4 6 0 0
BITMAP
20
20
F0
F0
20
20
ENDCHAR
STARTCHAR 01CD
ENCODING 461
SWIDTH 750 0
DWIDTH 6 0
BBX 4 6 1 1
BITMAP
60
40
60
A0
90
F0
ENDCHAR
STARTCHAR 01CE
ENCODING 462
SWIDTH 500 0
DWIDTH 4 0
BBX 5 6 0 1
BITMAP
60
00
70
10
F0
F8
ENDCHAR
STARTCHAR 01CF
ENCODING 463
SWIDTH 375 0
DWIDTH 3 0
BBX 3 7 0 0
BITMAP
A0
40
40
40
40
40
40
ENDCHAR
STARTCHAR 01D0
ENCODING 464
SWIDTH 250 0
DWIDTH 2 0
BBX 2 6 0 1
BITMAP
C0
00
40
40
40
40
ENDCHAR
STARTCHAR 01D1
ENCODING 465
SWIDTH 750 0
DWIDTH 6 0
BBX 6 7 0 1
BITMAP
30
78
CC
84
84
CC
78
ENDCHAR
STARTCHAR 01D2
ENCODING 466
SWIDTH 625 0
DWIDTH 5 0
BBX 4 6 0 1
BITMAP
20
00
60
90
90
60
ENDCHAR
STARTCHAR 01D3
ENCODING 467
SWIDTH 750 0
DWIDTH 6 0
BBX 4 7 1 0
BITMAP
60
90
90
90
90
90
60
ENDCHAR
STARTCHAR 01D4
ENCODING 468
SWIDTH 625 0
DWIDTH 5 0
BBX 3 6 1 1
BITMAP
40
00
A0
A0
A0
E0
ENDCHAR
STARTCHAR 01D5
ENCODING 469
SWIDTH 750 0
DWIDTH 6 0
BBX 4 5 1 2
BITMAP
10
90
90
90
60
ENDCHAR
STARTCHAR 01D6
ENCODING 470
SWIDTH 625 0
DWIDTH 5 0
BBX 3 6 1 0
BITMAP
C0
A0
00
A0
A0
E0
ENDCHAR
STARTCHAR 01D7
ENCODING 471
SWIDTH 750 0
DWIDTH 6 0
BBX 4 7 1 1
BITMAP
20
00
10
90
90
90
60
ENDCHAR
STARTCHAR 01D8
ENCODING 472
SWIDTH 625 0
DWIDTH 5 0
BBX 3 6 1 1
BITMAP
60
00
A0
A0
A0
E0
ENDCHAR
STARTCHAR 01D9
ENCODING 473
SWIDTH 750 0
DWIDTH 6 0
BBX 4 7 1 1
BITMAP
20
00
10
90
90
90
60
ENDCHAR
STARTCHAR 01DA
ENCODING 474
SWIDTH 625 0
DWIDTH 5 0
BBX 3 7 1 0
BITMAP
40
60
00
A0
A0
A0
E0
ENDCHAR
STARTCHAR 01DB
ENCODING 475
SWIDTH 750 0
DWIDTH 6 0
BBX 4 7 1 1
BITMAP
20
00
10
90
90
90
60
ENDCHAR
STARTCHAR 01DC
ENCODING 476
SWIDTH 625 0
DWIDTH 5 0
BBX 3 7 1 0
BITMAP
40
60
00
A0
A0
A0
E0
ENDCHAR
STARTCHAR 01F5
ENCODING 501
SWIDTH 500 0
DWIDTH 4 0
BBX 4 8 0 -1
BITMAP
20
10
70
50
70
60
90
F0
ENDCHAR
STARTCHAR 01F8
ENCODING 504
SWIDTH 875 0
DWIDTH 7 0
BBX 5 6 1 2
BITMAP
88
C8
C8
A8
98
88
ENDCHAR
STARTCHAR 01F9
ENCODING 505
SWIDTH 625 0
DWIDTH 5 0
BBX 3 4 1 2
BITMAP
E0
A0
A0
A0
ENDCHAR
STARTCHAR 01FD
ENCODING 509
SWIDTH 875 0
DWIDTH 7 0
BBX 6 6 0 1
BITMAP
10
00
6C
14
FC
FC
ENDCHAR
STARTCHAR 0250
ENCODING 592
SWIDTH 500 0
DWIDTH 4 0
BBX 5 4 0 0
BITMAP
F8
48
70
70
ENDCHAR
STARTCHAR 0251
ENCODING 593
SWIDTH 625 0
DWIDTH 5 0
BBX 5 4 0 0
BITMAP
70
90
90
78
ENDCHAR
STARTCHAR 0252
ENCODING 594
SWIDTH 625 0
DWIDTH 5 0
BBX 5 4 0 0
BITMAP
F0
48
48
70
ENDCHAR
STARTCHAR 0253
ENCODING 595
SWIDTH 625 0
DWIDTH 5 0
BBX 4 6 1 0
BITMAP
70
90
E0
90
90
E0
ENDCHAR
STARTCHAR 0254
ENCODING 596
SWIDTH 500 0
DWIDTH 4 0
BBX 4 4 0 0
BITMAP
60
10
10
E0
ENDCHAR
STARTCHAR 0255
ENCODING 597
SWIDTH 500 0
DWIDTH 4 0
BBX 4 5 0 -1
BITMAP
70
80
B0
70
40
ENDCHAR
STARTCHAR 0256
ENCODING 598
SWIDTH 625 0
DWIDTH 5 0
BBX 4 8 1 -2
BITMAP
20
20
E0
A0
A0
E0
20
30
ENDCHAR
STARTCHAR 0257
ENCODING 599
SWIDTH 625 0
DWIDTH 5 0
BBX 6 6 0 0
BITMAP
1C
10
70
90
90
70
ENDCHAR
STARTCHAR 0258
ENCODING 600
SWIDTH 500 0
DWIDTH 4 0
BBX 4 4 0 0
BITMAP
60
90
F0
60
ENDCHAR
STARTCHAR 0259
ENCODING 601
SWIDTH 500 0
DWIDTH 4 0
BBX 4 4 0 0
BITMAP
60
F0
90
60
ENDCHAR
STARTCHAR 025A
ENCODING 602
SWIDTH 750 0
DWIDTH 6 0
BBX 5 4 1 0
BITMAP
E0
38
E0
E0
ENDCHAR
STARTCHAR 025C
ENCODING 604
SWIDTH 500 0
DWIDTH 4 0
BBX 4 4 0 0
BITMAP
60
20
10
F0
ENDCHAR
STARTCHAR 025E
ENCODING 606
SWIDTH 625 0
DWIDTH 5 0
BBX 4 4 0 0
BITMAP
70
90
90
70
ENDCHAR
STARTCHAR 025F
ENCODING 607
SWIDTH 375 0
DWIDTH 3 0
BBX 3 6 -1 -2
BITMAP
20
20
20
60
20
E0
ENDCHAR
STARTCHAR 0260
ENCODING 608
SWIDTH 625 0
DWIDTH 5 0
BBX 5 8 0 -2
BITMAP
18
10
70
90
90
70
90
E0
ENDCHAR
STARTCHAR 0261
ENCODING 609
SWIDTH 625 0
DWIDTH 5 0
BBX 4 6 0 -2
BITMAP
70
90
90
70
90
E0
ENDCHAR
STARTCHAR 0264
ENCODING 612
SWIDTH 625 0
DWIDTH 5 0
BBX 4 4 0 0
BITMAP
D0
20
60
60
ENDCHAR
STARTCHAR 0265
ENCODING 613
SWIDTH 625 0
DWIDTH 5 0
BBX 3 6 1 -2
BITMAP
A0
A0
A0
E0
20
20
ENDCHAR
STARTCHAR 0266
ENCODING 614
SWIDTH 625 0
DWIDTH 5 0
BBX 3 6 1 0
BITMAP
E0
A0
E0
A0
A0
A0
ENDCHAR
STARTCHAR 0267
ENCODING 615
SWIDTH 625 0
DWIDTH 5 0
BBX 3 8 1 -2
BITMAP
E0
A0
E0
A0
A0
A0
20
60
ENDCHAR
STARTCHAR 0268
ENCODING 616
SWIDTH 375 0
DWIDTH 3 0
BBX 2 5 0 0
BITMAP
40
40
40
C0
40
ENDCHAR
STARTCHAR 026C
ENCODING 620
SWIDTH 375 0
DWIDTH 3 0
BBX 2 6 0 0
BITMAP
40
40
C0
40
40
40
ENDCHAR
STARTCHAR 026D
ENCODING 621
SWIDTH 375 0
DWIDTH 3 0
BBX 3 8 0 -2
BITMAP
C0
40
40
40
40
40
40
60
ENDCHAR
STARTCHAR 026E
ENCODING 622
SWIDTH 625 0
DWIDTH 5 0
BBX 5 8 0 -2
BITMAP
C0
40
78
50
60
78
08
38
ENDCHAR
STARTCHAR 026F
ENCODING 623
SWIDTH 875 0
DWIDTH 7 0
BBX 5 4 1 -1
BITMAP
A8
A8
A8
F8
ENDCHAR
STARTCHAR 0270
ENCODING 624
SWIDTH 875 0
DWIDTH 7 0
BBX 6 6 1 -2
BITMAP
A8
A8
A8
F8
08
0C
ENDCHAR
STARTCHAR 0271
ENCODING 625
SWIDTH 875 0
DWIDTH 7 0
BBX 5 6 1 -2
BITMAP
F8
A8
A8
A8
08
08
ENDCHAR
STARTCHAR 0272
ENCODING 626
SWIDTH 625 0
DWIDTH 5 0
BBX 5 6 -1 -2
BITMAP
38
28
28
28
20
E0
ENDCHAR
STARTCHAR 0273
ENCODING 627
SWIDTH 625 0
DWIDTH 5 0
BBX 4 6 1 -2
BITMAP
E0
A0
A0
A0
20
30
ENDCHAR
STARTCHAR 0275
ENCODING 629
SWIDTH 625 0
DWIDTH 5 0
BBX 4 4 0 0
BITMAP
60
90
F0
70
ENDCHAR
STARTCHAR 0279
ENCODING 633
SWIDTH 375 0
DWIDTH 3 0
BBX 2 4 0 -1
BITMAP
40
40
40
C0
ENDCHAR
STARTCHAR 027A
ENCODING 634
SWIDTH 375 0
DWIDTH 3 0
BBX 2 6 0 -1
BITMAP
40
40
40
40
40
C0
ENDCHAR
STARTCHAR 027B
ENCODING 635
SWIDTH 375 0
DWIDTH 3 0
BBX 3 6 0 -2
BITMAP
20
20
20
E0
20
20
ENDCHAR
STARTCHAR 027D
ENCODING 637
SWIDTH 375 0
DWIDTH 3 0
BBX 3 6 1 -1
BITMAP
E0
80
80
80
80
C0
ENDCHAR
STARTCHAR 027E
ENCODING 638
SWIDTH 375 0
DWIDTH 3 0
BBX 2 4 1 0
BITMAP
C0
80
80
80
ENDCHAR
STARTCHAR 0281
ENCODING 641
SWIDTH 500 0
DWIDTH 4 0
BBX 4 4 0 0
BITMAP
50
60
70
F0
ENDCHAR
STARTCHAR 0282
ENCODING 642
SWIDTH 500 0
DWIDTH 4 0
BBX 2 6 1 -1
BITMAP
C0
80
40
C0
80
80
ENDCHAR
STARTCHAR 0283
ENCODING 643
SWIDTH 375 0
DWIDTH 3 0
BBX 3 8 0 -2
BITMAP
60
40
40
40
40
40
40
C0
ENDCHAR
STARTCHAR 0284
ENCODING 644
SWIDTH 375 0
DWIDTH 3 0
BBX 4 8 -1 -1
BITMAP
30
20
20
20
20
70
20
E0
ENDCHAR
STARTCHAR 0288
ENCODING 648
SWIDTH 375 0
DWIDTH 3 0
BBX 3 7 0 -2
BITMAP
40
E0
40
40
40
40
60
ENDCHAR
STARTCHAR 0289
ENCODING 649
SWIDTH 625 0
DWIDTH 5 0
BBX 5 4 0 0
BITMAP
40
50
F8
70
ENDCHAR
STARTCHAR 028A
ENCODING 650
SWIDTH 625 0
DWIDTH 5 0
BBX 5 4 0 0
BITMAP
D8
90
88
70
ENDCHAR
STARTCHAR 028B
ENCODING 651
SWIDTH 500 0
DWIDTH 4 0
BBX 4 4 1 1
BITMAP
90
90
90
E0
ENDCHAR
STARTCHAR 028C
ENCODING 652
SWIDTH 500 0
DWIDTH 4 0
BBX 4 4 0 0
BITMAP
20
60
A0
10
ENDCHAR
STARTCHAR 028D
ENCODING 653
SWIDTH 750 0
DWIDTH 6 0
BBX 6 4 0 0
BITMAP
08
78
A8
04
ENDCHAR
STARTCHAR 028E
ENCODING 654
SWIDTH 500 0
DWIDTH 4 0
BBX 4 6 0 0
BITMAP
10
20
20
60
A0
10
ENDCHAR
STARTCHAR 0290
ENCODING 656
SWIDTH 500 0
DWIDTH 4 0
BBX 4 6 0 -2
BITMAP
E0
40
80
E0
20
30
ENDCHAR
STARTCHAR 0291
ENCODING 657
SWIDTH 500 0
DWIDTH 4 0
BBX 4 4 0 -1
BITMAP
E0
40
B0
F0
ENDCHAR
STARTCHAR 0292
ENCODING 658
SWIDTH 500 0
DWIDTH 4 0
BBX 3 6 1 -2
BITMAP
E0
40
E0
20
A0
C0
ENDCHAR
STARTCHAR 0294
ENCODING 660
SWIDTH 500 0
DWIDTH 4 0
BBX 4 6 0 0
BITMAP
70
90
10
20
20
20
ENDCHAR
STARTCHAR 0295
ENCODING 661
SWIDTH 500 0
DWIDTH 4 0
BBX 4 6 0 0
BITMAP
E0
90
80
60
20
20
ENDCHAR
STARTCHAR 0298
ENCODING 664
SWIDTH 625 0
DWIDTH 5 0
BBX 5 4 0 0
BITMAP
70
A8
88
70
ENDCHAR
STARTCHAR 029D
ENCODING 669
SWIDTH 250 0
DWIDTH 2 0
BBX 3 8 -1 -2
BITMAP
20
00
20
20
20
20
E0
E0
ENDCHAR
STARTCHAR 02A1
ENCODING 673
SWIDTH 500 0
DWIDTH 4 0
BBX 3 6 1 0
BITMAP
E0
20
20
40
C0
40
ENDCHAR
STARTCHAR 02A2
ENCODING 674
SWIDTH 500 0
DWIDTH 4 0
BBX 4 6 0 0
BITMAP
E0
90
80
60
60
20
ENDCHAR
STARTCHAR 02BB
ENCODING 699
SWIDTH 1000 0
DWIDTH 8 0
BBX 1 1 6 6
BITMAP
80
ENDCHAR
STARTCHAR 02BC
ENCODING 700
SWIDTH 1000 0
DWIDTH 8 0
BBX 1 2 1 4
BITMAP
80
80
ENDCHAR
STARTCHAR 02C6
ENCODING 710
SWIDTH 500 0
DWIDTH 4 0
BBX 2 1 1 5
BITMAP
C0
ENDCHAR
STARTCHAR 02C7
ENCODING 711
SWIDTH 500 0
DWIDTH 4 0
BBX 2 1 1 5
BITMAP
C0
ENDCHAR
STARTCHAR 02C8
ENCODING 712
SWIDTH 250 0
DWIDTH 2 0
BBX 1 3 1 3
BITMAP
80
80
80
ENDCHAR
STARTCHAR 02CC
ENCODING 716
SWIDTH 250 0
DWIDTH 2 0
BBX 1 3 1 -1
BITMAP
80
80
80
ENDCHAR
STARTCHAR 02D0
ENCODING 720
SWIDTH 250 0
DWIDTH 2 0
BBX 1 4 0 0
BITMAP
80
00
00
80
ENDCHAR
STARTCHAR 02D1
ENCODING 721
SWIDTH 250 0
DWIDTH 2 0
BBX 0 0 0 3
BITMAP
ENDCHAR
STARTCHAR 02D8
ENCODING 728
SWIDTH 500 0
DWIDTH 4 0
BBX 2 1 1 5
BITMAP
C0
ENDCHAR
STARTCHAR 02D9
ENCODING 729
SWIDTH 500 0
DWIDTH 4 0
BBX 1 1 2 5
BITMAP
80
ENDCHAR
STARTCHAR 02DA
ENCODING 730
SWIDTH 500 0
DWIDTH 4 0
BBX 2 1 1 5
BITMAP
C0
ENDCHAR
STARTCHAR 02DB
ENCODING 731
SWIDTH 500 0
DWIDTH 4 0
BBX 2 2 1 -2
BITMAP
80
C0
ENDCHAR
STARTCHAR 02DC
ENCODING 732
SWIDTH 500 0
DWIDTH 4 0
BBX 2 1 1 5
BITMAP
C0
ENDCHAR
STARTCHAR 02DD
ENCODING 733
SWIDTH 500 0
DWIDTH 4 0
BBX 1 1 1 4
BITMAP
80
ENDCHAR
STARTCHAR 02DE
ENCODING 734
SWIDTH 500 0
DWIDTH 4 0
BBX 2 2 1 0
BITMAP
80
40
ENDCHAR
STARTCHAR 02E5
ENCODING 741
SWIDTH 500 0
DWIDTH 4 0
BBX 2 6 0 0
BITMAP
C0
40
40
40
40
40
ENDCHAR
STARTCHAR 02E6
ENCODING 742
SWIDTH 500 0
DWIDTH 4 0
BBX 2 6 0 0
BITMAP
40
40
C0
40
40
40
ENDCHAR
STARTCHAR 02E7
ENCODING 743
SWIDTH 500 0
DWIDTH 4 0
BBX 2 6 0 0
BITMAP
40
40
40
C0
40
40
ENDCHAR
STARTCHAR 02E8
ENCODING 744
SWIDTH 500 0
DWIDTH 4 0
BBX 2 6 0 0
BITMAP
40
40
40
40
C0
40
ENDCHAR
STARTCHAR 02E9
ENCODING 745
SWIDTH 500 0
DWIDTH 4 0
BBX 2 6 0 0
BITMAP
40
40
40
40
40
C0
ENDCHAR
STARTCHAR 0300
ENCODING 768
SWIDTH 500 0
DWIDTH 4 0
BBX 1 1 1 6
BITMAP
80
ENDCHAR
STARTCHAR 0301
ENCODING 769
SWIDTH 500 0
DWIDTH 4 0
BBX 1 1 2 6
BITMAP
80
ENDCHAR
STARTCHAR 0302
ENCODING 770
SWIDTH 500 0
DWIDTH 4 0
BBX 2 1 1 5
BITMAP
C0
ENDCHAR
STARTCHAR 0303
ENCODING 771
SWIDTH 500 0
DWIDTH 4 0
BBX 2 1 1 5
BITMAP
C0
ENDCHAR
STARTCHAR 0304
ENCODING 772
SWIDTH 500 0
DWIDTH 4 0
BBX 2 1 1 4
BITMAP
C0
ENDCHAR
STARTCHAR 0305
ENCODING 773
SWIDTH 500 0
DWIDTH 4 0
BBX 2 1 1 4
BITMAP
C0
ENDCHAR
STARTCHAR 0306
ENCODING 774
SWIDTH 500 0
DWIDTH 4 0
BBX 2 1 1 5
BITMAP
C0
ENDCHAR
STARTCHAR 0308
ENCODING 776
SWIDTH 500 0
DWIDTH 4 0
BBX 2 1 1 5
BITMAP
C0
ENDCHAR
STARTCHAR 030A
ENCODING 778
SWIDTH 500 0
DWIDTH 4 0
BBX 2 1 1 5
BITMAP
C0
ENDCHAR
STARTCHAR 030B
ENCODING 779
SWIDTH 500 0
DWIDTH 4 0
BBX 2 1 1 6
BITMAP
C0
ENDCHAR
STARTCHAR 030C
ENCODING 780
SWIDTH 500 0
DWIDTH 4 0
BBX 2 1 1 6
BITMAP
C0
ENDCHAR
STARTCHAR 030F
ENCODING 783
SWIDTH 500 0
DWIDTH 4 0
BBX 1 1 2 4
BITMAP
80
ENDCHAR
STARTCHAR 0318
ENCODING 792
SWIDTH 500 0
DWIDTH 4 0
BBX 1 2 1 -2
BITMAP
80
80
ENDCHAR
STARTCHAR 0319
ENCODING 793
SWIDTH 500 0
DWIDTH 4 0
BBX 1 2 2 -2
BITMAP
80
80
ENDCHAR
STARTCHAR 031A
ENCODING 794
SWIDTH 500 0
DWIDTH 4 0
BBX 1 2 1 4
BITMAP
80
80
ENDCHAR
STARTCHAR 031C
ENCODING 796
SWIDTH 500 0
DWIDTH 4 0
BBX 1 2 1 -3
BITMAP
80
80
ENDCHAR
STARTCHAR 031D
ENCODING 797
SWIDTH 500 0
DWIDTH 4 0
BBX 2 1 1 -1
BITMAP
C0
ENDCHAR
STARTCHAR 031E
ENCODING 798
SWIDTH 500 0
DWIDTH 4 0
BBX 2 2 1 -2
BITMAP
C0
40
ENDCHAR
STARTCHAR 031F
ENCODING 799
SWIDTH 500 0
DWIDTH 4 0
BBX 2 2 1 -2
BITMAP
C0
40
ENDCHAR
STARTCHAR 0320
ENCODING 800
SWIDTH 500 0
DWIDTH 4 0
BBX 2 1 1 -1
BITMAP
C0
ENDCHAR
STARTCHAR 0324
ENCODING 804
SWIDTH 500 0
DWIDTH 4 0
BBX 2 1 1 -1
BITMAP
C0
ENDCHAR
STARTCHAR 0325
ENCODING 805
SWIDTH 500 0
DWIDTH 4 0
BBX 2 2 1 -2
BITMAP
C0
C0
ENDCHAR
STARTCHAR 0327
ENCODING 807
SWIDTH 500 0
DWIDTH 4 0
BBX 1 1 2 -1
BITMAP
80
ENDCHAR
STARTCHAR 0329
ENCODING 809
SWIDTH 500 0
DWIDTH 4 0
BBX 1 2 2 -2
BITMAP
80
80
ENDCHAR
STARTCHAR 032A
ENCODING 810
SWIDTH 500 0
DWIDTH 4 0
BBX 2 2 1 -2
BITMAP
C0
C0
ENDCHAR
STARTCHAR 032C
ENCODING 812
SWIDTH 500 0
DWIDTH 4 0
BBX 2 1 1 -1
BITMAP
C0
ENDCHAR
STARTCHAR 032F
ENCODING 815
SWIDTH 500 0
DWIDTH 4 0
BBX 2 1 1 -1
BITMAP
C0
ENDCHAR
STARTCHAR 0330
ENCODING 816
SWIDTH 500 0
DWIDTH 4 0
BBX 2 1 1 -2
BITMAP
C0
ENDCHAR
STARTCHAR 0332
ENCODING 818
SWIDTH 500 0
DWIDTH 4 0
BBX 4 1 0 -1
BITMAP
F0
ENDCHAR
STARTCHAR 0334
ENCODING 820
SWIDTH 500 0
DWIDTH 4 0
BBX 2 1 1 2
BITMAP
C0
ENDCHAR
STARTCHAR 0336
ENCODING 822
SWIDTH 875 0
DWIDTH 7 0
BBX 7 1 0 2
BITMAP
FE
ENDCHAR
STARTCHAR 0339
ENCODING 825
SWIDTH 500 0
DWIDTH 4 0
BBX 1 2 2 -3
BITMAP
80
80
ENDCHAR
STARTCHAR 033A
ENCODING 826
SWIDTH 500 0
DWIDTH 4 0
BBX 2 1 1 -2
BITMAP
C0
ENDCHAR
STARTCHAR 033B
ENCODING 827
SWIDTH 500 0
DWIDTH 4 0
BBX 2 2 1 -2
BITMAP
C0
C0
ENDCHAR
STARTCHAR 033C
ENCODING 828
SWIDTH 500 0
DWIDTH 4 0
BBX 2 1 1 -2
BITMAP
C0
ENDCHAR
STARTCHAR 033D
ENCODING 829
SWIDTH 500 0
DWIDTH 4 0
BBX 2 2 1 5
BITMAP
C0
C0
ENDCHAR
STARTCHAR 0361
ENCODING 865
SWIDTH 0 0
DWIDTH 0 0
BBX 4 1 -2 6
BITMAP
F0
ENDCHAR
STARTCHAR 0384
ENCODING 900
SWIDTH 500 0
DWIDTH 4 0
BBX 1 1 2 5
BITMAP
80
ENDCHAR
STARTCHAR 0385
ENCODING 901
SWIDTH 500 0
DWIDTH 4 0
BBX 3 1 1 6
BITMAP
E0
ENDCHAR
STARTCHAR 0386
ENCODING 902
SWIDTH 1000 0
DWIDTH 8 0
BBX 5 6 1 0
BITMAP
40
20
50
50
78
88
ENDCHAR
STARTCHAR 0388
ENCODING 904
SWIDTH 1000 0
DWIDTH 8 0
BBX 6 6 0 1
BITMAP
FC
20
38
20
20
7C
ENDCHAR
STARTCHAR 0389
ENCODING 905
SWIDTH 1000 0
DWIDTH 8 0
BBX 6 6 0 1
BITMAP
A4
24
3C
24
24
24
ENDCHAR
STARTCHAR 038A
ENCODING 906
SWIDTH 1000 0
DWIDTH 8 0
BBX 3 6 1 1
BITMAP
A0
20
20
20
20
20
ENDCHAR
STARTCHAR 038C
ENCODING 908
SWIDTH 1000 0
DWIDTH 8 0
BBX 6 6 1 1
BITMAP
78
CC
84
84
C4
78
ENDCHAR
STARTCHAR 038E
ENCODING 910
SWIDTH 1000 0
DWIDTH 8 0
BBX 7 6 -1 1
BITMAP
36
98
08
08
08
08
ENDCHAR
STARTCHAR 038F
ENCODING 911
SWIDTH 1000 0
DWIDTH 8 0
BBX 7 7 0 0
BITMAP
80
BC
66
42
42
3C
7E
ENDCHAR
STARTCHAR 0390
ENCODING 912
SWIDTH 1000 0
DWIDTH 8 0
BBX 3 6 3 1
BITMAP
E0
00
80
80
80
C0
ENDCHAR
STARTCHAR 0391
ENCODING 913
SWIDTH 1000 0
DWIDTH 8 0
BBX 5 5 1 1
BITMAP
20
50
50
78
88
ENDCHAR
STARTCHAR 0392
ENCODING 914
SWIDTH 1000 0
DWIDTH 8 0
BBX 6 6 1 0
BITMAP
F8
48
70
4C
44
F8
ENDCHAR
STARTCHAR 0393
ENCODING 915
SWIDTH 1000 0
DWIDTH 8 0
BBX 5 6 1 0
BITMAP
F8
40
40
40
40
40
ENDCHAR
STARTCHAR 0394
ENCODING 916
SWIDTH 1000 0
DWIDTH 8 0
BBX 5 6 1 1
BITMAP
20
50
50
48
88
78
ENDCHAR
STARTCHAR 0395
ENCODING 917
SWIDTH 1000 0
DWIDTH 8 0
BBX 5 6 1 0
BITMAP
F8
40
70
40
40
F8
ENDCHAR
STARTCHAR 0396
ENCODING 918
SWIDTH 1000 0
DWIDTH 8 0
BBX 4 6 2 0
BITMAP
F0
10
20
40
80
F0
ENDCHAR
STARTCHAR 0397
ENCODING 919
SWIDTH 1000 0
DWIDTH 8 0
BBX 4 6 2 0
BITMAP
90
90
F0
90
90
90
ENDCHAR
STARTCHAR 0398
ENCODING 920
SWIDTH 1000 0
DWIDTH 8 0
BBX 4 7 2 -1
BITMAP
60
90
90
F0
90
90
60
ENDCHAR
STARTCHAR 0399
ENCODING 921
SWIDTH 1000 0
DWIDTH 8 0
BBX 1 6 4 0
BITMAP
80
80
80
80
80
80
ENDCHAR
STARTCHAR 039A
ENCODING 922
SWIDTH 1000 0
DWIDTH 8 0
BBX 5 6 2 0
BITMAP
80
B0
C0
A0
90
88
ENDCHAR
STARTCHAR 039B
ENCODING 923
SWIDTH 1000 0
DWIDTH 8 0
BBX 5 4 1 1
BITMAP
30
50
50
88
ENDCHAR
STARTCHAR 039C
ENCODING 924
SWIDTH 1000 0
DWIDTH 8 0
BBX 6 6 1 0
BITMAP
C4
CC
D4
B4
B4
A4
ENDCHAR
STARTCHAR 039D
ENCODING 925
SWIDTH 1000 0
DWIDTH 8 0
BBX 4 6 2 -1
BITMAP
90
D0
D0
D0
B0
90
ENDCHAR
STARTCHAR 039E
ENCODING 926
SWIDTH 1000 0
DWIDTH 8 0
BBX 4 6 2 0
BITMAP
F0
00
00
60
00
F0
ENDCHAR
STARTCHAR 039F
ENCODING 927
SWIDTH 1000 0
DWIDTH 8 0
BBX 6 6 1 0
BITMAP
78
CC
84
84
C4
78
ENDCHAR
STARTCHAR 03A0
ENCODING 928
SWIDTH 1000 0
DWIDTH 8 0
BBX 6 6 1 0
BITMAP
FC
48
48
48
48
48
ENDCHAR
STARTCHAR 03A1
ENCODING 929
SWIDTH 1000 0
DWIDTH 8 0
BBX 5 6 1 0
BITMAP
F8
48
48
70
40
40
ENDCHAR
STARTCHAR 03A3
ENCODING 931
SWIDTH 1000 0
DWIDTH 8 0
BBX 5 6 1 0
BITMAP
F8
40
20
20
C0
F8
ENDCHAR
STARTCHAR 03A4
ENCODING 932
SWIDTH 1000 0
DWIDTH 8 0
BBX 6 6 1 0
BITMAP
FC
10
10
10
10
10
ENDCHAR
STARTCHAR 03A5
ENCODING 933
SWIDTH 1000 0
DWIDTH 8 0
BBX 5 6 2 0
BITMAP
D8
60
20
20
20
20
ENDCHAR
STARTCHAR 03A6
ENCODING 934
SWIDTH 1000 0
DWIDTH 8 0
BBX 5 6 2 0
BITMAP
20
F0
A8
A8
B0
60
ENDCHAR
STARTCHAR 03A7
ENCODING 935
SWIDTH 1000 0
DWIDTH 8 0
BBX 4 6 2 0
BITMAP
90
60
40
60
90
10
ENDCHAR
STARTCHAR 03A8
ENCODING 936
SWIDTH 1000 0
DWIDTH 8 0
BBX 6 6 1 0
BITMAP
DC
58
58
58
30
10
ENDCHAR
STARTCHAR 03A9
ENCODING 937
SWIDTH 1000 0
DWIDTH 8 0
BBX 6 6 1 0
BITMAP
78
CC
84
84
78
FC
ENDCHAR
STARTCHAR 03AA
ENCODING 938
SWIDTH 1000 0
DWIDTH 8 0
BBX 3 7 3 0
BITMAP
A0
40
40
40
40
40
40
ENDCHAR
STARTCHAR 03AB
ENCODING 939
SWIDTH 1000 0
DWIDTH 8 0
BBX 5 7 2 0
BITMAP
50
D8
60
20
20
20
20
ENDCHAR
STARTCHAR 03AC
ENCODING 940
SWIDTH 1000 0
DWIDTH 8 0
BBX 5 6 1 1
BITMAP
10
00
78
D0
90
F8
ENDCHAR
STARTCHAR 03AD
ENCODING 941
SWIDTH 1000 0
DWIDTH 8 0
BBX 3 6 2 1
BITMAP
20
00
60
60
80
E0
ENDCHAR
STARTCHAR 03AE
ENCODING 942
SWIDTH 1000 0
DWIDTH 8 0
BBX 4 6 2 1
BITMAP
20
B0
D0
90
A0
20
ENDCHAR
STARTCHAR 03AF
ENCODING 943
SWIDTH 1000 0
DWIDTH 8 0
BBX 2 6 3 1
BITMAP
40
00
80
80
80
C0
ENDCHAR
STARTCHAR 03B0
ENCODING 944
SWIDTH 1000 0
DWIDTH 8 0
BBX 4 6 2 1
BITMAP
70
00
90
90
90
E0
ENDCHAR
STARTCHAR 03B1
ENCODING 945
SWIDTH 1000 0
DWIDTH 8 0
BBX 5 4 1 0
BITMAP
78
D0
90
F8
ENDCHAR
STARTCHAR 03B2
ENCODING 946
SWIDTH 1000 0
DWIDTH 8 0
BBX 5 7 1 -1
BITMAP
18
68
50
50
50
70
80
ENDCHAR
STARTCHAR 03B3
ENCODING 947
SWIDTH 1000 0
DWIDTH 8 0
BBX 4 5 2 -1
BITMAP
90
60
40
40
40
ENDCHAR
STARTCHAR 03B4
ENCODING 948
SWIDTH 1000 0
DWIDTH 8 0
BBX 4 6 2 0
BITMAP
70
40
A0
A0
A0
C0
ENDCHAR
STARTCHAR 03B5
ENCODING 949
SWIDTH 1000 0
DWIDTH 8 0
BBX 3 4 2 0
BITMAP
60
60
80
E0
ENDCHAR
STARTCHAR 03B6
ENCODING 950
SWIDTH 1000 0
DWIDTH 8 0
BBX 4 7 2 0
BITMAP
50
60
80
80
80
60
60
ENDCHAR
STARTCHAR 03B7
ENCODING 951
SWIDTH 1000 0
DWIDTH 8 0
BBX 4 5 2 -1
BITMAP
B0
D0
90
A0
20
ENDCHAR
STARTCHAR 03B8
ENCODING 952
SWIDTH 1000 0
DWIDTH 8 0
BBX 4 7 2 -1
BITMAP
60
50
90
F0
90
A0
E0
ENDCHAR
STARTCHAR 03B9
ENCODING 953
SWIDTH 1000 0
DWIDTH 8 0
BBX 2 4 3 0
BITMAP
80
80
80
C0
ENDCHAR
STARTCHAR 03BA
ENCODING 954
SWIDTH 1000 0
DWIDTH 8 0
BBX 5 4 2 0
BITMAP
58
E0
60
B0
ENDCHAR
STARTCHAR 03BB
ENCODING 955
SWIDTH 1000 0
DWIDTH 8 0
BBX 4 6 1 0
BITMAP
60
20
20
60
A0
B0
ENDCHAR
STARTCHAR 03BC
ENCODING 956
SWIDTH 1000 0
DWIDTH 8 0
BBX 5 4 1 0
BITMAP
48
50
50
A8
ENDCHAR
STARTCHAR 03BD
ENCODING 957
SWIDTH 1000 0
DWIDTH 8 0
BBX 4 3 2 0
BITMAP
D0
50
60
ENDCHAR
STARTCHAR 03BE
ENCODING 958
SWIDTH 1000 0
DWIDTH 8 0
BBX 3 7 2 0
BITMAP
60
40
60
80
80
60
60
ENDCHAR
STARTCHAR 03BF
ENCODING 959
SWIDTH 1000 0
DWIDTH 8 0
BBX 4 4 2 0
BITMAP
70
90
90
E0
ENDCHAR
STARTCHAR 03C0
ENCODING 960
SWIDTH 1000 0
DWIDTH 8 0
BBX 4 4 2 1
BITMAP
F0
60
A0
B0
ENDCHAR
STARTCHAR 03C1
ENCODING 961
SWIDTH 1000 0
DWIDTH 8 0
BBX 5 5 1 -1
BITMAP
38
48
48
B0
80
ENDCHAR
STARTCHAR 03C2
ENCODING 962
SWIDTH 500 0
DWIDTH 4 0
BBX 4 6 0 -2
BITMAP
70
50
40
20
A0
E0
ENDCHAR
STARTCHAR 03C3
ENCODING 963
SWIDTH 1000 0
DWIDTH 8 0
BBX 4 5 2 -1
BITMAP
70
90
90
90
60
ENDCHAR
STARTCHAR 03C4
ENCODING 964
SWIDTH 1000 0
DWIDTH 8 0
BBX 4 4 2 1
BITMAP
F0
40
40
60
ENDCHAR
STARTCHAR 03C5
ENCODING 965
SWIDTH 1000 0
DWIDTH 8 0
BBX 4 4 2 0
BITMAP
90
90
90
E0
ENDCHAR
STARTCHAR 03C6
ENCODING 966
SWIDTH 1000 0
DWIDTH 8 0
BBX 4 6 2 -1
BITMAP
20
20
D0
D0
D0
60
ENDCHAR
STARTCHAR 03C7
ENCODING 967
SWIDTH 1000 0
DWIDTH 8 0
BBX 4 5 2 -1
BITMAP
D0
20
40
C0
B0
ENDCHAR
STARTCHAR 03C8
ENCODING 968
SWIDTH 1000 0
DWIDTH 8 0
BBX 4 7 2 -1
BITMAP
20
70
B0
D0
D0
60
40
ENDCHAR
STARTCHAR 03C9
ENCODING 969
SWIDTH 1000 0
DWIDTH 8 0
BBX 5 4 2 1
BITMAP
88
A8
C8
F0
ENDCHAR
STARTCHAR 03CA
ENCODING 970
SWIDTH 1000 0
DWIDTH 8 0
BBX 3 6 3 0
BITMAP
A0
00
80
80
80
C0
ENDCHAR
STARTCHAR 03CB
ENCODING 971
SWIDTH 1000 0
DWIDTH 8 0
BBX 4 6 2 0
BITMAP
50
00
90
90
90
E0
ENDCHAR
STARTCHAR 03CC
ENCODING 972
SWIDTH 1000 0
DWIDTH 8 0
BBX 4 4 2 3
BITMAP
70
90
90
E0
ENDCHAR
STARTCHAR 03CD
ENCODING 973
SWIDTH 1000 0
DWIDTH 8 0
BBX 4 6 2 1
BITMAP
20
00
90
90
90
E0
ENDCHAR
STARTCHAR 03CE
ENCODING 974
SWIDTH 1000 0
DWIDTH 8 0
BBX 5 7 2 0
BITMAP
10
00
00
88
A8
C8
F0
ENDCHAR
STARTCHAR 0401
ENCODING 1025
SWIDTH 1000 0
DWIDTH 8 0
BBX 5 7 1 0
BITMAP
28
F8
40
70
40
40
F8
ENDCHAR
STARTCHAR 0402
ENCODING 1026
SWIDTH 1000 0
DWIDTH 8 0
BBX 6 7 1 -1
BITMAP
F8
10
1C
14
14
14
0C
ENDCHAR
STARTCHAR 0403
ENCODING 1027
SWIDTH 1000 0
DWIDTH 8 0
BBX 5 7 1 1
BITMAP
10
F8
40
40
40
40
40
ENDCHAR
STARTCHAR 0404
ENCODING 1028
SWIDTH 1000 0
DWIDTH 8 0
BBX 5 7 2 0
BITMAP
70
80
00
E0
00
88
78
ENDCHAR
STARTCHAR 0405
ENCODING 1029
SWIDTH 1000 0
DWIDTH 8 0
BBX 4 6 2 0
BITMAP
F0
80
80
60
90
70
ENDCHAR
STARTCHAR 0406
ENCODING 1030
SWIDTH 1000 0
DWIDTH 8 0
BBX 1 6 4 0
BITMAP
80
80
80
80
80
80
ENDCHAR
STARTCHAR 0407
ENCODING 1031
SWIDTH 1000 0
DWIDTH 8 0
BBX 3 7 3 0
BITMAP
A0
40
40
40
40
40
40
ENDCHAR
STARTCHAR 0408
ENCODING 1032
SWIDTH 1000 0
DWIDTH 8 0
BBX 3 6 2 0
BITMAP
20
20
20
20
A0
E0
ENDCHAR
STARTCHAR 0409
ENCODING 1033
SWIDTH 1000 0
DWIDTH 8 0
BBX 8 6 0 0
BITMAP
7C
48
4E
49
C9
DF
ENDCHAR
STARTCHAR 040A
ENCODING 1034
SWIDTH 1000 0
DWIDTH 8 0
BBX 8 6 0 0
BITMAP
48
48
7E
49
49
FF
ENDCHAR
STARTCHAR 040B
ENCODING 1035
SWIDTH 1000 0
DWIDTH 8 0
BBX 6 6 1 0
BITMAP
F8
10
1C
14
14
14
ENDCHAR
STARTCHAR 040C
ENCODING 1036
SWIDTH 1000 0
DWIDTH 8 0
BBX 5 7 2 1
BITMAP
30
98
A0
A0
E0
90
88
ENDCHAR
STARTCHAR 040E
ENCODING 1038
SWIDTH 1000 0
DWIDTH 8 0
BBX 4 7 2 0
BITMAP
60
80
B0
60
20
40
80
ENDCHAR
STARTCHAR 040F
ENCODING 1039
SWIDTH 1000 0
DWIDTH 8 0
BBX 6 6 1 -1
BITMAP
48
48
48
48
48
FC
ENDCHAR
STARTCHAR 0410
ENCODING 1040
SWIDTH 1000 0
DWIDTH 8 0
BBX 5 5 1 1
BITMAP
20
50
50
78
88
ENDCHAR
STARTCHAR 0411
ENCODING 1041
SWIDTH 1000 0
DWIDTH 8 0
BBX 5 6 1 0
BITMAP
F8
40
78
48
48
F8
ENDCHAR
STARTCHAR 0412
ENCODING 1042
SWIDTH 1000 0
DWIDTH 8 0
BBX 6 6 1 0
BITMAP
F8
48
70
4C
44
F8
ENDCHAR
STARTCHAR 0413
ENCODING 1043
SWIDTH 1000 0
DWIDTH 8 0
BBX 5 6 1 0
BITMAP
F8
40
40
40
40
40
ENDCHAR
STARTCHAR 0414
ENCODING 1044
SWIDTH 1000 0
DWIDTH 8 0
BBX 6 6 1 -1
BITMAP
7C
48
48
48
88
FC
ENDCHAR
STARTCHAR 0415
ENCODING 1045
SWIDTH 1000 0
DWIDTH 8 0
BBX 5 6 1 0
BITMAP
F8
40
70
40
40
F8
ENDCHAR
STARTCHAR 0416
ENCODING 1046
SWIDTH 1000 0
DWIDTH 8 0
BBX 7 6 1 0
BITMAP
92
54
58
78
54
92
ENDCHAR
STARTCHAR 0417
ENCODING 1047
SWIDTH 1000 0
DWIDTH 8 0
BBX 4 7 2 0
BITMAP
60
90
10
60
30
10
E0
ENDCHAR
STARTCHAR 0418
ENCODING 1048
SWIDTH 1000 0
DWIDTH 8 0
BBX 4 6 2 0
BITMAP
90
90
F0
D0
90
90
ENDCHAR
STARTCHAR 0419
ENCODING 1049
SWIDTH 1000 0
DWIDTH 8 0
BBX 4 7 2 0
BITMAP
60
90
90
F0
D0
90
90
ENDCHAR
STARTCHAR 041A
ENCODING 1050
SWIDTH 1000 0
DWIDTH 8 0
BBX 5 6 2 1
BITMAP
98
A0
A0
E0
90
88
ENDCHAR
STARTCHAR 041B
ENCODING 1051
SWIDTH 1000 0
DWIDTH 8 0
BBX 7 6 0 0
BITMAP
3E
24
24
24
A4
C4
ENDCHAR
STARTCHAR 041C
ENCODING 1052
SWIDTH 1000 0
DWIDTH 8 0
BBX 6 6 1 0
BITMAP
48
58
D8
B8
A4
84
ENDCHAR
STARTCHAR 041D
ENCODING 1053
SWIDTH 1000 0
DWIDTH 8 0
BBX 4 6 2 0
BITMAP
90
90
F0
90
90
90
ENDCHAR
STARTCHAR 041E
ENCODING 1054
SWIDTH 1000 0
DWIDTH 8 0
BBX 6 6 1 0
BITMAP
78
CC
84
84
C4
78
ENDCHAR
STARTCHAR 041F
ENCODING 1055
SWIDTH 1000 0
DWIDTH 8 0
BBX 6 6 1 0
BITMAP
FC
48
48
48
48
48
ENDCHAR
STARTCHAR 0420
ENCODING 1056
SWIDTH 1000 0
DWIDTH 8 0
BBX 5 6 1 0
BITMAP
F8
48
48
70
40
40
ENDCHAR
STARTCHAR 0421
ENCODING 1057
SWIDTH 1000 0
DWIDTH 8 0
BBX 5 6 2 0
BITMAP
78
80
80
80
C0
78
ENDCHAR
STARTCHAR 0422
ENCODING 1058
SWIDTH 1000 0
DWIDTH 8 0
BBX 6 6 1 0
BITMAP
FC
10
10
10
10
10
ENDCHAR
STARTCHAR 0423
ENCODING 1059
SWIDTH 1000 0
DWIDTH 8 0
BBX 4 6 2 0
BITMAP
80
B0
60
20
40
80
ENDCHAR
STARTCHAR 0424
ENCODING 1060
SWIDTH 1000 0
DWIDTH 8 0
BBX 5 6 2 0
BITMAP
20
F0
A8
A8
B0
60
ENDCHAR
STARTCHAR 0425
ENCODING 1061
SWIDTH 1000 0
DWIDTH 8 0
BBX 4 6 2 0
BITMAP
90
60
40
60
90
10
ENDCHAR
STARTCHAR 0426
ENCODING 1062
SWIDTH 1000 0
DWIDTH 8 0
BBX 6 6 1 -1
BITMAP
48
48
48
48
48
FC
ENDCHAR
STARTCHAR 0427
ENCODING 1063
SWIDTH 1000 0
DWIDTH 8 0
BBX 4 6 2 0
BITMAP
90
90
90
F0
10
10
ENDCHAR
STARTCHAR 0428
ENCODING 1064
SWIDTH 1000 0
DWIDTH 8 0
BBX 8 6 0 0
BITMAP
4A
4A
4A
4A
4A
FF
ENDCHAR
STARTCHAR 0429
ENCODING 1065
SWIDTH 1000 0
DWIDTH 8 0
BBX 7 6 0 -1
BITMAP
4A
4A
4A
4A
4A
FE
ENDCHAR
STARTCHAR 042A
ENCODING 1066
SWIDTH 1000 0
DWIDTH 8 0
BBX 7 6 1 0
BITMAP
E0
20
3C
22
22
7C
ENDCHAR
STARTCHAR 042B
ENCODING 1067
SWIDTH 1000 0
DWIDTH 8 0
BBX 8 6 0 0
BITMAP
42
42
72
4A
4A
F7
ENDCHAR
STARTCHAR 042C
ENCODING 1068
SWIDTH 1000 0
DWIDTH 8 0
BBX 6 6 1 0
BITMAP
40
40
78
44
44
F8
ENDCHAR
STARTCHAR 042D
ENCODING 1069
SWIDTH 1000 0
DWIDTH 8 0
BBX 5 6 1 0
BITMAP
70
08
78
08
88
70
ENDCHAR
STARTCHAR 042E
ENCODING 1070
SWIDTH 1000 0
DWIDTH 8 0
BBX 6 6 1 0
BITMAP
98
A4
E4
A4
A4
98
ENDCHAR
STARTCHAR 042F
ENCODING 1071
SWIDTH 1000 0
DWIDTH 8 0
BBX 6 6 1 -1
BITMAP
7C
48
78
28
48
88
ENDCHAR
STARTCHAR 0430
ENCODING 1072
SWIDTH 1000 0
DWIDTH 8 0
BBX 4 4 2 0
BITMAP
E0
60
A0
F0
ENDCHAR
STARTCHAR 0431
ENCODING 1073
SWIDTH 1000 0
DWIDTH 8 0
BBX 4 6 2 1
BITMAP
10
E0
E0
90
90
60
ENDCHAR
STARTCHAR 0432
ENCODING 1074
SWIDTH 1000 0
DWIDTH 8 0
BBX 5 4 1 0
BITMAP
F8
70
48
F0
ENDCHAR
STARTCHAR 0433
ENCODING 1075
SWIDTH 1000 0
DWIDTH 8 0
BBX 4 4 2 0
BITMAP
F0
40
40
40
ENDCHAR
STARTCHAR 0434
ENCODING 1076
SWIDTH 1000 0
DWIDTH 8 0
BBX 4 4 2 -1
BITMAP
F0
A0
A0
F0
ENDCHAR
STARTCHAR 0435
ENCODING 1077
SWIDTH 1000 0
DWIDTH 8 0
BBX 4 5 2 0
BITMAP
60
90
F0
80
60
ENDCHAR
STARTCHAR 0436
ENCODING 1078
SWIDTH 1000 0
DWIDTH 8 0
BBX 7 4 1 0
BITMAP
92
5C
74
10
ENDCHAR
STARTCHAR 0437
ENCODING 1079
SWIDTH 1000 0
DWIDTH 8 0
BBX 3 5 2 0
BITMAP
60
20
40
20
E0
ENDCHAR
STARTCHAR 0438
ENCODING 1080
SWIDTH 1000 0
DWIDTH 8 0
BBX 4 4 2 0
BITMAP
90
B0
D0
90
ENDCHAR
STARTCHAR 0439
ENCODING 1081
SWIDTH 1000 0
DWIDTH 8 0
BBX 4 5 2 0
BITMAP
60
90
B0
D0
90
ENDCHAR
STARTCHAR 043A
ENCODING 1082
SWIDTH 1000 0
DWIDTH 8 0
BBX 4 4 3 0
BITMAP
90
E0
A0
90
ENDCHAR
STARTCHAR 043B
ENCODING 1083
SWIDTH 1000 0
DWIDTH 8 0
BBX 6 4 0 0
BITMAP
3C
48
48
C8
ENDCHAR
STARTCHAR 043C
ENCODING 1084
SWIDTH 1000 0
DWIDTH 8 0
BBX 4 4 2 0
BITMAP
90
D0
F0
90
ENDCHAR
STARTCHAR 043D
ENCODING 1085
SWIDTH 1000 0
DWIDTH 8 0
BBX 4 4 2 0
BITMAP
90
F0
90
90
ENDCHAR
STARTCHAR 043E
ENCODING 1086
SWIDTH 1000 0
DWIDTH 8 0
BBX 4 4 2 0
BITMAP
60
90
90
60
ENDCHAR
STARTCHAR 043F
ENCODING 1087
SWIDTH 1000 0
DWIDTH 8 0
BBX 6 4 1 0
BITMAP
FC
48
48
48
ENDCHAR
STARTCHAR 0440
ENCODING 1088
SWIDTH 1000 0
DWIDTH 8 0
BBX 4 5 2 0
BITMAP
E0
90
90
E0
80
ENDCHAR
STARTCHAR 0441
ENCODING 1089
SWIDTH 1000 0
DWIDTH 8 0
BBX 4 4 2 0
BITMAP
70
80
80
60
ENDCHAR
STARTCHAR 0442
ENCODING 1090
SWIDTH 1000 0
DWIDTH 8 0
BBX 4 4 2 0
BITMAP
F0
20
20
20
ENDCHAR
STARTCHAR 0443
ENCODING 1091
SWIDTH 1000 0
DWIDTH 8 0
BBX 4 5 2 -1
BITMAP
90
60
20
40
C0
ENDCHAR
STARTCHAR 0444
ENCODING 1092
SWIDTH 1000 0
DWIDTH 8 0
BBX 5 7 2 -1
BITMAP
20
20
F8
A8
A8
F8
20
ENDCHAR
STARTCHAR 0445
ENCODING 1093
SWIDTH 1000 0
DWIDTH 8 0
BBX 4 4 2 0
BITMAP
80
60
60
90
ENDCHAR
STARTCHAR 0446
ENCODING 1094
SWIDTH 1000 0
DWIDTH 8 0
BBX 5 4 1 -1
BITMAP
50
50
50
F8
ENDCHAR
STARTCHAR 0447
ENCODING 1095
SWIDTH 1000 0
DWIDTH 8 0
BBX 3 4 2 0
BITMAP
A0
A0
E0
20
ENDCHAR
STARTCHAR 0448
ENCODING 1096
SWIDTH 1000 0
DWIDTH 8 0
BBX 6 4 1 0
BITMAP
58
58
58
FC
ENDCHAR
STARTCHAR 0449
ENCODING 1097
SWIDTH 1000 0
DWIDTH 8 0
BBX 6 4 1 -1
BITMAP
58
58
58
FC
ENDCHAR
STARTCHAR 044A
ENCODING 1098
SWIDTH 1000 0
DWIDTH 8 0
BBX 5 4 2 0
BITMAP
C0
78
48
F8
ENDCHAR
STARTCHAR 044B
ENCODING 1099
SWIDTH 1000 0
DWIDTH 8 0
BBX 6 4 1 0
BITMAP
48
78
58
FC
ENDCHAR
STARTCHAR 044C
ENCODING 1100
SWIDTH 1000 0
DWIDTH 8 0
BBX 5 4 2 0
BITMAP
40
78
48
F8
ENDCHAR
STARTCHAR 044D
ENCODING 1101
SWIDTH 1000 0
DWIDTH 8 0
BBX 4 4 2 0
BITMAP
E0
F0
10
E0
ENDCHAR
STARTCHAR 044E
ENCODING 1102
SWIDTH 1000 0
DWIDTH 8 0
BBX 6 4 2 0
BITMAP
B8
C4
C4
B8
ENDCHAR
STARTCHAR 044F
ENCODING 1103
SWIDTH 1000 0
DWIDTH 8 0
BBX 5 4 1 -1
BITMAP
F8
F0
50
90
ENDCHAR
STARTCHAR 0451
ENCODING 1105
SWIDTH 1000 0
DWIDTH 8 0
BBX 4 6 2 0
BITMAP
50
60
90
F0
80
60
ENDCHAR
STARTCHAR 0452
ENCODING 1106
SWIDTH 1000 0
DWIDTH 8 0
BBX 4 7 2 0
BITMAP
40
E0
70
50
50
50
30
ENDCHAR
STARTCHAR 0453
ENCODING 1107
SWIDTH 1000 0
DWIDTH 8 0
BBX 4 5 2 1
BITMAP
20
F0
40
40
40
ENDCHAR
STARTCHAR 0454
ENCODING 1108
SWIDTH 1000 0
DWIDTH 8 0
BBX 3 5 2 0
BITMAP
60
A0
C0
00
E0
ENDCHAR
STARTCHAR 0455
ENCODING 1109
SWIDTH 1000 0
DWIDTH 8 0
BBX 3 4 2 1
BITMAP
E0
40
20
E0
ENDCHAR
STARTCHAR 0456
ENCODING 1110
SWIDTH 1000 0
DWIDTH 8 0
BBX 1 6 4 0
BITMAP
80
00
80
80
80
80
ENDCHAR
STARTCHAR 0457
ENCODING 1111
SWIDTH 1000 0
DWIDTH 8 0
BBX 3 5 3 0
BITMAP
A0
40
40
40
40
ENDCHAR
STARTCHAR 0458
ENCODING 1112
SWIDTH 1000 0
DWIDTH 8 0
BBX 3 7 2 -1
BITMAP
20
00
20
20
20
20
E0
ENDCHAR
STARTCHAR 0459
ENCODING 1113
SWIDTH 1000 0
DWIDTH 8 0
BBX 8 4 0 0
BITMAP
3C
2F
A9
DF
ENDCHAR
STARTCHAR 045A
ENCODING 1114
SWIDTH 1000 0
DWIDTH 8 0
BBX 7 4 1 0
BITMAP
50
7E
52
DE
ENDCHAR
STARTCHAR 045B
ENCODING 1115
SWIDTH 1000 0
DWIDTH 8 0
BBX 4 6 2 1
BITMAP
40
E0
70
50
50
50
ENDCHAR
STARTCHAR 045C
ENCODING 1116
SWIDTH 1000 0
DWIDTH 8 0
BBX 4 4 3 2
BITMAP
90
E0
A0
90
ENDCHAR
STARTCHAR 045E
ENCODING 1118
SWIDTH 1000 0
DWIDTH 8 0
BBX 4 6 2 -1
BITMAP
60
90
60
20
40
C0
ENDCHAR
STARTCHAR 045F
ENCODING 1119
SWIDTH 1000 0
DWIDTH 8 0
BBX 6 4 1 -1
BITMAP
48
48
48
FC
ENDCHAR
STARTCHAR 1E3E
ENCODING 7742
SWIDTH 1000 0
DWIDTH 8 0
BBX 5 6 1 2
BITMAP
88
88
D8
E8
E8
A8
ENDCHAR
STARTCHAR 1E3F
ENCODING 7743
SWIDTH 875 0
DWIDTH 7 0
BBX 5 6 1 0
BITMAP
10
00
F8
A8
A8
A8
ENDCHAR
STARTCHAR 1F70
ENCODING 8048
SWIDTH 625 0
DWIDTH 5 0
BBX 5 6 0 1
BITMAP
40
00
70
90
90
78
ENDCHAR
STARTCHAR 1F71
ENCODING 8049
SWIDTH 625 0
DWIDTH 5 0
BBX 5 6 0 1
BITMAP
20
00
70
90
90
78
ENDCHAR
STARTCHAR 1F72
ENCODING 8050
SWIDTH 500 0
DWIDTH 4 0
BBX 3 6 1 1
BITMAP
80
00
C0
80
80
E0
ENDCHAR
STARTCHAR 1F73
ENCODING 8051
SWIDTH 500 0
DWIDTH 4 0
BBX 3 6 1 1
BITMAP
40
00
C0
80
80
E0
ENDCHAR
STARTCHAR 2002
ENCODING 8194
SWIDTH 500 0
DWIDTH 4 0
BBX 0 0 0 0
BITMAP
ENDCHAR
STARTCHAR 2003
ENCODING 8195
SWIDTH 1000 0
DWIDTH 8 0
BBX 0 0 0 0
BITMAP
ENDCHAR
STARTCHAR 2010
ENCODING 8208
SWIDTH 250 0
DWIDTH 2 0
BBX 2 1 0 2
BITMAP
C0
ENDCHAR
STARTCHAR 2011
ENCODING 8209
SWIDTH 250 0
DWIDTH 2 0
BBX 2 1 0 2
BITMAP
C0
ENDCHAR
STARTCHAR 2012
ENCODING 8210
SWIDTH 250 0
DWIDTH 2 0
BBX 2 1 0 2
BITMAP
C0
ENDCHAR
STARTCHAR 2013
ENCODING 8211
SWIDTH 500 0
DWIDTH 4 0
BBX 4 1 0 2
BITMAP
F0
ENDCHAR
STARTCHAR 2014
ENCODING 8212
SWIDTH 875 0
DWIDTH 7 0
BBX 7 1 0 2
BITMAP
FE
ENDCHAR
STARTCHAR 2015
ENCODING 8213
SWIDTH 1000 0
DWIDTH 8 0
BBX 8 1 0 2
BITMAP
FF
ENDCHAR
STARTCHAR 2016
ENCODING 8214
SWIDTH 1000 0
DWIDTH 8 0
BBX 2 8 3 -1
BITMAP
C0
C0
C0
C0
C0
C0
C0
C0
ENDCHAR
STARTCHAR 2018
ENCODING 8216
SWIDTH 1000 0
DWIDTH 8 0
BBX 1 1 6 6
BITMAP
80
ENDCHAR
STARTCHAR 2019
ENCODING 8217
SWIDTH 1000 0
DWIDTH 8 0
BBX 1 2 1 4
BITMAP
80
80
ENDCHAR
STARTCHAR 201C
ENCODING 8220
SWIDTH 1000 0
DWIDTH 8 0
BBX 2 2 5 5
BITMAP
80
C0
ENDCHAR
STARTCHAR 201D
ENCODING 8221
SWIDTH 1000 0
DWIDTH 8 0
BBX 2 2 1 4
BITMAP
C0
C0
ENDCHAR
STARTCHAR 2020
ENCODING 8224
SWIDTH 1000 0
DWIDTH 8 0
BBX 3 7 3 -1
BITMAP
40
E0
40
40
40
40
40
ENDCHAR
STARTCHAR 2021
ENCODING 8225
SWIDTH 1000 0
DWIDTH 8 0
BBX 4 6 2 0
BITMAP
F0
40
40
40
40
F0
ENDCHAR
STARTCHAR 2022
ENCODING 8226
SWIDTH 375 0
DWIDTH 3 0
BBX 1 1 1 2
BITMAP
80
ENDCHAR
STARTCHAR 2025
ENCODING 8229
SWIDTH 1000 0
DWIDTH 8 0
BBX 5 1 1 3
BITMAP
88
ENDCHAR
STARTCHAR 2026
ENCODING 8230
SWIDTH 1000 0
DWIDTH 8 0
BBX 6 1 1 3
BITMAP
94
ENDCHAR
STARTCHAR 2030
ENCODING 8240
SWIDTH 1000 0
DWIDTH 8 0
BBX 8 8 0 -1
BITMAP
E0
B0
B0
E0
3F
5D
5D
1F
ENDCHAR
STARTCHAR 2032
ENCODING 8242
SWIDTH 250 0
DWIDTH 2 0
BBX 1 1 0 5
BITMAP
80
ENDCHAR
STARTCHAR 2033
ENCODING 8243
SWIDTH 375 0
DWIDTH 3 0
BBX 3 2 0 4
BITMAP
20
C0
ENDCHAR
STARTCHAR 203B
ENCODING 8251
SWIDTH 1000 0
DWIDTH 8 0
BBX 6 6 1 0
BITMAP
A4
48
30
B4
48
A4
ENDCHAR
STARTCHAR 203C
ENCODING 8252
SWIDTH 500 0
DWIDTH 4 0
BBX 2 6 1 0
BITMAP
40
40
40
40
00
C0
ENDCHAR
STARTCHAR 203E
ENCODING 8254
SWIDTH 500 0
DWIDTH 4 0
BBX 2 1 1 4
BITMAP
C0
ENDCHAR
STARTCHAR 203F
ENCODING 8255
SWIDTH 500 0
DWIDTH 4 0
BBX 3 1 0 -1
BITMAP
E0
ENDCHAR
STARTCHAR 2042
ENCODING 8258
SWIDTH 1000 0
DWIDTH 8 0
BBX 4 5 2 1
BITMAP
60
00
90
90
90
ENDCHAR
STARTCHAR 2047
ENCODING 8263
SWIDTH 1000 0
DWIDTH 8 0
BBX 7 6 0 0
BITMAP
FE
9A
24
04
00
44
ENDCHAR
STARTCHAR 2048
ENCODING 8264
SWIDTH 750 0
DWIDTH 6 0
BBX 5 6 0 0
BITMAP
F8
98
28
08
00
48
ENDCHAR
STARTCHAR 2049
ENCODING 8265
SWIDTH 750 0
DWIDTH 6 0
BBX 4 6 1 0
BITMAP
70
50
10
20
00
A0
ENDCHAR
STARTCHAR 2051
ENCODING 8273
SWIDTH 1000 0
DWIDTH 8 0
BBX 2 6 3 0
BITMAP
C0
C0
00
00
C0
C0
ENDCHAR
STARTCHAR 205A
ENCODING 8282
SWIDTH 1000 0
DWIDTH 8 0
BBX 1 5 3 1
BITMAP
80
00
00
00
80
ENDCHAR
STARTCHAR 205D
ENCODING 8285
SWIDTH 1000 0
DWIDTH 8 0
BBX 1 6 4 0
BITMAP
80
00
80
00
00
80
ENDCHAR
STARTCHAR 20AC
ENCODING 8364
SWIDTH 625 0
DWIDTH 5 0
BBX 4 6 0 0
BITMAP
70
80
E0
E0
80
70
ENDCHAR
STARTCHAR 2103
ENCODING 8451
SWIDTH 1000 0
DWIDTH 8 0
BBX 6 7 1 0
BITMAP
80
BC
60
40
40
64
38
ENDCHAR
STARTCHAR 210F
ENCODING 8463
SWIDTH 500 0
DWIDTH 4 0
BBX 4 6 0 0
BITMAP
40
40
70
50
90
90
ENDCHAR
STARTCHAR 2113
ENCODING 8467
SWIDTH 1000 0
DWIDTH 8 0
BBX 4 6 2 0
BITMAP
30
50
50
A0
40
60
ENDCHAR
STARTCHAR 2116
ENCODING 8470
SWIDTH 1000 0
DWIDTH 8 0
BBX 7 6 1 -1
BITMAP
A0
A0
EC
AC
AC
AE
ENDCHAR
STARTCHAR 2121
ENCODING 8481
SWIDTH 1000 0
DWIDTH 8 0
BBX 7 6 1 0
BITMAP
C0
78
68
78
68
7E
ENDCHAR
STARTCHAR 2122
ENCODING 8482
SWIDTH 875 0
DWIDTH 7 0
BBX 6 3 0 3
BITMAP
F4
54
5C
ENDCHAR
STARTCHAR 2127
ENCODING 8487
SWIDTH 875 0
DWIDTH 7 0
BBX 5 6 1 0
BITMAP
D8
90
88
88
88
70
ENDCHAR
STARTCHAR 212B
ENCODING 8491
SWIDTH 1000 0
DWIDTH 8 0
BBX 4 6 2 0
BITMAP
60
40
A0
A0
F0
10
ENDCHAR
STARTCHAR 2135
ENCODING 8501
SWIDTH 750 0
DWIDTH 6 0
BBX 4 6 1 0
BITMAP
90
90
E0
A0
90
90
ENDCHAR
STARTCHAR 2153
ENCODING 8531
SWIDTH 750 0
DWIDTH 6 0
BBX 4 6 1 0
BITMAP
90
A0
C0
70
90
30
ENDCHAR
STARTCHAR 2154
ENCODING 8532
SWIDTH 750 0
DWIDTH 6 0
BBX 5 6 0 0
BITMAP
C8
50
A0
E8
48
18
ENDCHAR
STARTCHAR 2155
ENCODING 8533
SWIDTH 750 0
DWIDTH 6 0
BBX 4 5 1 0
BITMAP
A0
A0
50
90
30
ENDCHAR
STARTCHAR 2160
ENCODING 8544
SWIDTH 1000 0
DWIDTH 8 0
BBX 1 6 4 0
BITMAP
80
80
80
80
80
80
ENDCHAR
STARTCHAR 2161
ENCODING 8545
SWIDTH 1000 0
DWIDTH 8 0
BBX 6 6 1 0
BITMAP
FC
48
48
48
48
FC
ENDCHAR
STARTCHAR 2162
ENCODING 8546
SWIDTH 1000 0
DWIDTH 8 0
BBX 6 6 1 0
BITMAP
FC
58
58
58
58
FC
ENDCHAR
STARTCHAR 2163
ENCODING 8547
SWIDTH 1000 0
DWIDTH 8 0
BBX 6 6 2 -1
BITMAP
E0
A4
A8
98
98
90
ENDCHAR
STARTCHAR 2164
ENCODING 8548
SWIDTH 1000 0
DWIDTH 8 0
BBX 5 4 1 1
BITMAP
88
50
30
30
ENDCHAR
STARTCHAR 2165
ENCODING 8549
SWIDTH 1000 0
DWIDTH 8 0
BBX 6 6 0 -1
BITMAP
9C
94
A4
64
64
44
ENDCHAR
STARTCHAR 2166
ENCODING 8550
SWIDTH 1000 0
DWIDTH 8 0
BBX 7 6 0 -1
BITMAP
1E
96
56
66
66
26
ENDCHAR
STARTCHAR 2167
ENCODING 8551
SWIDTH 1000 0
DWIDTH 8 0
BBX 7 6 0 -1
BITMAP
BE
AE
AE
6E
4E
4E
ENDCHAR
STARTCHAR 2168
ENCODING 8552
SWIDTH 1000 0
DWIDTH 8 0
BBX 8 6 0 0
BITMAP
FE
54
4C
4C
54
FB
ENDCHAR
STARTCHAR 2169
ENCODING 8553
SWIDTH 1000 0
DWIDTH 8 0
BBX 4 6 2 0
BITMAP
90
60
40
60
90
10
ENDCHAR
STARTCHAR 216A
ENCODING 8554
SWIDTH 1000 0
DWIDTH 8 0
BBX 7 6 1 0
BITMAP
FE
A4
64
44
A4
94
ENDCHAR
STARTCHAR 216B
ENCODING 8555
SWIDTH 1000 0
DWIDTH 8 0
BBX 6 6 1 0
BITMAP
9C
EC
4C
CC
AC
1C
ENDCHAR
STARTCHAR 2170
ENCODING 8560
SWIDTH 1000 0
DWIDTH 8 0
BBX 1 6 4 0
BITMAP
80
00
80
80
80
80
ENDCHAR
STARTCHAR 2171
ENCODING 8561
SWIDTH 1000 0
DWIDTH 8 0
BBX 3 6 3 0
BITMAP
A0
00
A0
A0
A0
A0
ENDCHAR
STARTCHAR 2172
ENCODING 8562
SWIDTH 1000 0
DWIDTH 8 0
BBX 6 7 1 0
BITMAP
58
00
58
58
58
58
FC
ENDCHAR
STARTCHAR 2173
ENCODING 8563
SWIDTH 1000 0
DWIDTH 8 0
BBX 5 6 2 -1
BITMAP
80
00
A0
A8
90
90
ENDCHAR
STARTCHAR 2174
ENCODING 8564
SWIDTH 1000 0
DWIDTH 8 0
BBX 4 3 2 0
BITMAP
90
A0
60
ENDCHAR
STARTCHAR 2175
ENCODING 8565
SWIDTH 1000 0
DWIDTH 8 0
BBX 6 6 0 -1
BITMAP
04
00
1C
A4
64
44
ENDCHAR
STARTCHAR 2176
ENCODING 8566
SWIDTH 1000 0
DWIDTH 8 0
BBX 7 7 0 -1
BITMAP
0A
00
BA
AA
4A
4A
04
ENDCHAR
STARTCHAR 2177
ENCODING 8567
SWIDTH 1000 0
DWIDTH 8 0
BBX 7 6 0 -1
BITMAP
0E
00
3E
AE
6E
4E
ENDCHAR
STARTCHAR 2178
ENCODING 8568
SWIDTH 1000 0
DWIDTH 8 0
BBX 5 6 2 0
BITMAP
80
00
80
98
90
A8
ENDCHAR
STARTCHAR 2179
ENCODING 8569
SWIDTH 1000 0
DWIDTH 8 0
BBX 4 4 2 0
BITMAP
80
60
60
90
ENDCHAR
STARTCHAR 217A
ENCODING 8570
SWIDTH 1000 0
DWIDTH 8 0
BBX 5 6 1 0
BITMAP
08
00
88
48
C8
28
ENDCHAR
STARTCHAR 217B
ENCODING 8571
SWIDTH 1000 0
DWIDTH 8 0
BBX 7 6 0 0
BITMAP
0A
00
BA
4A
CA
AE
ENDCHAR
STARTCHAR 2190
ENCODING 8592
SWIDTH 1000 0
DWIDTH 8 0
BBX 7 2 0 2
BITMAP
40
FE
ENDCHAR
STARTCHAR 2191
ENCODING 8593
SWIDTH 1000 0
DWIDTH 8 0
BBX 2 7 3 1
BITMAP
40
C0
40
40
40
40
40
ENDCHAR
STARTCHAR 2192
ENCODING 8594
SWIDTH 1000 0
DWIDTH 8 0
BBX 7 2 1 2
BITMAP
04
FE
ENDCHAR
STARTCHAR 2193
ENCODING 8595
SWIDTH 1000 0
DWIDTH 8 0
BBX 2 7 3 -1
BITMAP
40
40
40
40
40
C0
40
ENDCHAR
STARTCHAR 2194
ENCODING 8596
SWIDTH 750 0
DWIDTH 6 0
BBX 5 3 0 1
BITMAP
48
F8
48
ENDCHAR
STARTCHAR 2196
ENCODING 8598
SWIDTH 1000 0
DWIDTH 8 0
BBX 6 6 1 0
BITMAP
E0
C0
20
10
08
04
ENDCHAR
STARTCHAR 2197
ENCODING 8599
SWIDTH 1000 0
DWIDTH 8 0
BBX 6 6 1 0
BITMAP
1C
0C
10
20
40
80
ENDCHAR
STARTCHAR 2198
ENCODING 8600
SWIDTH 1000 0
DWIDTH 8 0
BBX 6 6 1 0
BITMAP
80
40
20
10
0C
0C
ENDCHAR
STARTCHAR 2199
ENCODING 8601
SWIDTH 1000 0
DWIDTH 8 0
BBX 6 6 1 0
BITMAP
04
08
10
20
C0
C0
ENDCHAR
STARTCHAR 21C4
ENCODING 8644
SWIDTH 1000 0
DWIDTH 8 0
BBX 6 4 1 1
BITMAP
FC
00
00
FC
ENDCHAR
STARTCHAR 21D2
ENCODING 8658
SWIDTH 750 0
DWIDTH 6 0
BBX 5 3 1 1
BITMAP
10
F8
10
ENDCHAR
STARTCHAR 21D4
ENCODING 8660
SWIDTH 750 0
DWIDTH 6 0
BBX 5 3 0 1
BITMAP
50
F8
50
ENDCHAR
STARTCHAR 21E6
ENCODING 8678
SWIDTH 1000 0
DWIDTH 8 0
BBX 7 3 0 1
BITMAP
10
FE
70
ENDCHAR
STARTCHAR 21E7
ENCODING 8679
SWIDTH 1000 0
DWIDTH 8 0
BBX 2 5 3 1
BITMAP
80
80
C0
C0
C0
ENDCHAR
STARTCHAR 21E8
ENCODING 8680
SWIDTH 1000 0
DWIDTH 8 0
BBX 6 3 1 1
BITMAP
10
FC
18
ENDCHAR
STARTCHAR 21E9
ENCODING 8681
SWIDTH 1000 0
DWIDTH 8 0
BBX 2 5 3 0
BITMAP
C0
C0
C0
C0
80
ENDCHAR
STARTCHAR 2200
ENCODING 8704
SWIDTH 750 0
DWIDTH 6 0
BBX 6 6 0 0
BITMAP
84
88
78
50
30
20
ENDCHAR
STARTCHAR 2202
ENCODING 8706
SWIDTH 625 0
DWIDTH 5 0
BBX 4 6 0 0
BITMAP
30
10
70
90
90
E0
ENDCHAR
STARTCHAR 2203
ENCODING 8707
SWIDTH 750 0
DWIDTH 6 0
BBX 4 6 1 0
BITMAP
F0
10
10
F0
10
F0
ENDCHAR
STARTCHAR 2205
ENCODING 8709
SWIDTH 750 0
DWIDTH 6 0
BBX 5 5 1 1
BITMAP
70
A8
C8
98
70
ENDCHAR
STARTCHAR 2207
ENCODING 8711
SWIDTH 750 0
DWIDTH 6 0
BBX 5 6 0 -1
BITMAP
78
88
48
50
30
20
ENDCHAR
STARTCHAR 2208
ENCODING 8712
SWIDTH 625 0
DWIDTH 5 0
BBX 5 4 0 1
BITMAP
38
C0
78
78
ENDCHAR
STARTCHAR 2209
ENCODING 8713
SWIDTH 625 0
DWIDTH 5 0
BBX 5 4 0 0
BITMAP
38
D0
78
38
ENDCHAR
STARTCHAR 220B
ENCODING 8715
SWIDTH 625 0
DWIDTH 5 0
BBX 4 4 1 1
BITMAP
E0
10
F0
F0
ENDCHAR
STARTCHAR 2212
ENCODING 8722
SWIDTH 625 0
DWIDTH 5 0
BBX 4 1 1 2
BITMAP
F0
ENDCHAR
STARTCHAR 2213
ENCODING 8723
SWIDTH 625 0
DWIDTH 5 0
BBX 4 5 1 0
BITMAP
F0
20
20
F0
20
ENDCHAR
STARTCHAR 2219
ENCODING 8729
SWIDTH 250 0
DWIDTH 2 0
BBX 1 1 1 2
BITMAP
80
ENDCHAR
STARTCHAR 221A
ENCODING 8730
SWIDTH 500 0
DWIDTH 4 0
BBX 4 6 0 0
BITMAP
10
20
20
20
C0
40
ENDCHAR
STARTCHAR 221D
ENCODING 8733
SWIDTH 625 0
DWIDTH 5 0
BBX 4 3 1 1
BITMAP
D0
A0
D0
ENDCHAR
STARTCHAR 221E
ENCODING 8734
SWIDTH 625 0
DWIDTH 5 0
BBX 5 3 0 1
BITMAP
D8
A8
D8
ENDCHAR
STARTCHAR 221F
ENCODING 8735
SWIDTH 625 0
DWIDTH 5 0
BBX 4 5 1 0
BITMAP
80
80
80
80
F0
ENDCHAR
STARTCHAR 2220
ENCODING 8736
SWIDTH 625 0
DWIDTH 5 0
BBX 5 5 0 1
BITMAP
20
40
40
80
F8
ENDCHAR
STARTCHAR 2225
ENCODING 8741
SWIDTH 625 0
DWIDTH 5 0
BBX 5 7 0 -1
BITMAP
18
30
30
50
60
60
A0
ENDCHAR
STARTCHAR 2226
ENCODING 8742
SWIDTH 625 0
DWIDTH 5 0
BBX 5 7 0 -1
BITMAP
18
30
70
50
60
70
A0
ENDCHAR
STARTCHAR 2227
ENCODING 8743
SWIDTH 625 0
DWIDTH 5 0
BBX 4 4 1 0
BITMAP
40
A0
A0
10
ENDCHAR
STARTCHAR 2228
ENCODING 8744
SWIDTH 625 0
DWIDTH 5 0
BBX 4 4 1 1
BITMAP
10
A0
A0
40
ENDCHAR
STARTCHAR 2229
ENCODING 8745
SWIDTH 625 0
DWIDTH 5 0
BBX 4 5 1 0
BITMAP
60
90
90
90
90
ENDCHAR
STARTCHAR 222A
ENCODING 8746
SWIDTH 625 0
DWIDTH 5 0
BBX 4 5 1 0
BITMAP
90
90
90
90
60
ENDCHAR
STARTCHAR 222B
ENCODING 8747
SWIDTH 625 0
DWIDTH 5 0
BBX 4 7 0 -1
BITMAP
30
20
20
40
40
40
C0
ENDCHAR
STARTCHAR 222C
ENCODING 8748
SWIDTH 875 0
DWIDTH 7 0
BBX 7 7 0 -1
BITMAP
36
28
28
48
48
48
D8
ENDCHAR
STARTCHAR 222E
ENCODING 8750
SWIDTH 625 0
DWIDTH 5 0
BBX 4 7 0 -1
BITMAP
10
20
20
60
60
40
C0
ENDCHAR
STARTCHAR 2234
ENCODING 8756
SWIDTH 625 0
DWIDTH 5 0
BBX 4 3 1 1
BITMAP
40
00
90
ENDCHAR
STARTCHAR 2235
ENCODING 8757
SWIDTH 625 0
DWIDTH 5 0
BBX 4 3 1 1
BITMAP
90
00
40
ENDCHAR
STARTCHAR 223C
ENCODING 8764
SWIDTH 500 0
DWIDTH 4 0
BBX 2 1 1 5
BITMAP
C0
ENDCHAR
STARTCHAR 223D
ENCODING 8765
SWIDTH 625 0
DWIDTH 5 0
BBX 4 3 1 1
BITMAP
90
F0
90
ENDCHAR
STARTCHAR 2243
ENCODING 8771
SWIDTH 625 0
DWIDTH 5 0
BBX 4 3 1 1
BITMAP
F0
00
F0
ENDCHAR
STARTCHAR 2245
ENCODING 8773
SWIDTH 625 0
DWIDTH 5 0
BBX 4 3 1 1
BITMAP
F0
00
F0
ENDCHAR
STARTCHAR 2248
ENCODING 8776
SWIDTH 625 0
DWIDTH 5 0
BBX 4 3 1 1
BITMAP
F0
00
F0
ENDCHAR
STARTCHAR 2252
ENCODING 8786
SWIDTH 625 0
DWIDTH 5 0
BBX 4 5 1 0
BITMAP
80
00
F0
00
10
ENDCHAR
STARTCHAR 2260
ENCODING 8800
SWIDTH 625 0
DWIDTH 5 0
BBX 4 3 1 1
BITMAP
20
F0
40
ENDCHAR
STARTCHAR 2261
ENCODING 8801
SWIDTH 625 0
DWIDTH 5 0
BBX 4 3 1 1
BITMAP
F0
F0
F0
ENDCHAR
STARTCHAR 2262
ENCODING 8802
SWIDTH 625 0
DWIDTH 5 0
BBX 4 5 1 0
BITMAP
20
F0
F0
F0
40
ENDCHAR
STARTCHAR 2266
ENCODING 8806
SWIDTH 625 0
DWIDTH 5 0
BBX 4 5 1 1
BITMAP
60
C0
30
F0
F0
ENDCHAR
STARTCHAR 2267
ENCODING 8807
SWIDTH 625 0
DWIDTH 5 0
BBX 4 5 1 1
BITMAP
60
30
40
F0
F0
ENDCHAR
STARTCHAR 226A
ENCODING 8810
SWIDTH 625 0
DWIDTH 5 0
BBX 5 4 0 0
BITMAP
08
50
E0
70
ENDCHAR
STARTCHAR 226B
ENCODING 8811
SWIDTH 625 0
DWIDTH 5 0
BBX 5 4 0 0
BITMAP
80
50
28
50
ENDCHAR
STARTCHAR 2276
ENCODING 8822
SWIDTH 625 0
DWIDTH 5 0
BBX 4 5 1 1
BITMAP
60
C0
70
30
E0
ENDCHAR
STARTCHAR 2277
ENCODING 8823
SWIDTH 625 0
DWIDTH 5 0
BBX 4 5 1 1
BITMAP
60
30
60
C0
70
ENDCHAR
STARTCHAR 2282
ENCODING 8834
SWIDTH 625 0
DWIDTH 5 0
BBX 4 4 1 1
BITMAP
70
80
80
F0
ENDCHAR
STARTCHAR 2283
ENCODING 8835
SWIDTH 625 0
DWIDTH 5 0
BBX 4 4 1 1
BITMAP
E0
10
10
F0
ENDCHAR
STARTCHAR 2284
ENCODING 8836
SWIDTH 625 0
DWIDTH 5 0
BBX 4 5 1 0
BITMAP
70
A0
C0
70
40
ENDCHAR
STARTCHAR 2285
ENCODING 8837
SWIDTH 625 0
DWIDTH 5 0
BBX 4 4 1 0
BITMAP
E0
50
50
E0
ENDCHAR
STARTCHAR 2286
ENCODING 8838
SWIDTH 625 0
DWIDTH 5 0
BBX 4 4 1 1
BITMAP
70
80
F0
F0
ENDCHAR
STARTCHAR 2287
ENCODING 8839
SWIDTH 625 0
DWIDTH 5 0
BBX 4 4 1 1
BITMAP
E0
10
F0
F0
ENDCHAR
STARTCHAR 228A
ENCODING 8842
SWIDTH 625 0
DWIDTH 5 0
BBX 4 4 1 -1
BITMAP
70
80
80
F0
ENDCHAR
STARTCHAR 228B
ENCODING 8843
SWIDTH 625 0
DWIDTH 5 0
BBX 4 4 1 -1
BITMAP
E0
10
10
F0
ENDCHAR
STARTCHAR 2295
ENCODING 8853
SWIDTH 875 0
DWIDTH 7 0
BBX 6 6 0 0
BITMAP
78
D4
94
FC
D4
78
ENDCHAR
STARTCHAR 2296
ENCODING 8854
SWIDTH 875 0
DWIDTH 7 0
BBX 6 6 0 0
BITMAP
78
C4
84
FC
C4
78
ENDCHAR
STARTCHAR 2297
ENCODING 8855
SWIDTH 875 0
DWIDTH 7 0
BBX 6 6 0 0
BITMAP
78
C4
BC
B4
CC
38
ENDCHAR
STARTCHAR 22A5
ENCODING 8869
SWIDTH 625 0
DWIDTH 5 0
BBX 5 5 0 0
BITMAP
10
10
10
10
F8
ENDCHAR
STARTCHAR 22BF
ENCODING 8895
SWIDTH 625 0
DWIDTH 5 0
BBX 5 5 0 1
BITMAP
08
38
48
88
F8
ENDCHAR
STARTCHAR 22DA
ENCODING 8922
SWIDTH 625 0
DWIDTH 5 0
BBX 4 5 1 1
BITMAP
E0
70
F0
80
70
ENDCHAR
STARTCHAR 22DB
ENCODING 8923
SWIDTH 625 0
DWIDTH 5 0
BBX 4 5 1 1
BITMAP
70
E0
F0
10
E0
ENDCHAR
STARTCHAR 2305
ENCODING 8965
SWIDTH 625 0
DWIDTH 5 0
BBX 4 3 1 -1
BITMAP
F0
40
60
ENDCHAR
STARTCHAR 2306
ENCODING 8966
SWIDTH 625 0
DWIDTH 5 0
BBX 4 4 1 -1
BITMAP
F0
F0
40
60
ENDCHAR
STARTCHAR 2312
ENCODING 8978
SWIDTH 1000 0
DWIDTH 8 0
BBX 8 2 0 4
BITMAP
7E
81
ENDCHAR
STARTCHAR 2318
ENCODING 8984
SWIDTH 1000 0
DWIDTH 8 0
BBX 8 8 0 -1
BITMAP
E7
A5
FF
24
24
FE
A5
E7
ENDCHAR
STARTCHAR 23BE
ENCODING 9150
SWIDTH 1000 0
DWIDTH 8 0
BBX 4 8 4 -1
BITMAP
F0
80
80
80
80
80
80
80
ENDCHAR
STARTCHAR 23BF
ENCODING 9151
SWIDTH 1000 0
DWIDTH 8 0
BBX 4 8 4 -1
BITMAP
80
80
80
80
80
80
80
F0
ENDCHAR
STARTCHAR 23C0
ENCODING 9152
SWIDTH 1000 0
DWIDTH 8 0
BBX 7 8 1 -1
BITMAP
10
7C
92
92
92
92
54
38
ENDCHAR
STARTCHAR 23C1
ENCODING 9153
SWIDTH 1000 0
DWIDTH 8 0
BBX 8 8 0 -1
BITMAP
FF
08
3C
4A
4A
4A
2C
18
ENDCHAR
STARTCHAR 23C2
ENCODING 9154
SWIDTH 1000 0
DWIDTH 8 0
BBX 8 8 0 -1
BITMAP
08
3C
4A
4A
4A
2C
18
FF
ENDCHAR
STARTCHAR 23C3
ENCODING 9155
SWIDTH 1000 0
DWIDTH 8 0
BBX 7 8 1 -1
BITMAP
10
10
78
58
94
94
FE
10
ENDCHAR
STARTCHAR 23C4
ENCODING 9156
SWIDTH 1000 0
DWIDTH 8 0
BBX 8 8 0 -1
BITMAP
FF
08
18
2C
4C
4A
7E
08
ENDCHAR
STARTCHAR 23C5
ENCODING 9157
SWIDTH 1000 0
DWIDTH 8 0
BBX 8 8 0 -1
BITMAP
08
08
3C
2C
4C
4A
7E
FF
ENDCHAR
STARTCHAR 23C6
ENCODING 9158
SWIDTH 1000 0
DWIDTH 8 0
BBX 7 8 1 -1
BITMAP
10
10
10
F0
1E
10
10
10
ENDCHAR
STARTCHAR 23C7
ENCODING 9159
SWIDTH 1000 0
DWIDTH 8 0
BBX 8 8 0 -1
BITMAP
FF
08
08
68
1F
08
08
08
ENDCHAR
STARTCHAR 23C8
ENCODING 9160
SWIDTH 1000 0
DWIDTH 8 0
BBX 8 8 0 -1
BITMAP
08
08
08
78
0E
08
08
FF
ENDCHAR
STARTCHAR 23C9
ENCODING 9161
SWIDTH 1000 0
DWIDTH 8 0
BBX 8 8 0 -1
BITMAP
FF
08
08
08
08
08
08
08
ENDCHAR
STARTCHAR 23CA
ENCODING 9162
SWIDTH 1000 0
DWIDTH 8 0
BBX 8 8 0 -1
BITMAP
08
08
08
08
08
08
08
FF
ENDCHAR
STARTCHAR 23CB
ENCODING 9163
SWIDTH 1000 0
DWIDTH 8 0
BBX 4 8 0 -1
BITMAP
F0
10
10
10
10
10
10
10
ENDCHAR
STARTCHAR 23CC
ENCODING 9164
SWIDTH 1000 0
DWIDTH 8 0
BBX 4 8 0 -1
BITMAP
10
10
10
10
10
10
10
F0
ENDCHAR
STARTCHAR 23CE
ENCODING 9166
SWIDTH 1000 0
DWIDTH 8 0
BBX 6 6 1 -1
BITMAP
1C
14
34
F4
BC
60
ENDCHAR
STARTCHAR 2423
ENCODING 9251
SWIDTH 1000 0
DWIDTH 8 0
BBX 6 2 1 0
BITMAP
84
FC
ENDCHAR
STARTCHAR 2460
ENCODING 9312
SWIDTH 1000 0
DWIDTH 8 0
BBX 7 7 1 0
BITMAP
78
B4
92
92
92
94
78
ENDCHAR
STARTCHAR 2461
ENCODING 9313
SWIDTH 1000 0
DWIDTH 8 0
BBX 8 8 0 0
BITMAP
3C
46
BF
85
89
B1
7E
3C
ENDCHAR
STARTCHAR 2462
ENCODING 9314
SWIDTH 1000 0
DWIDTH 8 0
BBX 7 8 0 -2
BITMAP
7C
BC
8A
92
8A
BA
44
38
ENDCHAR
STARTCHAR 2463
ENCODING 9315
SWIDTH 1000 0
DWIDTH 8 0
BBX 8 7 0 0
BITMAP
3C
4A
99
A9
A9
BE
7C
ENDCHAR
STARTCHAR 2464
ENCODING 9316
SWIDTH 1000 0
DWIDTH 8 0
BBX 8 8 0 -2
BITMAP
3C
5A
A1
9D
85
B9
42
3C
ENDCHAR
STARTCHAR 2465
ENCODING 9317
SWIDTH 1000 0
DWIDTH 8 0
BBX 8 8 0 -1
BITMAP
38
5E
A1
BD
A5
9D
42
3C
ENDCHAR
STARTCHAR 2466
ENCODING 9318
SWIDTH 1000 0
DWIDTH 8 0
BBX 7 8 1 -2
BITMAP
7C
BC
92
92
92
92
84
78
ENDCHAR
STARTCHAR 2467
ENCODING 9319
SWIDTH 1000 0
DWIDTH 8 0
BBX 8 8 0 -1
BITMAP
38
5E
99
99
A5
BD
42
3C
ENDCHAR
STARTCHAR 2468
ENCODING 9320
SWIDTH 1000 0
DWIDTH 8 0
BBX 8 8 0 -1
BITMAP
38
5E
A5
A5
BD
99
42
3C
ENDCHAR
STARTCHAR 2469
ENCODING 9321
SWIDTH 1000 0
DWIDTH 8 0
BBX 8 7 0 0
BITMAP
3C
EE
AD
AD
AD
AE
7C
ENDCHAR
STARTCHAR 246A
ENCODING 9322
SWIDTH 1000 0
DWIDTH 8 0
BBX 8 7 0 0
BITMAP
3C
E6
A5
A5
A5
A6
7C
ENDCHAR
STARTCHAR 246B
ENCODING 9323
SWIDTH 1000 0
DWIDTH 8 0
BBX 7 8 0 0
BITMAP
38
44
AE
A6
AA
AA
6C
38
ENDCHAR
STARTCHAR 246C
ENCODING 9324
SWIDTH 1000 0
DWIDTH 8 0
BBX 7 6 0 0
BITMAP
7C
AE
A6
AA
AC
78
ENDCHAR
STARTCHAR 246D
ENCODING 9325
SWIDTH 1000 0
DWIDTH 8 0
BBX 7 6 0 0
BITMAP
7C
A6
BE
B6
BC
78
ENDCHAR
STARTCHAR 246E
ENCODING 9326
SWIDTH 1000 0
DWIDTH 8 0
BBX 8 6 0 0
BITMAP
7E
AF
B1
AD
AE
7C
ENDCHAR
STARTCHAR 246F
ENCODING 9327
SWIDTH 1000 0
DWIDTH 8 0
BBX 8 7 0 0
BITMAP
3C
EE
A9
B5
AD
AE
7C
ENDCHAR
STARTCHAR 2470
ENCODING 9328
SWIDTH 1000 0
DWIDTH 8 0
BBX 7 6 0 0
BITMAP
7C
AE
A2
AE
A4
7C
ENDCHAR
STARTCHAR 2471
ENCODING 9329
SWIDTH 1000 0
DWIDTH 8 0
BBX 8 7 0 0
BITMAP
3C
EE
AD
A9
AD
AE
7C
ENDCHAR
STARTCHAR 2472
ENCODING 9330
SWIDTH 1000 0
DWIDTH 8 0
BBX 8 7 0 0
BITMAP
3C
EE
AD
AD
A5
AE
7C
ENDCHAR
STARTCHAR 2473
ENCODING 9331
SWIDTH 1000 0
DWIDTH 8 0
BBX 7 8 1 0
BITMAP
38
C4
FE
B6
D6
D6
7C
38
ENDCHAR
STARTCHAR 24D0
ENCODING 9424
SWIDTH 1000 0
DWIDTH 8 0
BBX 8 8 0 -1
BITMAP
38
C6
BB
89
B9
BD
42
3C
ENDCHAR
STARTCHAR 24D1
ENCODING 9425
SWIDTH 1000 0
DWIDTH 8 0
BBX 8 8 0 -1
BITMAP
1C
62
91
9D
95
9D
42
3C
ENDCHAR
STARTCHAR 24D2
ENCODING 9426
SWIDTH 1000 0
DWIDTH 8 0
BBX 8 8 0 -1
BITMAP
38
46
99
91
91
99
42
3C
ENDCHAR
STARTCHAR 24D3
ENCODING 9427
SWIDTH 1000 0
DWIDTH 8 0
BBX 8 8 0 -1
BITMAP
38
C6
8B
B9
A9
B9
42
3C
ENDCHAR
STARTCHAR 24D4
ENCODING 9428
SWIDTH 1000 0
DWIDTH 8 0
BBX 8 8 0 -2
BITMAP
3C
42
99
B9
A1
99
42
3C
ENDCHAR
STARTCHAR 24D5
ENCODING 9429
SWIDTH 1000 0
DWIDTH 8 0
BBX 8 7 1 0
BITMAP
38
DE
91
B9
91
92
7C
ENDCHAR
STARTCHAR 24D6
ENCODING 9430
SWIDTH 1000 0
DWIDTH 8 0
BBX 8 8 0 -1
BITMAP
38
46
9D
99
9D
BD
42
3C
ENDCHAR
STARTCHAR 24D7
ENCODING 9431
SWIDTH 1000 0
DWIDTH 8 0
BBX 6 7 1 0
BITMAP
70
A8
A4
B4
B4
B8
78
ENDCHAR
STARTCHAR 24D8
ENCODING 9432
SWIDTH 1000 0
DWIDTH 8 0
BBX 7 7 1 0
BITMAP
38
D4
82
92
92
94
7C
ENDCHAR
STARTCHAR 24D9
ENCODING 9433
SWIDTH 1000 0
DWIDTH 8 0
BBX 8 8 0 -1
BITMAP
1C
6E
81
89
89
89
5A
3C
ENDCHAR
STARTCHAR 24DA
ENCODING 9434
SWIDTH 1000 0
DWIDTH 8 0
BBX 8 8 0 -1
BITMAP
1C
62
91
95
99
95
42
3C
ENDCHAR
STARTCHAR 24DB
ENCODING 9435
SWIDTH 1000 0
DWIDTH 8 0
BBX 7 7 1 0
BITMAP
38
D4
92
92
92
94
7C
ENDCHAR
STARTCHAR 24DC
ENCODING 9436
SWIDTH 1000 0
DWIDTH 8 0
BBX 7 7 0 0
BITMAP
3C
44
BE
AE
AE
84
78
ENDCHAR
STARTCHAR 24DD
ENCODING 9437
SWIDTH 1000 0
DWIDTH 8 0
BBX 6 7 1 0
BITMAP
78
88
B4
B4
B4
88
78
ENDCHAR
STARTCHAR 24DE
ENCODING 9438
SWIDTH 1000 0
DWIDTH 8 0
BBX 8 8 0 -1
BITMAP
38
46
99
A5
A5
99
42
3C
ENDCHAR
STARTCHAR 24DF
ENCODING 9439
SWIDTH 1000 0
DWIDTH 8 0
BBX 8 7 0 0
BITMAP
3C
42
9D
95
9D
92
7C
ENDCHAR
STARTCHAR 24E0
ENCODING 9440
SWIDTH 1000 0
DWIDTH 8 0
BBX 8 7 0 0
BITMAP
3C
C6
B9
A9
B9
8A
7C
ENDCHAR
STARTCHAR 24E1
ENCODING 9441
SWIDTH 1000 0
DWIDTH 8 0
BBX 8 7 0 -1
BITMAP
3C
C6
9D
91
91
82
7C
ENDCHAR
STARTCHAR 24E2
ENCODING 9442
SWIDTH 1000 0
DWIDTH 8 0
BBX 6 8 1 -1
BITMAP
30
C8
A4
B4
94
14
88
70
ENDCHAR
STARTCHAR 24E3
ENCODING 9443
SWIDTH 1000 0
DWIDTH 8 0
BBX 8 8 0 -2
BITMAP
7C
96
BB
91
91
99
42
3C
ENDCHAR
STARTCHAR 24E4
ENCODING 9444
SWIDTH 1000 0
DWIDTH 8 0
BBX 6 8 1 -1
BITMAP
30
C8
F4
B4
B4
B4
88
70
ENDCHAR
STARTCHAR 24E5
ENCODING 9445
SWIDTH 1000 0
DWIDTH 8 0
BBX 8 7 0 -1
BITMAP
3C
C2
81
99
91
42
3C
ENDCHAR
STARTCHAR 24E6
ENCODING 9446
SWIDTH 1000 0
DWIDTH 8 0
BBX 8 7 0 -1
BITMAP
3C
C2
A1
AD
99
42
3C
ENDCHAR
STARTCHAR 24E7
ENCODING 9447
SWIDTH 1000 0
DWIDTH 8 0
BBX 8 7 0 0
BITMAP
3C
42
81
99
89
42
3C
ENDCHAR
STARTCHAR 24E8
ENCODING 9448
SWIDTH 1000 0
DWIDTH 8 0
BBX 8 7 0 0
BITMAP
3C
42
81
99
89
92
7C
ENDCHAR
STARTCHAR 24E9
ENCODING 9449
SWIDTH 1000 0
DWIDTH 8 0
BBX 6 7 1 0
BITMAP
78
88
B4
A4
B4
88
78
ENDCHAR
STARTCHAR 24EB
ENCODING 9451
SWIDTH 1000 0
DWIDTH 8 0
BBX 8 7 0 0
BITMAP
3C
5A
DB
DB
DB
5A
3C
ENDCHAR
STARTCHAR 24EC
ENCODING 9452
SWIDTH 1000 0
DWIDTH 8 0
BBX 7 7 0 0
BITMAP
38
7C
D6
DE
DE
54
38
ENDCHAR
STARTCHAR 24ED
ENCODING 9453
SWIDTH 1000 0
DWIDTH 8 0
BBX 8 6 0 0
BITMAP
7E
D5
DD
DD
56
3C
ENDCHAR
STARTCHAR 24EE
ENCODING 9454
SWIDTH 1000 0
DWIDTH 8 0
BBX 7 6 0 0
BITMAP
7C
DA
DA
DA
5C
38
ENDCHAR
STARTCHAR 24EF
ENCODING 9455
SWIDTH 1000 0
DWIDTH 8 0
BBX 8 6 0 0
BITMAP
7E
D7
D5
DD
56
3C
ENDCHAR
STARTCHAR 24F0
ENCODING 9456
SWIDTH 1000 0
DWIDTH 8 0
BBX 7 7 0 0
BITMAP
38
74
EE
EA
EA
6C
38
ENDCHAR
STARTCHAR 24F1
ENCODING 9457
SWIDTH 1000 0
DWIDTH 8 0
BBX 7 6 0 0
BITMAP
7C
DE
DA
DE
5C
38
ENDCHAR
STARTCHAR 24F2
ENCODING 9458
SWIDTH 1000 0
DWIDTH 8 0
BBX 8 7 0 0
BITMAP
3C
52
D7
DB
DD
5E
3C
ENDCHAR
STARTCHAR 24F3
ENCODING 9459
SWIDTH 1000 0
DWIDTH 8 0
BBX 8 7 0 0
BITMAP
3C
52
D5
D7
DD
56
3C
ENDCHAR
STARTCHAR 24F4
ENCODING 9460
SWIDTH 1000 0
DWIDTH 8 0
BBX 7 7 1 0
BITMAP
38
7C
BA
FA
FA
BC
78
ENDCHAR
STARTCHAR 24F5
ENCODING 9461
SWIDTH 1000 0
DWIDTH 8 0
BBX 8 8 0 -1
BITMAP
3C
6A
C9
C9
C9
AB
5E
3C
ENDCHAR
STARTCHAR 24F6
ENCODING 9462
SWIDTH 1000 0
DWIDTH 8 0
BBX 8 9 0 -1
BITMAP
3C
7E
FF
85
89
B1
FE
7E
3C
ENDCHAR
STARTCHAR 24F7
ENCODING 9463
SWIDTH 1000 0
DWIDTH 8 0
BBX 7 8 0 -1
BITMAP
38
7C
FE
8A
92
CE
7E
3C
ENDCHAR
STARTCHAR 24F8
ENCODING 9464
SWIDTH 1000 0
DWIDTH 8 0
BBX 8 7 0 -1
BITMAP
3C
6B
F9
E9
FF
5E
3C
ENDCHAR
STARTCHAR 24F9
ENCODING 9465
SWIDTH 1000 0
DWIDTH 8 0
BBX 8 7 0 -1
BITMAP
3C
7E
E3
DF
FF
7E
3C
ENDCHAR
STARTCHAR 24FA
ENCODING 9466
SWIDTH 1000 0
DWIDTH 8 0
BBX 8 8 0 -1
BITMAP
3C
7E
FF
FF
E7
FE
7E
3C
ENDCHAR
STARTCHAR 24FB
ENCODING 9467
SWIDTH 1000 0
DWIDTH 8 0
BBX 7 8 1 -1
BITMAP
38
7C
FE
92
92
D6
7C
38
ENDCHAR
STARTCHAR 24FC
ENCODING 9468
SWIDTH 1000 0
DWIDTH 8 0
BBX 8 8 0 -1
BITMAP
3C
7E
FF
DB
E7
FE
7E
3C
ENDCHAR
STARTCHAR 24FD
ENCODING 9469
SWIDTH 1000 0
DWIDTH 8 0
BBX 8 8 0 -1
BITMAP
3C
7E
FF
D7
DF
FE
7E
3C
ENDCHAR
STARTCHAR 24FE
ENCODING 9470
SWIDTH 1000 0
DWIDTH 8 0
BBX 8 8 1 -1
BITMAP
3C
7E
EF
AF
AF
EE
7A
3C
ENDCHAR
STARTCHAR 2500
ENCODING 9472
SWIDTH 1000 0
DWIDTH 8 0
BBX 8 1 0 2
BITMAP
FF
ENDCHAR
STARTCHAR 2501
ENCODING 9473
SWIDTH 1000 0
DWIDTH 8 0
BBX 8 1 0 3
BITMAP
FF
ENDCHAR
STARTCHAR 2502
ENCODING 9474
SWIDTH 1000 0
DWIDTH 8 0
BBX 1 8 4 -1
BITMAP
80
80
80
80
80
80
80
80
ENDCHAR
STARTCHAR 2503
ENCODING 9475
SWIDTH 1000 0
DWIDTH 8 0
BBX 1 8 4 -1
BITMAP
80
80
80
80
80
80
80
80
ENDCHAR
STARTCHAR 250C
ENCODING 9484
SWIDTH 1000 0
DWIDTH 8 0
BBX 4 4 4 -1
BITMAP
F0
80
80
80
ENDCHAR
STARTCHAR 250F
ENCODING 9487
SWIDTH 1000 0
DWIDTH 8 0
BBX 4 5 4 -1
BITMAP
F0
80
80
80
80
ENDCHAR
STARTCHAR 2510
ENCODING 9488
SWIDTH 1000 0
DWIDTH 8 0
BBX 4 4 0 -1
BITMAP
F0
10
10
10
ENDCHAR
STARTCHAR 2513
ENCODING 9491
SWIDTH 1000 0
DWIDTH 8 0
BBX 4 5 0 -1
BITMAP
F0
10
10
10
10
ENDCHAR
STARTCHAR 2514
ENCODING 9492
SWIDTH 1000 0
DWIDTH 8 0
BBX 4 5 4 2
BITMAP
80
80
80
80
F0
ENDCHAR
STARTCHAR 2517
ENCODING 9495
SWIDTH 1000 0
DWIDTH 8 0
BBX 4 4 4 3
BITMAP
80
80
80
F0
ENDCHAR
STARTCHAR 2518
ENCODING 9496
SWIDTH 1000 0
DWIDTH 8 0
BBX 4 5 0 2
BITMAP
10
10
10
10
F0
ENDCHAR
STARTCHAR 251B
ENCODING 9499
SWIDTH 1000 0
DWIDTH 8 0
BBX 4 4 0 3
BITMAP
10
10
10
F0
ENDCHAR
STARTCHAR 251C
ENCODING 9500
SWIDTH 1000 0
DWIDTH 8 0
BBX 4 8 4 -1
BITMAP
80
80
80
80
F0
80
80
80
ENDCHAR
STARTCHAR 251D
ENCODING 9501
SWIDTH 1000 0
DWIDTH 8 0
BBX 4 8 4 -1
BITMAP
80
80
80
F0
80
80
80
80
ENDCHAR
STARTCHAR 2520
ENCODING 9504
SWIDTH 1000 0
DWIDTH 8 0
BBX 4 8 4 -1
BITMAP
80
80
80
80
F0
80
80
80
ENDCHAR
STARTCHAR 2523
ENCODING 9507
SWIDTH 1000 0
DWIDTH 8 0
BBX 4 8 4 -1
BITMAP
80
80
80
F0
80
80
80
80
ENDCHAR
STARTCHAR 2524
ENCODING 9508
SWIDTH 1000 0
DWIDTH 8 0
BBX 4 8 0 -1
BITMAP
10
10
10
10
F0
10
10
10
ENDCHAR
STARTCHAR 2525
ENCODING 9509
SWIDTH 1000 0
DWIDTH 8 0
BBX 4 8 0 -1
BITMAP
10
10
10
F0
10
10
10
10
ENDCHAR
STARTCHAR 2528
ENCODING 9512
SWIDTH 1000 0
DWIDTH 8 0
BBX 4 8 0 -1
BITMAP
10
10
10
10
F0
10
10
10
ENDCHAR
STARTCHAR 252B
ENCODING 9515
SWIDTH 1000 0
DWIDTH 8 0
BBX 4 8 0 -1
BITMAP
10
10
10
F0
10
10
10
10
ENDCHAR
STARTCHAR 252C
ENCODING 9516
SWIDTH 1000 0
DWIDTH 8 0
BBX 8 4 0 -1
BITMAP
FF
08
08
08
ENDCHAR
STARTCHAR 252F
ENCODING 9519
SWIDTH 1000 0
DWIDTH 8 0
BBX 8 5 0 -1
BITMAP
FF
08
08
08
08
ENDCHAR
STARTCHAR 2530
ENCODING 9520
SWIDTH 1000 0
DWIDTH 8 0
BBX 8 4 0 -1
BITMAP
FF
08
08
08
ENDCHAR
STARTCHAR 2533
ENCODING 9523
SWIDTH 1000 0
DWIDTH 8 0
BBX 8 5 0 -1
BITMAP
FF
08
08
08
08
ENDCHAR
STARTCHAR 2534
ENCODING 9524
SWIDTH 1000 0
DWIDTH 8 0
BBX 8 5 0 2
BITMAP
08
08
08
08
FF
ENDCHAR
STARTCHAR 2537
ENCODING 9527
SWIDTH 1000 0
DWIDTH 8 0
BBX 8 4 0 3
BITMAP
08
08
08
FF
ENDCHAR
STARTCHAR 2538
ENCODING 9528
SWIDTH 1000 0
DWIDTH 8 0
BBX 8 5 0 2
BITMAP
08
08
08
08
FF
ENDCHAR
STARTCHAR 253B
ENCODING 9531
SWIDTH 1000 0
DWIDTH 8 0
BBX 8 4 0 3
BITMAP
08
08
08
FF
ENDCHAR
STARTCHAR 253C
ENCODING 9532
SWIDTH 1000 0
DWIDTH 8 0
BBX 8 8 0 -1
BITMAP
08
08
08
08
FF
08
08
08
ENDCHAR
STARTCHAR 253F
ENCODING 9535
SWIDTH 1000 0
DWIDTH 8 0
BBX 8 8 0 -1
BITMAP
08
08
08
FF
08
08
08
08
ENDCHAR
STARTCHAR 2542
ENCODING 9538
SWIDTH 1000 0
DWIDTH 8 0
BBX 8 8 0 -1
BITMAP
08
08
08
08
FF
08
08
08
ENDCHAR
STARTCHAR 254B
ENCODING 9547
SWIDTH 1000 0
DWIDTH 8 0
BBX 8 8 0 -1
BITMAP
08
08
08
FF
08
08
08
08
ENDCHAR
STARTCHAR 25A0
ENCODING 9632
SWIDTH 1000 0
DWIDTH 8 0
BBX 6 6 1 0
BITMAP
FC
FC
FC
FC
FC
FC
ENDCHAR
STARTCHAR 25A1
ENCODING 9633
SWIDTH 1000 0
DWIDTH 8 0
BBX 6 6 1 0
BITMAP
FC
84
84
84
84
FC
ENDCHAR
STARTCHAR 25B1
ENCODING 9649
SWIDTH 1000 0
DWIDTH 8 0
BBX 6 3 1 2
BITMAP
7C
84
F8
ENDCHAR
STARTCHAR 25B2
ENCODING 9650
SWIDTH 1000 0
DWIDTH 8 0
BBX 6 6 1 1
BITMAP
20
30
30
78
78
FC
ENDCHAR
STARTCHAR 25B3
ENCODING 9651
SWIDTH 1000 0
DWIDTH 8 0
BBX 6 6 1 1
BITMAP
30
50
48
88
84
FC
ENDCHAR
STARTCHAR 25B6
ENCODING 9654
SWIDTH 1000 0
DWIDTH 8 0
BBX 6 6 1 0
BITMAP
C0
E0
F8
FC
E0
80
ENDCHAR
STARTCHAR 25B7
ENCODING 9655
SWIDTH 1000 0
DWIDTH 8 0
BBX 6 6 1 0
BITMAP
C0
B0
8C
84
98
E0
ENDCHAR
STARTCHAR 25BC
ENCODING 9660
SWIDTH 1000 0
DWIDTH 8 0
BBX 6 6 1 -1
BITMAP
FC
78
78
30
30
20
ENDCHAR
STARTCHAR 25BD
ENCODING 9661
SWIDTH 1000 0
DWIDTH 8 0
BBX 6 6 1 -1
BITMAP
FC
84
88
48
50
30
ENDCHAR
STARTCHAR 25C0
ENCODING 9664
SWIDTH 1000 0
DWIDTH 8 0
BBX 6 6 1 0
BITMAP
0C
1C
7C
FC
1C
04
ENDCHAR
STARTCHAR 25C1
ENCODING 9665
SWIDTH 1000 0
DWIDTH 8 0
BBX 6 6 1 0
BITMAP
0C
34
C4
84
64
1C
ENDCHAR
STARTCHAR 25C6
ENCODING 9670
SWIDTH 1000 0
DWIDTH 8 0
BBX 6 6 1 0
BITMAP
30
78
FC
FC
78
30
ENDCHAR
STARTCHAR 25C7
ENCODING 9671
SWIDTH 1000 0
DWIDTH 8 0
BBX 7 7 0 0
BITMAP
38
44
82
82
44
28
10
ENDCHAR
STARTCHAR 25C9
ENCODING 9673
SWIDTH 1000 0
DWIDTH 8 0
BBX 6 6 1 0
BITMAP
78
FC
FC
FC
F4
78
ENDCHAR
STARTCHAR 25CB
ENCODING 9675
SWIDTH 1000 0
DWIDTH 8 0
BBX 6 6 1 0
BITMAP
78
CC
84
84
0C
F8
ENDCHAR
STARTCHAR 25CE
ENCODING 9678
SWIDTH 1000 0
DWIDTH 8 0
BBX 6 6 1 0
BITMAP
78
FC
CC
CC
F4
78
ENDCHAR
STARTCHAR 25CF
ENCODING 9679
SWIDTH 1000 0
DWIDTH 8 0
BBX 7 7 1 0
BITMAP
38
7C
FE
FE
FE
7C
38
ENDCHAR
STARTCHAR 25D0
ENCODING 9680
SWIDTH 1000 0
DWIDTH 8 0
BBX 6 7 1 0
BITMAP
78
E4
E4
E4
E4
68
10
ENDCHAR
STARTCHAR 25D1
ENCODING 9681
SWIDTH 1000 0
DWIDTH 8 0
BBX 6 7 1 0
BITMAP
78
9C
9C
9C
9C
58
20
ENDCHAR
STARTCHAR 25D2
ENCODING 9682
SWIDTH 1000 0
DWIDTH 8 0
BBX 7 6 0 0
BITMAP
3C
42
82
7E
7E
3C
ENDCHAR
STARTCHAR 25D3
ENCODING 9683
SWIDTH 1000 0
DWIDTH 8 0
BBX 7 6 0 0
BITMAP
3C
7E
7E
82
42
3C
ENDCHAR
STARTCHAR 25E6
ENCODING 9702
SWIDTH 1000 0
DWIDTH 8 0
BBX 2 2 3 2
BITMAP
C0
C0
ENDCHAR
STARTCHAR 25EF
ENCODING 9711
SWIDTH 1000 0
DWIDTH 8 0
BBX 8 8 0 -1
BITMAP
38
46
81
81
81
81
42
3C
ENDCHAR
STARTCHAR 2600
ENCODING 9728
SWIDTH 1000 0
DWIDTH 8 0
BBX 8 8 0 -1
BITMAP
08
08
38
3C
FF
18
08
08
ENDCHAR
STARTCHAR 2601
ENCODING 9729
SWIDTH 1000 0
DWIDTH 8 0
BBX 7 5 1 0
BITMAP
70
76
FE
FC
DC
ENDCHAR
STARTCHAR 2602
ENCODING 9730
SWIDTH 1000 0
DWIDTH 8 0
BBX 9 8 0 -1
BITMAP
0800
3E00
7F00
AA80
0800
0800
0800
1800
ENDCHAR
STARTCHAR 2603
ENCODING 9731
SWIDTH 1000 0
DWIDTH 8 0
BBX 8 8 0 -1
BITMAP
B3
FC
EB
FC
A7
CA
4A
7E
ENDCHAR
STARTCHAR 2605
ENCODING 9733
SWIDTH 1000 0
DWIDTH 8 0
BBX 6 6 1 0
BITMAP
20
30
FC
78
78
48
ENDCHAR
STARTCHAR 2606
ENCODING 9734
SWIDTH 1000 0
DWIDTH 8 0
BBX 6 7 1 -1
BITMAP
20
30
CC
88
48
B8
48
ENDCHAR
STARTCHAR 260E
ENCODING 9742
SWIDTH 1000 0
DWIDTH 8 0
BBX 6 6 1 0
BITMAP
FC
B4
78
48
CC
FC
ENDCHAR
STARTCHAR 2616
ENCODING 9750
SWIDTH 1000 0
DWIDTH 8 0
BBX 7 7 0 1
BITMAP
18
66
42
82
82
82
7E
ENDCHAR
STARTCHAR 2617
ENCODING 9751
SWIDTH 1000 0
DWIDTH 8 0
BBX 6 6 1 1
BITMAP
78
FC
FC
FC
FC
FC
ENDCHAR
STARTCHAR 261E
ENCODING 9758
SWIDTH 1000 0
DWIDTH 8 0
BBX 6 4 1 1
BITMAP
AC
DC
F8
B0
ENDCHAR
STARTCHAR 2640
ENCODING 9792
SWIDTH 1000 0
DWIDTH 8 0
BBX 4 9 2 -1
BITMAP
20
50
50
50
20
F0
20
20
20
ENDCHAR
STARTCHAR 2642
ENCODING 9794
SWIDTH 1000 0
DWIDTH 8 0
BBX 7 7 0 -1
BITMAP
0E
06
0A
70
90
90
60
ENDCHAR
STARTCHAR 2660
ENCODING 9824
SWIDTH 1000 0
DWIDTH 8 0
BBX 6 7 1 0
BITMAP
30
78
FC
FC
FC
20
30
ENDCHAR
STARTCHAR 2661
ENCODING 9825
SWIDTH 1000 0
DWIDTH 8 0
BBX 6 6 1 -1
BITMAP
FC
84
84
88
48
30
ENDCHAR
STARTCHAR 2662
ENCODING 9826
SWIDTH 1000 0
DWIDTH 8 0
BBX 6 7 1 0
BITMAP
70
48
84
84
48
50
20
ENDCHAR
STARTCHAR 2663
ENCODING 9827
SWIDTH 1000 0
DWIDTH 8 0
BBX 6 8 1 -1
BITMAP
30
78
78
FC
FC
EC
20
30
ENDCHAR
STARTCHAR 2664
ENCODING 9828
SWIDTH 1000 0
DWIDTH 8 0
BBX 6 7 1 0
BITMAP
70
48
84
84
FC
30
30
ENDCHAR
STARTCHAR 2665
ENCODING 9829
SWIDTH 1000 0
DWIDTH 8 0
BBX 6 6 1 -1
BITMAP
FC
FC
FC
78
78
30
ENDCHAR
STARTCHAR 2666
ENCODING 9830
SWIDTH 1000 0
DWIDTH 8 0
BBX 6 6 1 0
BITMAP
30
78
FC
78
78
30
ENDCHAR
STARTCHAR 2667
ENCODING 9831
SWIDTH 1000 0
DWIDTH 8 0
BBX 7 8 1 -1
BITMAP
30
48
48
FE
82
FE
30
30
ENDCHAR
STARTCHAR 2668
ENCODING 9832
SWIDTH 1000 0
DWIDTH 8 0
BBX 6 6 1 1
BITMAP
68
68
58
DC
A4
78
ENDCHAR
STARTCHAR 2669
ENCODING 9833
SWIDTH 1000 0
DWIDTH 8 0
BBX 3 7 2 -1
BITMAP
20
20
20
20
20
E0
E0
ENDCHAR
STARTCHAR 266A
ENCODING 9834
SWIDTH 1000 0
DWIDTH 8 0
BBX 6 6 2 1
BITMAP
30
28
24
24
20
E0
ENDCHAR
STARTCHAR 266B
ENCODING 9835
SWIDTH 1000 0
DWIDTH 8 0
BBX 5 8 1 -1
BITMAP
08
38
28
28
28
28
F8
E0
ENDCHAR
STARTCHAR 266C
ENCODING 9836
SWIDTH 1000 0
DWIDTH 8 0
BBX 5 8 1 -1
BITMAP
08
38
38
28
28
28
F8
E0
ENDCHAR
STARTCHAR 266D
ENCODING 9837
SWIDTH 1000 0
DWIDTH 8 0
BBX 4 7 3 -1
BITMAP
80
80
F0
90
90
A0
C0
ENDCHAR
STARTCHAR 266E
ENCODING 9838
SWIDTH 1000 0
DWIDTH 8 0
BBX 2 6 3 0
BITMAP
80
80
C0
C0
40
40
ENDCHAR
STARTCHAR 266F
ENCODING 9839
SWIDTH 1000 0
DWIDTH 8 0
BBX 4 6 2 0
BITMAP
60
70
E0
60
F0
60
ENDCHAR
STARTCHAR 2713
ENCODING 10003
SWIDTH 1000 0
DWIDTH 8 0
BBX 5 6 2 0
BITMAP
08
10
10
A0
C0
80
ENDCHAR
STARTCHAR 2756
ENCODING 10070
SWIDTH 1000 0
DWIDTH 8 0
BBX 6 6 1 0
BITMAP
30
30
CC
CC
30
30
ENDCHAR
STARTCHAR 2776
ENCODING 10102
SWIDTH 1000 0
DWIDTH 8 0
BBX 7 7 1 0
BITMAP
78
CC
EE
EE
EE
6C
38
ENDCHAR
STARTCHAR 2777
ENCODING 10103
SWIDTH 1000 0
DWIDTH 8 0
BBX 8 7 0 0
BITMAP
3C
7E
DB
FB
F7
7E
3C
ENDCHAR
STARTCHAR 2778
ENCODING 10104
SWIDTH 1000 0
DWIDTH 8 0
BBX 7 7 0 -1
BITMAP
7C
DE
FE
FE
DE
7C
38
ENDCHAR
STARTCHAR 2779
ENCODING 10105
SWIDTH 1000 0
DWIDTH 8 0
BBX 8 7 0 0
BITMAP
3C
76
E7
F7
D7
76
3C
ENDCHAR
STARTCHAR 277A
ENCODING 10106
SWIDTH 1000 0
DWIDTH 8 0
BBX 8 7 0 -1
BITMAP
3C
7E
FF
FB
DB
7E
3C
ENDCHAR
STARTCHAR 277B
ENCODING 10107
SWIDTH 1000 0
DWIDTH 8 0
BBX 8 8 0 -1
BITMAP
38
66
DF
C3
DB
FB
7E
3C
ENDCHAR
STARTCHAR 277C
ENCODING 10108
SWIDTH 1000 0
DWIDTH 8 0
BBX 7 7 1 -1
BITMAP
7C
F4
FE
EE
EE
6C
38
ENDCHAR
STARTCHAR 277D
ENCODING 10109
SWIDTH 1000 0
DWIDTH 8 0
BBX 8 8 0 -1
BITMAP
38
66
FF
E7
DB
DB
7E
3C
ENDCHAR
STARTCHAR 277E
ENCODING 10110
SWIDTH 1000 0
DWIDTH 8 0
BBX 8 8 0 -1
BITMAP
38
66
DB
DB
C3
FF
7E
3C
ENDCHAR
STARTCHAR 277F
ENCODING 10111
SWIDTH 1000 0
DWIDTH 8 0
BBX 7 7 0 0
BITMAP
38
74
EA
EA
EA
6C
38
ENDCHAR
STARTCHAR 2934
ENCODING 10548
SWIDTH 1000 0
DWIDTH 8 0
BBX 6 7 1 0
BITMAP
08
1C
08
08
08
08
F0
ENDCHAR
STARTCHAR 2935
ENCODING 10549
SWIDTH 1000 0
DWIDTH 8 0
BBX 5 6 1 -1
BITMAP
F0
08
08
08
08
08
ENDCHAR
STARTCHAR 29BF
ENCODING 10687
SWIDTH 1000 0
DWIDTH 8 0
BBX 6 6 1 0
BITMAP
78
CC
B4
B4
C4
78
ENDCHAR
STARTCHAR 29FA
ENCODING 10746
SWIDTH 1000 0
DWIDTH 8 0
BBX 4 5 2 0
BITMAP
60
60
F0
60
60
ENDCHAR
STARTCHAR 29FB
ENCODING 10747
SWIDTH 1000 0
DWIDTH 8 0
BBX 4 5 2 0
BITMAP
60
60
F0
60
60
ENDCHAR
STARTCHAR 2FF0
ENCODING 12272
SWIDTH 1000 0
DWIDTH 8 0
BBX 0 0 0 -1
BITMAP
ENDCHAR
STARTCHAR 2FF1
ENCODING 12273
SWIDTH 1000 0
DWIDTH 8 0
BBX 0 0 0 -1
BITMAP
ENDCHAR
STARTCHAR 2FF2
ENCODING 12274
SWIDTH 1000 0
DWIDTH 8 0
BBX 0 0 0 -1
BITMAP
ENDCHAR
STARTCHAR 2FF3
ENCODING 12275
SWIDTH 1000 0
DWIDTH 8 0
BBX 0 0 0 -1
BITMAP
ENDCHAR
STARTCHAR 2FF4
ENCODING 12276
SWIDTH 1000 0
DWIDTH 8 0
BBX 4 3 2 0
BITMAP
F0
80
80
ENDCHAR
STARTCHAR 2FF5
ENCODING 12277
SWIDTH 1000 0
DWIDTH 8 0
BBX 0 0 0 -1
BITMAP
ENDCHAR
STARTCHAR 2FF6
ENCODING 12278
SWIDTH 1000 0
DWIDTH 8 0
BBX 2 1 3 3
BITMAP
C0
ENDCHAR
STARTCHAR 2FF7
ENCODING 12279
SWIDTH 1000 0
DWIDTH 8 0
BBX 0 0 0 -1
BITMAP
ENDCHAR
STARTCHAR 2FF8
ENCODING 12280
SWIDTH 1000 0
DWIDTH 8 0
BBX 0 0 0 -1
BITMAP
ENDCHAR
STARTCHAR 2FF9
ENCODING 12281
SWIDTH 1000 0
DWIDTH 8 0
BBX 0 0 0 -1
BITMAP
ENDCHAR
STARTCHAR 2FFA
ENCODING 12282
SWIDTH 1000 0
DWIDTH 8 0
BBX 0 0 0 -1
BITMAP
ENDCHAR
STARTCHAR 2FFB
ENCODING 12283
SWIDTH 1000 0
DWIDTH 8 0
BBX 5 5 2 0
BITMAP
B8
90
90
F0
80
ENDCHAR
STARTCHAR 3000
ENCODING 12288
SWIDTH 1000 0
DWIDTH 8 0
BBX 0 0 0 0
BITMAP
ENDCHAR
STARTCHAR 3001
ENCODING 12289
SWIDTH 1000 0
DWIDTH 8 0
BBX 1 2 1 0
BITMAP
80
80
ENDCHAR
STARTCHAR 3002
ENCODING 12290
SWIDTH 1000 0
DWIDTH 8 0
BBX 2 2 0 0
BITMAP
C0
C0
ENDCHAR
STARTCHAR 3003
ENCODING 12291
SWIDTH 1000 0
DWIDTH 8 0
BBX 3 3 2 1
BITMAP
60
A0
C0
ENDCHAR
STARTCHAR 3004
ENCODING 12292
SWIDTH 1000 0
DWIDTH 8 0
BBX 7 6 0 0
BITMAP
68
8C
8A
BA
E2
34
ENDCHAR
STARTCHAR 3005
ENCODING 12293
SWIDTH 1000 0
DWIDTH 8 0
BBX 4 5 2 1
BITMAP
40
40
B0
20
20
ENDCHAR
STARTCHAR 3006
ENCODING 12294
SWIDTH 1000 0
DWIDTH 8 0
BBX 6 6 1 0
BITMAP
04
08
70
B0
C0
80
ENDCHAR
STARTCHAR 3007
ENCODING 12295
SWIDTH 1000 0
DWIDTH 8 0
BBX 6 6 1 0
BITMAP
78
8C
84
84
CC
78
ENDCHAR
STARTCHAR 3008
ENCODING 12296
SWIDTH 1000 0
DWIDTH 8 0
BBX 3 6 4 0
BITMAP
20
40
80
80
40
20
ENDCHAR
STARTCHAR 3009
ENCODING 12297
SWIDTH 1000 0
DWIDTH 8 0
BBX 2 6 1 0
BITMAP
80
40
40
40
40
80
ENDCHAR
STARTCHAR 300A
ENCODING 12298
SWIDTH 1000 0
DWIDTH 8 0
BBX 3 6 4 0
BITMAP
60
C0
C0
C0
C0
60
ENDCHAR
STARTCHAR 300B
ENCODING 12299
SWIDTH 1000 0
DWIDTH 8 0
BBX 3 6 0 0
BITMAP
C0
60
60
60
60
C0
ENDCHAR
STARTCHAR 300C
ENCODING 12300
SWIDTH 1000 0
DWIDTH 8 0
BBX 2 6 5 1
BITMAP
C0
80
80
80
80
80
ENDCHAR
STARTCHAR 300D
ENCODING 12301
SWIDTH 1000 0
DWIDTH 8 0
BBX 2 6 1 -1
BITMAP
40
40
40
40
40
C0
ENDCHAR
STARTCHAR 300E
ENCODING 12302
SWIDTH 1000 0
DWIDTH 8 0
BBX 2 6 5 1
BITMAP
C0
C0
C0
C0
C0
C0
ENDCHAR
STARTCHAR 300F
ENCODING 12303
SWIDTH 1000 0
DWIDTH 8 0
BBX 2 6 1 -1
BITMAP
C0
C0
C0
C0
C0
C0
ENDCHAR
STARTCHAR 3010
ENCODING 12304
SWIDTH 1000 0
DWIDTH 8 0
BBX 1 8 6 -1
BITMAP
80
80
80
80
80
80
80
80
ENDCHAR
STARTCHAR 3011
ENCODING 12305
SWIDTH 1000 0
DWIDTH 8 0
BBX 1 8 1 -1
BITMAP
80
80
80
80
80
80
80
80
ENDCHAR
STARTCHAR 3012
ENCODING 12306
SWIDTH 1000 0
DWIDTH 8 0
BBX 6 6 1 0
BITMAP
FC
00
FC
10
10
10
ENDCHAR
STARTCHAR 3013
ENCODING 12307
SWIDTH 1000 0
DWIDTH 8 0
BBX 6 4 1 1
BITMAP
FC
00
00
FC
ENDCHAR
STARTCHAR 3014
ENCODING 12308
SWIDTH 1000 0
DWIDTH 8 0
BBX 1 6 6 0
BITMAP
80
80
80
80
80
80
ENDCHAR
STARTCHAR 3015
ENCODING 12309
SWIDTH 1000 0
DWIDTH 8 0
BBX 1 6 1 0
BITMAP
80
80
80
80
80
80
ENDCHAR
STARTCHAR 3016
ENCODING 12310
SWIDTH 1000 0
DWIDTH 8 0
BBX 3 8 5 -1
BITMAP
E0
C0
C0
C0
C0
C0
C0
E0
ENDCHAR
STARTCHAR 3017
ENCODING 12311
SWIDTH 1000 0
DWIDTH 8 0
BBX 3 8 0 -1
BITMAP
E0
A0
60
60
60
60
A0
E0
ENDCHAR
STARTCHAR 3018
ENCODING 12312
SWIDTH 1000 0
DWIDTH 8 0
BBX 2 6 5 0
BITMAP
C0
C0
C0
C0
C0
C0
ENDCHAR
STARTCHAR 3019
ENCODING 12313
SWIDTH 1000 0
DWIDTH 8 0
BBX 2 6 1 0
BITMAP
C0
40
40
40
40
C0
ENDCHAR
STARTCHAR 301C
ENCODING 12316
SWIDTH 1000 0
DWIDTH 8 0
BBX 6 2 1 2
BITMAP
E0
1C
ENDCHAR
STARTCHAR 301D
ENCODING 12317
SWIDTH 1000 0
DWIDTH 8 0
BBX 2 3 5 3
BITMAP
80
40
40
ENDCHAR
STARTCHAR 301F
ENCODING 12319
SWIDTH 1000 0
DWIDTH 8 0
BBX 1 2 1 0
BITMAP
80
80
ENDCHAR
STARTCHAR 3020
ENCODING 12320
SWIDTH 1000 0
DWIDTH 8 0
BBX 8 4 0 1
BITMAP
7E
7E
AD
7E
ENDCHAR
STARTCHAR 3033
ENCODING 12339
SWIDTH 1000 0
DWIDTH 8 0
BBX 3 7 2 -1
BITMAP
20
20
40
40
80
80
80
ENDCHAR
STARTCHAR 3034
ENCODING 12340
SWIDTH 1000 0
DWIDTH 8 0
BBX 5 7 2 -1
BITMAP
20
20
40
40
98
80
80
ENDCHAR
STARTCHAR 3035
ENCODING 12341
SWIDTH 1000 0
DWIDTH 8 0
BBX 3 7 2 0
BITMAP
80
80
40
40
40
20
20
ENDCHAR
STARTCHAR 3036
ENCODING 12342
SWIDTH 1000 0
DWIDTH 8 0
BBX 6 7 1 0
BITMAP
78
48
FC
FC
94
58
78
ENDCHAR
STARTCHAR 303B
ENCODING 12347
SWIDTH 1000 0
DWIDTH 8 0
BBX 3 5 3 1
BITMAP
40
80
C0
60
80
ENDCHAR
STARTCHAR 303C
ENCODING 12348
SWIDTH 1000 0
DWIDTH 8 0
BBX 6 6 1 0
BITMAP
FC
8C
94
A4
C4
FC
ENDCHAR
STARTCHAR 303D
ENCODING 12349
SWIDTH 1000 0
DWIDTH 8 0
BBX 6 6 1 0
BITMAP
F0
10
08
08
08
04
ENDCHAR
STARTCHAR 3041
ENCODING 12353
SWIDTH 1000 0
DWIDTH 8 0
BBX 4 5 2 0
BITMAP
40
C0
70
D0
D0
ENDCHAR
STARTCHAR 3042
ENCODING 12354
SWIDTH 1000 0
DWIDTH 8 0
BBX 6 6 1 0
BITMAP
20
50
38
D4
A4
E8
ENDCHAR
STARTCHAR 3043
ENCODING 12355
SWIDTH 1000 0
DWIDTH 8 0
BBX 6 3 1 2
BITMAP
88
84
40
ENDCHAR
STARTCHAR 3044
ENCODING 12356
SWIDTH 1000 0
DWIDTH 8 0
BBX 6 5 1 1
BITMAP
88
84
A4
C0
40
ENDCHAR
STARTCHAR 3045
ENCODING 12357
SWIDTH 1000 0
DWIDTH 8 0
BBX 4 6 2 0
BITMAP
60
00
F0
10
00
20
ENDCHAR
STARTCHAR 3046
ENCODING 12358
SWIDTH 1000 0
DWIDTH 8 0
BBX 4 6 2 0
BITMAP
20
00
F0
10
10
20
ENDCHAR
STARTCHAR 3047
ENCODING 12359
SWIDTH 1000 0
DWIDTH 8 0
BBX 3 5 2 1
BITMAP
60
E0
40
60
80
ENDCHAR
STARTCHAR 3048
ENCODING 12360
SWIDTH 1000 0
DWIDTH 8 0
BBX 6 6 1 1
BITMAP
10
10
70
20
70
8C
ENDCHAR
STARTCHAR 3049
ENCODING 12361
SWIDTH 1000 0
DWIDTH 8 0
BBX 5 5 2 0
BITMAP
40
C8
80
F0
B0
ENDCHAR
STARTCHAR 304A
ENCODING 12362
SWIDTH 1000 0
DWIDTH 8 0
BBX 7 6 1 1
BITMAP
20
F6
40
3C
C4
5C
ENDCHAR
STARTCHAR 304B
ENCODING 12363
SWIDTH 1000 0
DWIDTH 8 0
BBX 7 6 0 1
BITMAP
10
20
BA
4A
48
50
ENDCHAR
STARTCHAR 304C
ENCODING 12364
SWIDTH 1000 0
DWIDTH 8 0
BBX 8 7 0 0
BITMAP
01
12
20
BA
4A
48
50
ENDCHAR
STARTCHAR 304D
ENCODING 12365
SWIDTH 1000 0
DWIDTH 8 0
BBX 5 6 2 1
BITMAP
90
68
F0
10
F0
E0
ENDCHAR
STARTCHAR 304E
ENCODING 12366
SWIDTH 1000 0
DWIDTH 8 0
BBX 7 7 1 0
BITMAP
02
2C
70
F8
10
78
70
ENDCHAR
STARTCHAR 304F
ENCODING 12367
SWIDTH 1000 0
DWIDTH 8 0
BBX 4 6 2 0
BITMAP
20
40
80
C0
20
10
ENDCHAR
STARTCHAR 3050
ENCODING 12368
SWIDTH 1000 0
DWIDTH 8 0
BBX 5 6 2 0
BITMAP
20
58
80
C0
20
10
ENDCHAR
STARTCHAR 3051
ENCODING 12369
SWIDTH 1000 0
DWIDTH 8 0
BBX 6 6 1 0
BITMAP
88
BC
88
C8
88
90
ENDCHAR
STARTCHAR 3052
ENCODING 12370
SWIDTH 1000 0
DWIDTH 8 0
BBX 7 7 1 -1
BITMAP
02
8C
BC
88
88
88
90
ENDCHAR
STARTCHAR 3053
ENCODING 12371
SWIDTH 1000 0
DWIDTH 8 0
BBX 5 6 1 0
BITMAP
78
20
00
00
80
78
ENDCHAR
STARTCHAR 3054
ENCODING 12372
SWIDTH 1000 0
DWIDTH 8 0
BBX 7 7 1 0
BITMAP
02
7C
20
00
00
80
78
ENDCHAR
STARTCHAR 3055
ENCODING 12373
SWIDTH 1000 0
DWIDTH 8 0
BBX 5 5 1 2
BITMAP
F8
10
78
40
38
ENDCHAR
STARTCHAR 3056
ENCODING 12374
SWIDTH 1000 0
DWIDTH 8 0
BBX 7 7 1 0
BITMAP
02
24
F8
10
F8
80
70
ENDCHAR
STARTCHAR 3057
ENCODING 12375
SWIDTH 1000 0
DWIDTH 8 0
BBX 5 6 2 1
BITMAP
80
80
80
88
90
E0
ENDCHAR
STARTCHAR 3058
ENCODING 12376
SWIDTH 1000 0
DWIDTH 8 0
BBX 5 6 2 1
BITMAP
80
B0
80
88
90
E0
ENDCHAR
STARTCHAR 3059
ENCODING 12377
SWIDTH 1000 0
DWIDTH 8 0
BBX 5 7 1 -1
BITMAP
30
10
E8
60
50
70
20
ENDCHAR
STARTCHAR 305A
ENCODING 12378
SWIDTH 1000 0
DWIDTH 8 0
BBX 7 7 1 -1
BITMAP
0E
14
E8
60
50
70
20
ENDCHAR
STARTCHAR 305B
ENCODING 12379
SWIDTH 1000 0
DWIDTH 8 0
BBX 7 6 0 1
BITMAP
04
24
FE
28
20
1E
ENDCHAR
STARTCHAR 305C
ENCODING 12380
SWIDTH 1000 0
DWIDTH 8 0
BBX 8 7 0 0
BITMAP
01
06
24
FE
28
20
1E
ENDCHAR
STARTCHAR 305D
ENCODING 12381
SWIDTH 1000 0
DWIDTH 8 0
BBX 6 7 1 -1
BITMAP
78
10
2C
D0
20
20
18
ENDCHAR
STARTCHAR 305E
ENCODING 12382
SWIDTH 1000 0
DWIDTH 8 0
BBX 7 7 1 0
BITMAP
76
20
5C
E0
20
20
18
ENDCHAR
STARTCHAR 305F
ENCODING 12383
SWIDTH 1000 0
DWIDTH 8 0
BBX 6 6 1 1
BITMAP
20
F0
5C
80
80
9C
ENDCHAR
STARTCHAR 3060
ENCODING 12384
SWIDTH 1000 0
DWIDTH 8 0
BBX 7 6 1 1
BITMAP
26
F0
5C
80
80
9C
ENDCHAR
STARTCHAR 3061
ENCODING 12385
SWIDTH 1000 0
DWIDTH 8 0
BBX 6 7 1 0
BITMAP
20
E0
40
7C
44
08
10
ENDCHAR
STARTCHAR 3062
ENCODING 12386
SWIDTH 1000 0
DWIDTH 8 0
BBX 6 7 1 0
BITMAP
44
E0
40
7C
44
08
10
ENDCHAR
STARTCHAR 3063
ENCODING 12387
SWIDTH 1000 0
DWIDTH 8 0
BBX 5 4 1 -1
BITMAP
38
C8
08
10
ENDCHAR
STARTCHAR 3064
ENCODING 12388
SWIDTH 1000 0
DWIDTH 8 0
BBX 6 5 1 0
BITMAP
3C
C4
04
08
10
ENDCHAR
STARTCHAR 3065
ENCODING 12389
SWIDTH 1000 0
DWIDTH 8 0
BBX 7 6 1 1
BITMAP
06
38
C4
04
08
30
ENDCHAR
STARTCHAR 3066
ENCODING 12390
SWIDTH 1000 0
DWIDTH 8 0
BBX 6 6 1 0
BITMAP
1C
F0
20
20
20
18
ENDCHAR
STARTCHAR 3067
ENCODING 12391
SWIDTH 1000 0
DWIDTH 8 0
BBX 6 6 1 0
BITMAP
1C
F0
24
20
20
18
ENDCHAR
STARTCHAR 3068
ENCODING 12392
SWIDTH 1000 0
DWIDTH 8 0
BBX 5 5 1 2
BITMAP
48
30
C0
80
F8
ENDCHAR
STARTCHAR 3069
ENCODING 12393
SWIDTH 1000 0
DWIDTH 8 0
BBX 6 6 1 1
BITMAP
04
48
70
40
80
F8
ENDCHAR
STARTCHAR 306A
ENCODING 12394
SWIDTH 1000 0
DWIDTH 8 0
BBX 6 6 1 1
BITMAP
20
C4
40
88
B0
3C
ENDCHAR
STARTCHAR 306B
ENCODING 12395
SWIDTH 1000 0
DWIDTH 8 0
BBX 5 6 1 0
BITMAP
98
90
80
80
B8
80
ENDCHAR
STARTCHAR 306C
ENCODING 12396
SWIDTH 1000 0
DWIDTH 8 0
BBX 6 6 1 1
BITMAP
20
38
E4
E4
BC
D8
ENDCHAR
STARTCHAR 306D
ENCODING 12397
SWIDTH 1000 0
DWIDTH 8 0
BBX 7 5 1 2
BITMAP
FC
24
C4
DC
5A
ENDCHAR
STARTCHAR 306E
ENCODING 12398
SWIDTH 1000 0
DWIDTH 8 0
BBX 6 6 1 0
BITMAP
78
A4
A4
C4
C4
18
ENDCHAR
STARTCHAR 306F
ENCODING 12399
SWIDTH 1000 0
DWIDTH 8 0
BBX 6 6 1 1
BITMAP
88
BC
88
88
B8
BC
ENDCHAR
STARTCHAR 3070
ENCODING 12400
SWIDTH 1000 0
DWIDTH 8 0
BBX 7 7 1 -1
BITMAP
02
8C
BC
88
88
B8
BC
ENDCHAR
STARTCHAR 3071
ENCODING 12401
SWIDTH 1000 0
DWIDTH 8 0
BBX 7 7 1 0
BITMAP
06
8E
BC
88
88
B8
BC
ENDCHAR
STARTCHAR 3072
ENCODING 12402
SWIDTH 1000 0
DWIDTH 8 0
BBX 6 6 1 0
BITMAP
28
C8
8C
8C
98
70
ENDCHAR
STARTCHAR 3073
ENCODING 12403
SWIDTH 1000 0
DWIDTH 8 0
BBX 7 7 1 0
BITMAP
02
2C
C8
8C
8C
88
70
ENDCHAR
STARTCHAR 3074
ENCODING 12404
SWIDTH 1000 0
DWIDTH 8 0
BBX 7 7 1 0
BITMAP
06
2E
C8
8C
8C
88
70
ENDCHAR
STARTCHAR 3075
ENCODING 12405
SWIDTH 1000 0
DWIDTH 8 0
BBX 6 6 1 1
BITMAP
30
20
20
14
90
70
ENDCHAR
STARTCHAR 3076
ENCODING 12406
SWIDTH 1000 0
DWIDTH 8 0
BBX 7 6 1 1
BITMAP
36
20
20
14
90
70
ENDCHAR
STARTCHAR 3077
ENCODING 12407
SWIDTH 1000 0
DWIDTH 8 0
BBX 6 6 1 1
BITMAP
34
24
20
14
94
70
ENDCHAR
STARTCHAR 3078
ENCODING 12408
SWIDTH 1000 0
DWIDTH 8 0
BBX 6 4 1 1
BITMAP
20
50
88
04
ENDCHAR
STARTCHAR 3079
ENCODING 12409
SWIDTH 1000 0
DWIDTH 8 0
BBX 6 5 1 1
BITMAP
04
28
50
88
04
ENDCHAR
STARTCHAR 307A
ENCODING 12410
SWIDTH 1000 0
DWIDTH 8 0
BBX 6 5 1 1
BITMAP
0C
2C
50
88
04
ENDCHAR
STARTCHAR 307B
ENCODING 12411
SWIDTH 1000 0
DWIDTH 8 0
BBX 6 6 1 1
BITMAP
BC
88
B8
88
B8
B8
ENDCHAR
STARTCHAR 307C
ENCODING 12412
SWIDTH 1000 0
DWIDTH 8 0
BBX 7 7 1 0
BITMAP
02
BC
90
BC
90
B8
B0
ENDCHAR
STARTCHAR 307D
ENCODING 12413
SWIDTH 1000 0
DWIDTH 8 0
BBX 7 7 1 0
BITMAP
06
BE
90
BC
90
B8
B0
ENDCHAR
STARTCHAR 307E
ENCODING 12414
SWIDTH 1000 0
DWIDTH 8 0
BBX 5 5 2 2
BITMAP
E0
D0
60
C0
F8
ENDCHAR
STARTCHAR 307F
ENCODING 12415
SWIDTH 1000 0
DWIDTH 8 0
BBX 7 6 1 -1
BITMAP
70
20
28
D8
8E
10
ENDCHAR
STARTCHAR 3080
ENCODING 12416
SWIDTH 1000 0
DWIDTH 8 0
BBX 7 6 1 1
BITMAP
20
64
46
C0
E4
3C
ENDCHAR
STARTCHAR 3081
ENCODING 12417
SWIDTH 1000 0
DWIDTH 8 0
BBX 6 6 1 -1
BITMAP
10
10
68
E4
A4
C8
ENDCHAR
STARTCHAR 3082
ENCODING 12418
SWIDTH 1000 0
DWIDTH 8 0
BBX 6 6 1 1
BITMAP
20
F0
40
74
24
38
ENDCHAR
STARTCHAR 3083
ENCODING 12419
SWIDTH 1000 0
DWIDTH 8 0
BBX 6 4 1 1
BITMAP
50
5C
FC
20
ENDCHAR
STARTCHAR 3084
ENCODING 12420
SWIDTH 1000 0
DWIDTH 8 0
BBX 7 6 0 1
BITMAP
50
5E
E2
2E
20
10
ENDCHAR
STARTCHAR 3085
ENCODING 12421
SWIDTH 1000 0
DWIDTH 8 0
BBX 6 4 1 0
BITMAP
10
BC
54
38
ENDCHAR
STARTCHAR 3086
ENCODING 12422
SWIDTH 1000 0
DWIDTH 8 0
BBX 6 5 1 0
BITMAP
90
B8
D4
94
B8
ENDCHAR
STARTCHAR 3087
ENCODING 12423
SWIDTH 1000 0
DWIDTH 8 0
BBX 4 5 2 0
BITMAP
40
50
60
40
F0
ENDCHAR
STARTCHAR 3088
ENCODING 12424
SWIDTH 1000 0
DWIDTH 8 0
BBX 6 5 1 2
BITMAP
28
30
20
F0
EC
ENDCHAR
STARTCHAR 3089
ENCODING 12425
SWIDTH 1000 0
DWIDTH 8 0
BBX 5 7 2 0
BITMAP
20
00
00
B8
C8
10
20
ENDCHAR
STARTCHAR 308A
ENCODING 12426
SWIDTH 1000 0
DWIDTH 8 0
BBX 4 6 2 0
BITMAP
A0
D0
90
90
10
20
ENDCHAR
STARTCHAR 308B
ENCODING 12427
SWIDTH 1000 0
DWIDTH 8 0
BBX 6 6 1 1
BITMAP
78
30
38
44
E4
58
ENDCHAR
STARTCHAR 308C
ENCODING 12428
SWIDTH 1000 0
DWIDTH 8 0
BBX 6 5 1 2
BITMAP
D8
28
CC
C4
44
ENDCHAR
STARTCHAR 308D
ENCODING 12429
SWIDTH 1000 0
DWIDTH 8 0
BBX 6 7 1 -1
BITMAP
70
20
40
7C
84
08
10
ENDCHAR
STARTCHAR 308E
ENCODING 12430
SWIDTH 1000 0
DWIDTH 8 0
BBX 6 5 1 0
BITMAP
20
7C
24
C4
08
ENDCHAR
STARTCHAR 308F
ENCODING 12431
SWIDTH 1000 0
DWIDTH 8 0
BBX 7 6 1 1
BITMAP
20
EC
32
42
C2
0C
ENDCHAR
STARTCHAR 3090
ENCODING 12432
SWIDTH 1000 0
DWIDTH 8 0
BBX 6 6 1 0
BITMAP
70
20
58
A4
C4
9C
ENDCHAR
STARTCHAR 3091
ENCODING 12433
SWIDTH 1000 0
DWIDTH 8 0
BBX 6 6 1 0
BITMAP
70
38
48
30
40
FC
ENDCHAR
STARTCHAR 3092
ENCODING 12434
SWIDTH 1000 0
DWIDTH 8 0
BBX 6 6 1 1
BITMAP
60
40
64
98
60
78
ENDCHAR
STARTCHAR 3093
ENCODING 12435
SWIDTH 1000 0
DWIDTH 8 0
BBX 6 6 1 1
BITMAP
20
20
40
A4
E4
98
ENDCHAR
STARTCHAR 3094
ENCODING 12436
SWIDTH 1000 0
DWIDTH 8 0
BBX 5 7 2 -1
BITMAP
08
28
00
F0
10
10
20
ENDCHAR
STARTCHAR 3095
ENCODING 12437
SWIDTH 1000 0
DWIDTH 8 0
BBX 6 5 1 0
BITMAP
40
E8
64
A0
A0
ENDCHAR
STARTCHAR 3096
ENCODING 12438
SWIDTH 1000 0
DWIDTH 8 0
BBX 5 5 2 0
BITMAP
80
B8
90
90
90
ENDCHAR
STARTCHAR 3099
ENCODING 12441
SWIDTH 1000 0
DWIDTH 8 0
BBX 2 2 6 5
BITMAP
40
80
ENDCHAR
STARTCHAR 309A
ENCODING 12442
SWIDTH 1000 0
DWIDTH 8 0
BBX 1 2 6 5
BITMAP
80
80
ENDCHAR
STARTCHAR 309B
ENCODING 12443
SWIDTH 1000 0
DWIDTH 8 0
BBX 2 2 0 5
BITMAP
40
C0
ENDCHAR
STARTCHAR 309C
ENCODING 12444
SWIDTH 1000 0
DWIDTH 8 0
BBX 2 2 0 5
BITMAP
C0
C0
ENDCHAR
STARTCHAR 309D
ENCODING 12445
SWIDTH 1000 0
DWIDTH 8 0
BBX 2 3 3 2
BITMAP
80
40
80
ENDCHAR
STARTCHAR 309E
ENCODING 12446
SWIDTH 1000 0
DWIDTH 8 0
BBX 3 4 3 1
BITMAP
20
80
40
40
ENDCHAR
STARTCHAR 309F
ENCODING 12447
SWIDTH 1000 0
DWIDTH 8 0
BBX 4 6 2 1
BITMAP
20
40
70
90
30
E0
ENDCHAR
STARTCHAR 30A0
ENCODING 12448
SWIDTH 1000 0
DWIDTH 8 0
BBX 4 2 2 2
BITMAP
F0
F0
ENDCHAR
STARTCHAR 30A1
ENCODING 12449
SWIDTH 1000 0
DWIDTH 8 0
BBX 4 5 2 -1
BITMAP
F0
20
40
40
40
ENDCHAR
STARTCHAR 30A2
ENCODING 12450
SWIDTH 1000 0
DWIDTH 8 0
BBX 6 5 1 -1
BITMAP
FC
08
30
20
20
ENDCHAR
STARTCHAR 30A3
ENCODING 12451
SWIDTH 1000 0
DWIDTH 8 0
BBX 4 4 2 0
BITMAP
10
20
C0
40
ENDCHAR
STARTCHAR 30A4
ENCODING 12452
SWIDTH 1000 0
DWIDTH 8 0
BBX 5 6 1 1
BITMAP
08
10
60
A0
20
20
ENDCHAR
STARTCHAR 30A5
ENCODING 12453
SWIDTH 1000 0
DWIDTH 8 0
BBX 4 3 2 0
BITMAP
F0
90
20
ENDCHAR
STARTCHAR 30A6
ENCODING 12454
SWIDTH 1000 0
DWIDTH 8 0
BBX 6 5 1 1
BITMAP
7C
88
08
10
20
ENDCHAR
STARTCHAR 30A7
ENCODING 12455
SWIDTH 1000 0
DWIDTH 8 0
BBX 5 4 1 0
BITMAP
78
20
20
D8
ENDCHAR
STARTCHAR 30A8
ENCODING 12456
SWIDTH 1000 0
DWIDTH 8 0
BBX 6 4 1 2
BITMAP
70
20
20
FC
ENDCHAR
STARTCHAR 30A9
ENCODING 12457
SWIDTH 1000 0
DWIDTH 8 0
BBX 5 5 2 -1
BITMAP
20
F8
20
E0
20
ENDCHAR
STARTCHAR 30AA
ENCODING 12458
SWIDTH 1000 0
DWIDTH 8 0
BBX 6 5 1 2
BITMAP
FC
30
30
50
10
ENDCHAR
STARTCHAR 30AB
ENCODING 12459
SWIDTH 1000 0
DWIDTH 8 0
BBX 6 6 1 1
BITMAP
20
EC
38
28
48
88
ENDCHAR
STARTCHAR 30AC
ENCODING 12460
SWIDTH 1000 0
DWIDTH 8 0
BBX 7 7 1 -1
BITMAP
02
24
EC
38
28
48
98
ENDCHAR
STARTCHAR 30AD
ENCODING 12461
SWIDTH 1000 0
DWIDTH 8 0
BBX 5 6 1 1
BITMAP
20
F0
20
F8
10
10
ENDCHAR
STARTCHAR 30AE
ENCODING 12462
SWIDTH 1000 0
DWIDTH 8 0
BBX 7 7 1 0
BITMAP
02
24
D0
20
F8
10
10
ENDCHAR
STARTCHAR 30AF
ENCODING 12463
SWIDTH 1000 0
DWIDTH 8 0
BBX 5 6 2 0
BITMAP
40
78
90
10
20
C0
ENDCHAR
STARTCHAR 30B0
ENCODING 12464
SWIDTH 1000 0
DWIDTH 8 0
BBX 6 7 2 -1
BITMAP
04
48
70
A0
20
40
80
ENDCHAR
STARTCHAR 30B1
ENCODING 12465
SWIDTH 1000 0
DWIDTH 8 0
BBX 6 6 1 0
BITMAP
40
7C
90
10
20
40
ENDCHAR
STARTCHAR 30B2
ENCODING 12466
SWIDTH 1000 0
DWIDTH 8 0
BBX 7 7 1 -1
BITMAP
02
44
5C
B0
10
20
40
ENDCHAR
STARTCHAR 30B3
ENCODING 12467
SWIDTH 1000 0
DWIDTH 8 0
BBX 4 4 2 2
BITMAP
F0
10
10
F0
ENDCHAR
STARTCHAR 30B4
ENCODING 12468
SWIDTH 1000 0
DWIDTH 8 0
BBX 7 6 1 1
BITMAP
02
04
78
08
08
F8
ENDCHAR
STARTCHAR 30B5
ENCODING 12469
SWIDTH 1000 0
DWIDTH 8 0
BBX 6 6 1 0
BITMAP
48
D4
78
50
10
20
ENDCHAR
STARTCHAR 30B6
ENCODING 12470
SWIDTH 1000 0
DWIDTH 8 0
BBX 7 7 1 -1
BITMAP
02
4C
50
F8
50
10
20
ENDCHAR
STARTCHAR 30B7
ENCODING 12471
SWIDTH 1000 0
DWIDTH 8 0
BBX 6 6 1 0
BITMAP
60
00
C4
08
30
40
ENDCHAR
STARTCHAR 30B8
ENCODING 12472
SWIDTH 1000 0
DWIDTH 8 0
BBX 7 7 1 0
BITMAP
04
46
20
C4
08
10
60
ENDCHAR
STARTCHAR 30B9
ENCODING 12473
SWIDTH 1000 0
DWIDTH 8 0
BBX 5 5 2 0
BITMAP
F0
20
20
60
98
ENDCHAR
STARTCHAR 30BA
ENCODING 12474
SWIDTH 1000 0
DWIDTH 8 0
BBX 7 7 1 0
BITMAP
02
7C
10
10
10
6C
84
ENDCHAR
STARTCHAR 30BB
ENCODING 12475
SWIDTH 1000 0
DWIDTH 8 0
BBX 6 5 1 1
BITMAP
44
F8
40
40
3C
ENDCHAR
STARTCHAR 30BC
ENCODING 12476
SWIDTH 1000 0
DWIDTH 8 0
BBX 7 7 1 0
BITMAP
02
04
44
F8
40
40
3C
ENDCHAR
STARTCHAR 30BD
ENCODING 12477
SWIDTH 1000 0
DWIDTH 8 0
BBX 5 6 2 -1
BITMAP
08
90
10
20
20
C0
ENDCHAR
STARTCHAR 30BE
ENCODING 12478
SWIDTH 1000 0
DWIDTH 8 0
BBX 7 7 1 -1
BITMAP
02
0C
C8
50
10
20
40
ENDCHAR
STARTCHAR 30BF
ENCODING 12479
SWIDTH 1000 0
DWIDTH 8 0
BBX 5 6 2 0
BITMAP
40
78
D0
20
50
80
ENDCHAR
STARTCHAR 30C0
ENCODING 12480
SWIDTH 1000 0
DWIDTH 8 0
BBX 6 7 2 -1
BITMAP
04
48
B0
A0
20
50
80
ENDCHAR
STARTCHAR 30C1
ENCODING 12481
SWIDTH 1000 0
DWIDTH 8 0
BBX 6 6 1 0
BITMAP
18
20
FC
20
20
40
ENDCHAR
STARTCHAR 30C2
ENCODING 12482
SWIDTH 1000 0
DWIDTH 8 0
BBX 7 7 1 -1
BITMAP
02
0C
30
FC
20
20
40
ENDCHAR
STARTCHAR 30C3
ENCODING 12483
SWIDTH 1000 0
DWIDTH 8 0
BBX 4 4 2 0
BITMAP
50
90
20
40
ENDCHAR
STARTCHAR 30C4
ENCODING 12484
SWIDTH 1000 0
DWIDTH 8 0
BBX 6 6 1 -1
BITMAP
04
A4
08
08
10
60
ENDCHAR
STARTCHAR 30C5
ENCODING 12485
SWIDTH 1000 0
DWIDTH 8 0
BBX 7 7 1 0
BITMAP
02
04
A4
08
08
10
20
ENDCHAR
STARTCHAR 30C6
ENCODING 12486
SWIDTH 1000 0
DWIDTH 8 0
BBX 5 6 1 -1
BITMAP
78
00
F8
20
20
40
ENDCHAR
STARTCHAR 30C7
ENCODING 12487
SWIDTH 1000 0
DWIDTH 8 0
BBX 7 7 1 -1
BITMAP
02
7C
00
F8
20
20
40
ENDCHAR
STARTCHAR 30C8
ENCODING 12488
SWIDTH 1000 0
DWIDTH 8 0
BBX 4 4 3 2
BITMAP
80
40
B0
80
ENDCHAR
STARTCHAR 30C9
ENCODING 12489
SWIDTH 1000 0
DWIDTH 8 0
BBX 4 5 3 1
BITMAP
10
80
40
B0
80
ENDCHAR
STARTCHAR 30CA
ENCODING 12490
SWIDTH 1000 0
DWIDTH 8 0
BBX 5 6 1 0
BITMAP
10
10
F8
20
20
40
ENDCHAR
STARTCHAR 30CB
ENCODING 12491
SWIDTH 1000 0
DWIDTH 8 0
BBX 6 4 1 1
BITMAP
78
00
00
FC
ENDCHAR
STARTCHAR 30CC
ENCODING 12492
SWIDTH 1000 0
DWIDTH 8 0
BBX 4 6 2 0
BITMAP
F0
20
60
20
50
80
ENDCHAR
STARTCHAR 30CD
ENCODING 12493
SWIDTH 1000 0
DWIDTH 8 0
BBX 6 5 1 1
BITMAP
30
78
10
28
E4
ENDCHAR
STARTCHAR 30CE
ENCODING 12494
SWIDTH 1000 0
DWIDTH 8 0
BBX 5 6 1 0
BITMAP
08
08
10
20
20
C0
ENDCHAR
STARTCHAR 30CF
ENCODING 12495
SWIDTH 1000 0
DWIDTH 8 0
BBX 7 4 0 0
BITMAP
20
24
42
82
ENDCHAR
STARTCHAR 30D0
ENCODING 12496
SWIDTH 1000 0
DWIDTH 8 0
BBX 7 4 0 2
BITMAP
22
24
42
82
ENDCHAR
STARTCHAR 30D1
ENCODING 12497
SWIDTH 1000 0
DWIDTH 8 0
BBX 7 5 0 0
BITMAP
06
20
24
42
82
ENDCHAR
STARTCHAR 30D2
ENCODING 12498
SWIDTH 1000 0
DWIDTH 8 0
BBX 5 6 2 0
BITMAP
80
90
A0
C0
80
F8
ENDCHAR
STARTCHAR 30D3
ENCODING 12499
SWIDTH 1000 0
DWIDTH 8 0
BBX 7 7 1 0
BITMAP
04
C6
48
50
A0
80
78
ENDCHAR
STARTCHAR 30D4
ENCODING 12500
SWIDTH 1000 0
DWIDTH 8 0
BBX 6 6 1 0
BITMAP
4C
48
50
A0
80
78
ENDCHAR
STARTCHAR 30D5
ENCODING 12501
SWIDTH 1000 0
DWIDTH 8 0
BBX 5 6 2 0
BITMAP
F8
08
10
20
20
C0
ENDCHAR
STARTCHAR 30D6
ENCODING 12502
SWIDTH 1000 0
DWIDTH 8 0
BBX 7 7 1 -1
BITMAP
02
04
FC
08
08
10
60
ENDCHAR
STARTCHAR 30D7
ENCODING 12503
SWIDTH 1000 0
DWIDTH 8 0
BBX 7 7 1 -1
BITMAP
06
06
FC
08
08
10
60
ENDCHAR
STARTCHAR 30D8
ENCODING 12504
SWIDTH 1000 0
DWIDTH 8 0
BBX 6 4 1 1
BITMAP
20
50
88
04
ENDCHAR
STARTCHAR 30D9
ENCODING 12505
SWIDTH 1000 0
DWIDTH 8 0
BBX 6 5 1 1
BITMAP
04
28
50
88
04
ENDCHAR
STARTCHAR 30DA
ENCODING 12506
SWIDTH 1000 0
DWIDTH 8 0
BBX 6 5 1 1
BITMAP
0C
2C
50
88
04
ENDCHAR
STARTCHAR 30DB
ENCODING 12507
SWIDTH 1000 0
DWIDTH 8 0
BBX 6 6 1 1
BITMAP
30
EC
30
28
A4
20
ENDCHAR
STARTCHAR 30DC
ENCODING 12508
SWIDTH 1000 0
DWIDTH 8 0
BBX 7 6 1 1
BITMAP
16
EC
30
28
A4
20
ENDCHAR
STARTCHAR 30DD
ENCODING 12509
SWIDTH 1000 0
DWIDTH 8 0
BBX 7 6 1 1
BITMAP
16
EC
30
20
A4
20
ENDCHAR
STARTCHAR 30DE
ENCODING 12510
SWIDTH 1000 0
DWIDTH 8 0
BBX 6 4 1 2
BITMAP
FC
08
30
10
ENDCHAR
STARTCHAR 30DF
ENCODING 12511
SWIDTH 1000 0
DWIDTH 8 0
BBX 4 6 2 0
BITMAP
60
00
E0
00
C0
30
ENDCHAR
STARTCHAR 30E0
ENCODING 12512
SWIDTH 1000 0
DWIDTH 8 0
BBX 6 6 1 1
BITMAP
20
20
40
48
8C
F4
ENDCHAR
STARTCHAR 30E1
ENCODING 12513
SWIDTH 1000 0
DWIDTH 8 0
BBX 5 6 1 1
BITMAP
08
10
30
30
48
80
ENDCHAR
STARTCHAR 30E2
ENCODING 12514
SWIDTH 1000 0
DWIDTH 8 0
BBX 6 6 1 0
BITMAP
E0
30
EC
30
20
3C
ENDCHAR
STARTCHAR 30E3
ENCODING 12515
SWIDTH 1000 0
DWIDTH 8 0
BBX 5 5 1 0
BITMAP
40
D8
60
20
20
ENDCHAR
STARTCHAR 30E4
ENCODING 12516
SWIDTH 1000 0
DWIDTH 8 0
BBX 6 4 1 2
BITMAP
4C
F0
20
20
ENDCHAR
STARTCHAR 30E5
ENCODING 12517
SWIDTH 1000 0
DWIDTH 8 0
BBX 4 4 2 1
BITMAP
F0
20
E0
10
ENDCHAR
STARTCHAR 30E6
ENCODING 12518
SWIDTH 1000 0
DWIDTH 8 0
BBX 6 4 1 2
BITMAP
78
08
08
FC
ENDCHAR
STARTCHAR 30E7
ENCODING 12519
SWIDTH 1000 0
DWIDTH 8 0
BBX 4 5 2 0
BITMAP
E0
10
F0
10
F0
ENDCHAR
STARTCHAR 30E8
ENCODING 12520
SWIDTH 1000 0
DWIDTH 8 0
BBX 4 5 2 1
BITMAP
F0
10
F0
10
D0
ENDCHAR
STARTCHAR 30E9
ENCODING 12521
SWIDTH 1000 0
DWIDTH 8 0
BBX 5 6 2 -1
BITMAP
F0
00
F8
10
20
40
ENDCHAR
STARTCHAR 30EA
ENCODING 12522
SWIDTH 1000 0
DWIDTH 8 0
BBX 4 6 2 0
BITMAP
90
90
90
90
20
40
ENDCHAR
STARTCHAR 30EB
ENCODING 12523
SWIDTH 1000 0
DWIDTH 8 0
BBX 8 6 0 0
BITMAP
08
28
29
2A
54
88
ENDCHAR
STARTCHAR 30EC
ENCODING 12524
SWIDTH 1000 0
DWIDTH 8 0
BBX 5 6 2 0
BITMAP
80
80
88
90
A0
C0
ENDCHAR
STARTCHAR 30ED
ENCODING 12525
SWIDTH 1000 0
DWIDTH 8 0
BBX 6 5 1 1
BITMAP
7C
88
88
88
F0
ENDCHAR
STARTCHAR 30EE
ENCODING 12526
SWIDTH 1000 0
DWIDTH 8 0
BBX 4 4 2 0
BITMAP
F0
90
20
40
ENDCHAR
STARTCHAR 30EF
ENCODING 12527
SWIDTH 1000 0
DWIDTH 8 0
BBX 6 6 1 -1
BITMAP
8C
F4
08
08
10
20
ENDCHAR
STARTCHAR 30F0
ENCODING 12528
SWIDTH 1000 0
DWIDTH 8 0
BBX 7 5 0 1
BITMAP
08
7C
30
F6
18
ENDCHAR
STARTCHAR 30F1
ENCODING 12529
SWIDTH 1000 0
DWIDTH 8 0
BBX 6 5 1 0
BITMAP
70
08
30
20
FC
ENDCHAR
STARTCHAR 30F2
ENCODING 12530
SWIDTH 1000 0
DWIDTH 8 0
BBX 5 6 2 -1
BITMAP
F8
10
F0
20
20
40
ENDCHAR
STARTCHAR 30F3
ENCODING 12531
SWIDTH 1000 0
DWIDTH 8 0
BBX 5 5 2 1
BITMAP
80
08
10
60
80
ENDCHAR
STARTCHAR 30F4
ENCODING 12532
SWIDTH 1000 0
DWIDTH 8 0
BBX 7 7 1 -1
BITMAP
02
04
7C
88
08
10
20
ENDCHAR
STARTCHAR 30F5
ENCODING 12533
SWIDTH 1000 0
DWIDTH 8 0
BBX 4 5 2 -1
BITMAP
40
D0
70
50
A0
ENDCHAR
STARTCHAR 30F6
ENCODING 12534
SWIDTH 1000 0
DWIDTH 8 0
BBX 5 5 2 -1
BITMAP
40
B8
60
40
40
ENDCHAR
STARTCHAR 30F7
ENCODING 12535
SWIDTH 1000 0
DWIDTH 8 0
BBX 7 7 1 -1
BITMAP
02
04
FC
88
08
10
20
ENDCHAR
STARTCHAR 30F8
ENCODING 12536
SWIDTH 1000 0
DWIDTH 8 0
BBX 7 6 0 0
BITMAP
02
0A
7C
30
F6
18
ENDCHAR
STARTCHAR 30F9
ENCODING 12537
SWIDTH 1000 0
DWIDTH 8 0
BBX 7 7 1 0
BITMAP
02
04
78
30
20
EC
10
ENDCHAR
STARTCHAR 30FA
ENCODING 12538
SWIDTH 1000 0
DWIDTH 8 0
BBX 6 7 2 -1
BITMAP
04
F8
10
F0
20
20
40
ENDCHAR
STARTCHAR 30FB
ENCODING 12539
SWIDTH 1000 0
DWIDTH 8 0
BBX 1 1 3 2
BITMAP
80
ENDCHAR
STARTCHAR 30FC
ENCODING 12540
SWIDTH 1000 0
DWIDTH 8 0
BBX 4 1 1 3
BITMAP
F0
ENDCHAR
STARTCHAR 30FD
ENCODING 12541
SWIDTH 1000 0
DWIDTH 8 0
BBX 2 3 3 2
BITMAP
80
40
40
ENDCHAR
STARTCHAR 30FE
ENCODING 12542
SWIDTH 1000 0
DWIDTH 8 0
BBX 4 5 2 1
BITMAP
10
10
C0
20
20
ENDCHAR
STARTCHAR 30FF
ENCODING 12543
SWIDTH 1000 0
DWIDTH 8 0
BBX 5 5 1 0
BITMAP
F8
08
08
08
08
ENDCHAR
STARTCHAR 31F0
ENCODING 12784
SWIDTH 1000 0
DWIDTH 8 0
BBX 4 5 2 -1
BITMAP
40
70
A0
20
C0
ENDCHAR
STARTCHAR 31F1
ENCODING 12785
SWIDTH 1000 0
DWIDTH 8 0
BBX 5 4 2 1
BITMAP
48
90
20
C0
ENDCHAR
STARTCHAR 31F2
ENCODING 12786
SWIDTH 1000 0
DWIDTH 8 0
BBX 4 5 2 -1
BITMAP
E0
20
20
60
90
ENDCHAR
STARTCHAR 31F3
ENCODING 12787
SWIDTH 1000 0
DWIDTH 8 0
BBX 3 3 3 1
BITMAP
80
E0
80
ENDCHAR
STARTCHAR 31F4
ENCODING 12788
SWIDTH 1000 0
DWIDTH 8 0
BBX 4 5 2 -1
BITMAP
F0
20
60
50
80
ENDCHAR
STARTCHAR 31F5
ENCODING 12789
SWIDTH 1000 0
DWIDTH 8 0
BBX 6 4 1 0
BITMAP
10
28
44
80
ENDCHAR
STARTCHAR 31F6
ENCODING 12790
SWIDTH 1000 0
DWIDTH 8 0
BBX 5 5 1 0
BITMAP
40
50
E0
80
78
ENDCHAR
STARTCHAR 31F7
ENCODING 12791
SWIDTH 1000 0
DWIDTH 8 0
BBX 4 4 2 0
BITMAP
F0
20
20
40
ENDCHAR
STARTCHAR 31F8
ENCODING 12792
SWIDTH 1000 0
DWIDTH 8 0
BBX 6 3 1 1
BITMAP
20
58
84
ENDCHAR
STARTCHAR 31F9
ENCODING 12793
SWIDTH 1000 0
DWIDTH 8 0
BBX 5 4 2 1
BITMAP
D0
60
C8
C0
ENDCHAR
STARTCHAR 31FA
ENCODING 12794
SWIDTH 1000 0
DWIDTH 8 0
BBX 4 5 2 0
BITMAP
40
40
80
90
E0
ENDCHAR
STARTCHAR 31FB
ENCODING 12795
SWIDTH 1000 0
DWIDTH 8 0
BBX 4 5 2 -1
BITMAP
E0
E0
10
20
40
ENDCHAR
STARTCHAR 31FC
ENCODING 12796
SWIDTH 1000 0
DWIDTH 8 0
BBX 4 5 2 -1
BITMAP
90
90
90
10
20
ENDCHAR
STARTCHAR 31FD
ENCODING 12797
SWIDTH 1000 0
DWIDTH 8 0
BBX 5 4 2 0
BITMAP
20
A8
D0
20
ENDCHAR
STARTCHAR 31FE
ENCODING 12798
SWIDTH 1000 0
DWIDTH 8 0
BBX 4 3 2 2
BITMAP
80
B0
C0
ENDCHAR
STARTCHAR 31FF
ENCODING 12799
SWIDTH 1000 0
DWIDTH 8 0
BBX 4 4 2 1
BITMAP
F0
90
90
E0
ENDCHAR
STARTCHAR 3220
ENCODING 12832
SWIDTH 1000 0
DWIDTH 8 0
BBX 8 6 0 0
BITMAP
81
81
81
FF
81
81
ENDCHAR
STARTCHAR 3221
ENCODING 12833
SWIDTH 1000 0
DWIDTH 8 0
BBX 8 6 0 0
BITMAP
85
BD
81
81
FF
81
ENDCHAR
STARTCHAR 3222
ENCODING 12834
SWIDTH 1000 0
DWIDTH 8 0
BBX 8 6 0 0
BITMAP
81
BD
81
BD
BF
81
ENDCHAR
STARTCHAR 3223
ENCODING 12835
SWIDTH 1000 0
DWIDTH 8 0
BBX 6 8 1 -1
BITMAP
84
8C
FC
FC
CC
FC
CC
84
ENDCHAR
STARTCHAR 3224
ENCODING 12836
SWIDTH 1000 0
DWIDTH 8 0
BBX 8 6 -1 0
BITMAP
83
BF
91
BD
A5
FF
ENDCHAR
STARTCHAR 3225
ENCODING 12837
SWIDTH 1000 0
DWIDTH 8 0
BBX 7 8 1 -1
BITMAP
82
92
92
FE
82
82
86
82
ENDCHAR
STARTCHAR 3226
ENCODING 12838
SWIDTH 1000 0
DWIDTH 8 0
BBX 7 8 1 -1
BITMAP
80
A2
A2
FA
A2
A2
BA
80
ENDCHAR
STARTCHAR 3227
ENCODING 12839
SWIDTH 1000 0
DWIDTH 8 0
BBX 8 6 0 0
BITMAP
99
89
89
A9
A5
85
ENDCHAR
STARTCHAR 3228
ENCODING 12840
SWIDTH 1000 0
DWIDTH 8 0
BBX 7 8 0 -1
BITMAP
02
92
92
FA
9A
9A
AE
02
ENDCHAR
STARTCHAR 3229
ENCODING 12841
SWIDTH 1000 0
DWIDTH 8 0
BBX 7 8 1 -1
BITMAP
82
92
92
92
FE
92
92
82
ENDCHAR
STARTCHAR 322A
ENCODING 12842
SWIDTH 1000 0
DWIDTH 8 0
BBX 8 6 0 0
BITMAP
BD
A5
BD
BD
A5
CD
ENDCHAR
STARTCHAR 322B
ENCODING 12843
SWIDTH 1000 0
DWIDTH 8 0
BBX 7 8 1 -1
BITMAP
82
92
96
D2
DA
AA
C6
82
ENDCHAR
STARTCHAR 322C
ENCODING 12844
SWIDTH 1000 0
DWIDTH 8 0
BBX 7 8 1 -1
BITMAP
82
92
92
F6
DA
D2
92
82
ENDCHAR
STARTCHAR 322D
ENCODING 12845
SWIDTH 1000 0
DWIDTH 8 0
BBX 7 8 1 -1
BITMAP
82
92
92
FE
92
BE
92
82
ENDCHAR
STARTCHAR 322E
ENCODING 12846
SWIDTH 1000 0
DWIDTH 8 0
BBX 7 8 1 -1
BITMAP
92
B2
AA
FE
FE
92
FE
82
ENDCHAR
STARTCHAR 322F
ENCODING 12847
SWIDTH 1000 0
DWIDTH 8 0
BBX 7 8 1 -1
BITMAP
82
92
92
FE
92
92
FE
82
ENDCHAR
STARTCHAR 3230
ENCODING 12848
SWIDTH 1000 0
DWIDTH 8 0
BBX 8 6 0 0
BITMAP
BD
A5
A5
BD
BD
A5
ENDCHAR
STARTCHAR 3231
ENCODING 12849
SWIDTH 1000 0
DWIDTH 8 0
BBX 7 8 0 -1
BITMAP
02
AA
FE
BA
BE
EE
AA
02
ENDCHAR
STARTCHAR 3232
ENCODING 12850
SWIDTH 1000 0
DWIDTH 8 0
BBX 7 8 1 -1
BITMAP
80
A6
FE
BA
FA
AA
BA
80
ENDCHAR
STARTCHAR 3233
ENCODING 12851
SWIDTH 1000 0
DWIDTH 8 0
BBX 8 6 0 0
BITMAP
A9
F9
9D
B9
A9
BF
ENDCHAR
STARTCHAR 3234
ENCODING 12852
SWIDTH 1000 0
DWIDTH 8 0
BBX 7 8 1 -1
BITMAP
84
A4
B2
F2
BA
EA
BC
84
ENDCHAR
STARTCHAR 3235
ENCODING 12853
SWIDTH 1000 0
DWIDTH 8 0
BBX 8 6 0 0
BITMAP
E9
FF
BF
BF
E5
A5
ENDCHAR
STARTCHAR 3236
ENCODING 12854
SWIDTH 1000 0
DWIDTH 8 0
BBX 7 8 1 -1
BITMAP
80
EA
EA
FE
EA
EA
EA
80
ENDCHAR
STARTCHAR 3237
ENCODING 12855
SWIDTH 1000 0
DWIDTH 8 0
BBX 7 8 0 -1
BITMAP
22
AE
FE
9E
AA
A6
AE
02
ENDCHAR
STARTCHAR 3238
ENCODING 12856
SWIDTH 1000 0
DWIDTH 8 0
BBX 7 6 1 0
BITMAP
DA
BA
FE
FE
AA
AA
ENDCHAR
STARTCHAR 3239
ENCODING 12857
SWIDTH 1000 0
DWIDTH 8 0
BBX 8 7 0 -1
BITMAP
10
AB
AB
AD
A9
A5
A3
ENDCHAR
STARTCHAR 323A
ENCODING 12858
SWIDTH 1000 0
DWIDTH 8 0
BBX 6 8 1 -1
BITMAP
84
AC
F4
F4
FC
F4
94
84
ENDCHAR
STARTCHAR 323B
ENCODING 12859
SWIDTH 1000 0
DWIDTH 8 0
BBX 7 8 1 -1
BITMAP
82
9A
FE
BA
92
FE
92
82
ENDCHAR
STARTCHAR 323C
ENCODING 12860
SWIDTH 1000 0
DWIDTH 8 0
BBX 7 8 1 -1
BITMAP
80
E2
FE
F2
EE
FA
FE
80
ENDCHAR
STARTCHAR 323D
ENCODING 12861
SWIDTH 1000 0
DWIDTH 8 0
BBX 8 8 0 -1
BITMAP
01
99
AF
89
AF
A9
FF
01
ENDCHAR
STARTCHAR 323E
ENCODING 12862
SWIDTH 1000 0
DWIDTH 8 0
BBX 8 6 0 0
BITMAP
AF
8D
D7
BD
BD
A5
ENDCHAR
STARTCHAR 323F
ENCODING 12863
SWIDTH 1000 0
DWIDTH 8 0
BBX 7 8 1 -1
BITMAP
80
C2
FE
DA
EA
FE
EE
80
ENDCHAR
STARTCHAR 3240
ENCODING 12864
SWIDTH 1000 0
DWIDTH 8 0
BBX 7 8 1 -1
BITMAP
82
82
FE
AA
FE
FE
D6
82
ENDCHAR
STARTCHAR 3241
ENCODING 12865
SWIDTH 1000 0
DWIDTH 8 0
BBX 8 6 0 0
BITMAP
89
A9
BF
A9
AD
A9
ENDCHAR
STARTCHAR 3242
ENCODING 12866
SWIDTH 1000 0
DWIDTH 8 0
BBX 8 6 0 0
BITMAP
91
BD
BD
A5
BD
A5
ENDCHAR
STARTCHAR 3243
ENCODING 12867
SWIDTH 1000 0
DWIDTH 8 0
BBX 7 8 1 -1
BITMAP
82
FE
AA
FE
92
FE
FE
82
ENDCHAR
STARTCHAR 3251
ENCODING 12881
SWIDTH 1000 0
DWIDTH 8 0
BBX 7 8 1 0
BITMAP
38
C4
EE
AA
CA
CA
6C
38
ENDCHAR
STARTCHAR 3252
ENCODING 12882
SWIDTH 1000 0
DWIDTH 8 0
BBX 6 8 1 0
BITMAP
30
C8
FC
AC
D4
D4
78
30
ENDCHAR
STARTCHAR 3253
ENCODING 12883
SWIDTH 1000 0
DWIDTH 8 0
BBX 7 6 1 0
BITMAP
FC
FE
A6
CA
7C
38
ENDCHAR
STARTCHAR 3254
ENCODING 12884
SWIDTH 1000 0
DWIDTH 8 0
BBX 7 6 1 0
BITMAP
78
EE
AA
FA
7C
38
ENDCHAR
STARTCHAR 3255
ENCODING 12885
SWIDTH 1000 0
DWIDTH 8 0
BBX 7 6 1 0
BITMAP
7C
EE
B2
CE
7C
38
ENDCHAR
STARTCHAR 3256
ENCODING 12886
SWIDTH 1000 0
DWIDTH 8 0
BBX 7 8 1 0
BITMAP
38
C4
EE
B2
DE
D6
6C
38
ENDCHAR
STARTCHAR 3257
ENCODING 12887
SWIDTH 1000 0
DWIDTH 8 0
BBX 6 6 1 0
BITMAP
78
FC
A4
DC
E4
78
ENDCHAR
STARTCHAR 3258
ENCODING 12888
SWIDTH 1000 0
DWIDTH 8 0
BBX 7 8 1 0
BITMAP
38
C4
EE
AE
D6
D6
7C
38
ENDCHAR
STARTCHAR 3259
ENCODING 12889
SWIDTH 1000 0
DWIDTH 8 0
BBX 7 8 1 0
BITMAP
38
C4
FE
B6
DE
D6
7C
38
ENDCHAR
STARTCHAR 325A
ENCODING 12890
SWIDTH 1000 0
DWIDTH 8 0
BBX 7 8 0 -2
BITMAP
7C
7E
9E
AE
9E
FE
44
38
ENDCHAR
STARTCHAR 325B
ENCODING 12891
SWIDTH 1000 0
DWIDTH 8 0
BBX 8 6 0 0
BITMAP
7E
F7
95
A5
76
3C
ENDCHAR
STARTCHAR 325C
ENCODING 12892
SWIDTH 1000 0
DWIDTH 8 0
BBX 7 6 0 0
BITMAP
7C
FE
96
AA
7C
38
ENDCHAR
STARTCHAR 325D
ENCODING 12893
SWIDTH 1000 0
DWIDTH 8 0
BBX 8 8 0 -2
BITMAP
7C
7E
93
A5
93
FF
42
3C
ENDCHAR
STARTCHAR 325E
ENCODING 12894
SWIDTH 1000 0
DWIDTH 8 0
BBX 7 6 0 0
BITMAP
3C
F6
96
BE
BC
78
ENDCHAR
STARTCHAR 325F
ENCODING 12895
SWIDTH 1000 0
DWIDTH 8 0
BBX 7 8 0 -2
BITMAP
3C
6E
DA
AE
96
FE
44
38
ENDCHAR
STARTCHAR 3280
ENCODING 12928
SWIDTH 1000 0
DWIDTH 8 0
BBX 8 8 0 -2
BITMAP
3C
C2
81
FF
81
81
42
3C
ENDCHAR
STARTCHAR 3281
ENCODING 12929
SWIDTH 1000 0
DWIDTH 8 0
BBX 8 8 0 -1
BITMAP
3C
46
BF
81
81
FD
42
3C
ENDCHAR
STARTCHAR 3282
ENCODING 12930
SWIDTH 1000 0
DWIDTH 8 0
BBX 8 8 0 -1
BITMAP
38
46
BD
81
BD
BD
42
3C
ENDCHAR
STARTCHAR 3283
ENCODING 12931
SWIDTH 1000 0
DWIDTH 8 0
BBX 6 7 1 0
BITMAP
30
48
FC
FC
DC
F8
78
ENDCHAR
STARTCHAR 3284
ENCODING 12932
SWIDTH 1000 0
DWIDTH 8 0
BBX 8 7 -1 0
BITMAP
1C
62
BF
91
BD
7E
3C
ENDCHAR
STARTCHAR 3285
ENCODING 12933
SWIDTH 1000 0
DWIDTH 8 0
BBX 7 8 1 -2
BITMAP
7C
96
FE
82
E2
C6
84
78
ENDCHAR
STARTCHAR 3286
ENCODING 12934
SWIDTH 1000 0
DWIDTH 8 0
BBX 7 8 1 -1
BITMAP
38
E4
A2
FA
A2
3A
84
78
ENDCHAR
STARTCHAR 3287
ENCODING 12935
SWIDTH 1000 0
DWIDTH 8 0
BBX 8 8 0 -2
BITMAP
3C
5E
89
89
A9
85
42
3C
ENDCHAR
STARTCHAR 3288
ENCODING 12936
SWIDTH 1000 0
DWIDTH 8 0
BBX 7 8 0 -2
BITMAP
3C
D6
FA
9A
9A
AE
44
38
ENDCHAR
STARTCHAR 3289
ENCODING 12937
SWIDTH 1000 0
DWIDTH 8 0
BBX 7 7 1 -1
BITMAP
7C
96
92
FE
92
94
78
ENDCHAR
STARTCHAR 328A
ENCODING 12938
SWIDTH 1000 0
DWIDTH 8 0
BBX 8 7 0 -1
BITMAP
7E
BE
BD
BD
A5
8E
7C
ENDCHAR
STARTCHAR 328B
ENCODING 12939
SWIDTH 1000 0
DWIDTH 8 0
BBX 7 8 1 -1
BITMAP
38
D4
96
D2
9A
26
84
78
ENDCHAR
STARTCHAR 328C
ENCODING 12940
SWIDTH 1000 0
DWIDTH 8 0
BBX 7 8 1 -2
BITMAP
FC
96
F6
DA
DA
12
84
78
ENDCHAR
STARTCHAR 328D
ENCODING 12941
SWIDTH 1000 0
DWIDTH 8 0
BBX 7 7 1 -1
BITMAP
FC
96
FE
92
BE
94
78
ENDCHAR
STARTCHAR 328E
ENCODING 12942
SWIDTH 1000 0
DWIDTH 8 0
BBX 7 7 1 0
BITMAP
38
D4
AA
FE
FE
7C
3C
ENDCHAR
STARTCHAR 328F
ENCODING 12943
SWIDTH 1000 0
DWIDTH 8 0
BBX 7 8 1 -1
BITMAP
38
D4
92
FE
92
FE
44
38
ENDCHAR
STARTCHAR 3290
ENCODING 12944
SWIDTH 1000 0
DWIDTH 8 0
BBX 8 6 0 0
BITMAP
7E
BF
A5
BD
7E
3C
ENDCHAR
STARTCHAR 3291
ENCODING 12945
SWIDTH 1000 0
DWIDTH 8 0
BBX 7 7 0 -1
BITMAP
3C
EE
FE
BE
AE
AC
78
ENDCHAR
STARTCHAR 3292
ENCODING 12946
SWIDTH 1000 0
DWIDTH 8 0
BBX 7 8 1 -1
BITMAP
38
C4
FE
9A
BA
BA
AC
78
ENDCHAR
STARTCHAR 3293
ENCODING 12947
SWIDTH 1000 0
DWIDTH 8 0
BBX 8 8 0 -1
BITMAP
3C
EE
FB
9D
A9
BD
62
3C
ENDCHAR
STARTCHAR 3294
ENCODING 12948
SWIDTH 1000 0
DWIDTH 8 0
BBX 7 7 1 0
BITMAP
30
CC
B2
F2
BA
FC
78
ENDCHAR
STARTCHAR 3295
ENCODING 12949
SWIDTH 1000 0
DWIDTH 8 0
BBX 8 8 0 -1
BITMAP
3C
6E
FF
FD
BF
E5
AE
7C
ENDCHAR
STARTCHAR 3296
ENCODING 12950
SWIDTH 1000 0
DWIDTH 8 0
BBX 8 6 0 0
BITMAP
3E
F7
BF
B5
96
7C
ENDCHAR
STARTCHAR 3297
ENCODING 12951
SWIDTH 1000 0
DWIDTH 8 0
BBX 8 7 0 -1
BITMAP
7C
EE
9D
A9
A9
6E
3C
ENDCHAR
STARTCHAR 3298
ENCODING 12952
SWIDTH 1000 0
DWIDTH 8 0
BBX 7 8 1 -1
BITMAP
38
44
BE
FE
FE
AA
A4
78
ENDCHAR
STARTCHAR 3299
ENCODING 12953
SWIDTH 1000 0
DWIDTH 8 0
BBX 8 7 0 0
BITMAP
38
46
A5
FD
AB
AE
7C
ENDCHAR
STARTCHAR 329A
ENCODING 12954
SWIDTH 1000 0
DWIDTH 8 0
BBX 8 8 0 -2
BITMAP
7C
7E
BD
9D
B5
95
66
3C
ENDCHAR
STARTCHAR 329B
ENCODING 12955
SWIDTH 1000 0
DWIDTH 8 0
BBX 8 8 0 -2
BITMAP
3C
56
FF
A9
A9
95
42
3C
ENDCHAR
STARTCHAR 329C
ENCODING 12956
SWIDTH 1000 0
DWIDTH 8 0
BBX 7 7 0 0
BITMAP
38
44
BE
9E
F6
BC
78
ENDCHAR
STARTCHAR 329D
ENCODING 12957
SWIDTH 1000 0
DWIDTH 8 0
BBX 8 6 0 0
BITMAP
3E
5F
BD
AF
AE
7C
ENDCHAR
STARTCHAR 329E
ENCODING 12958
SWIDTH 1000 0
DWIDTH 8 0
BBX 6 8 1 -1
BITMAP
30
48
FC
FC
FC
54
98
70
ENDCHAR
STARTCHAR 329F
ENCODING 12959
SWIDTH 1000 0
DWIDTH 8 0
BBX 8 6 0 0
BITMAP
7E
8B
DF
DD
7E
3C
ENDCHAR
STARTCHAR 32A0
ENCODING 12960
SWIDTH 1000 0
DWIDTH 8 0
BBX 8 6 0 0
BITMAP
3C
FF
BD
FD
46
3C
ENDCHAR
STARTCHAR 32A1
ENCODING 12961
SWIDTH 1000 0
DWIDTH 8 0
BBX 8 7 0 -1
BITMAP
7E
AA
BF
A9
AD
AA
7C
ENDCHAR
STARTCHAR 32A2
ENCODING 12962
SWIDTH 1000 0
DWIDTH 8 0
BBX 8 7 0 0
BITMAP
18
66
FD
9D
FF
8A
7C
ENDCHAR
STARTCHAR 32A3
ENCODING 12963
SWIDTH 1000 0
DWIDTH 8 0
BBX 8 7 0 0
BITMAP
3C
46
FF
89
AF
7E
3E
ENDCHAR
STARTCHAR 32A4
ENCODING 12964
SWIDTH 1000 0
DWIDTH 8 0
BBX 8 8 1 -1
BITMAP
3C
D6
93
9D
91
FD
42
3C
ENDCHAR
STARTCHAR 32A5
ENCODING 12965
SWIDTH 1000 0
DWIDTH 8 0
BBX 6 7 1 -1
BITMAP
78
9C
FC
DC
B4
98
70
ENDCHAR
STARTCHAR 32A6
ENCODING 12966
SWIDTH 1000 0
DWIDTH 8 0
BBX 8 8 1 -1
BITMAP
38
C6
FF
91
9D
91
92
7C
ENDCHAR
STARTCHAR 32A7
ENCODING 12967
SWIDTH 1000 0
DWIDTH 8 0
BBX 8 7 0 0
BITMAP
3C
52
BF
A1
BF
7E
3C
ENDCHAR
STARTCHAR 32A8
ENCODING 12968
SWIDTH 1000 0
DWIDTH 8 0
BBX 7 7 1 0
BITMAP
78
84
FE
A2
FA
BC
78
ENDCHAR
STARTCHAR 32A9
ENCODING 12969
SWIDTH 1000 0
DWIDTH 8 0
BBX 7 6 1 0
BITMAP
7C
FE
FA
FE
7C
38
ENDCHAR
STARTCHAR 32AA
ENCODING 12970
SWIDTH 1000 0
DWIDTH 8 0
BBX 7 8 1 -1
BITMAP
38
D4
FE
BA
FE
92
D4
7C
ENDCHAR
STARTCHAR 32AB
ENCODING 12971
SWIDTH 1000 0
DWIDTH 8 0
BBX 7 8 1 -2
BITMAP
FC
96
FE
92
FE
12
94
78
ENDCHAR
STARTCHAR 32AC
ENCODING 12972
SWIDTH 1000 0
DWIDTH 8 0
BBX 7 6 1 0
BITMAP
7C
FE
F2
BE
7C
38
ENDCHAR
STARTCHAR 32AD
ENCODING 12973
SWIDTH 1000 0
DWIDTH 8 0
BBX 8 7 0 0
BITMAP
3C
D6
AD
CB
AF
7E
3E
ENDCHAR
STARTCHAR 32AE
ENCODING 12974
SWIDTH 1000 0
DWIDTH 8 0
BBX 8 8 0 -1
BITMAP
38
46
AF
89
BD
BD
66
3C
ENDCHAR
STARTCHAR 32AF
ENCODING 12975
SWIDTH 1000 0
DWIDTH 8 0
BBX 8 7 0 0
BITMAP
3C
6A
BF
ED
BF
B6
7C
ENDCHAR
STARTCHAR 32B0
ENCODING 12976
SWIDTH 1000 0
DWIDTH 8 0
BBX 8 8 0 -1
BITMAP
3C
4E
FF
87
BF
AD
6A
3C
ENDCHAR
STARTCHAR 32B1
ENCODING 12977
SWIDTH 1000 0
DWIDTH 8 0
BBX 7 8 0 -2
BITMAP
7C
7E
9A
AE
9E
FE
44
38
ENDCHAR
STARTCHAR 32B2
ENCODING 12978
SWIDTH 1000 0
DWIDTH 8 0
BBX 7 8 0 -2
BITMAP
3C
7C
D2
A6
9A
F2
44
38
ENDCHAR
STARTCHAR 32B3
ENCODING 12979
SWIDTH 1000 0
DWIDTH 8 0
BBX 7 8 0 -2
BITMAP
7C
7E
9E
A6
9E
FE
44
38
ENDCHAR
STARTCHAR 32B4
ENCODING 12980
SWIDTH 1000 0
DWIDTH 8 0
BBX 7 8 0 -2
BITMAP
7C
7E
9E
AE
9E
FE
44
38
ENDCHAR
STARTCHAR 32B5
ENCODING 12981
SWIDTH 1000 0
DWIDTH 8 0
BBX 8 6 0 0
BITMAP
3E
D7
F7
D7
76
3C
ENDCHAR
STARTCHAR 32B6
ENCODING 12982
SWIDTH 1000 0
DWIDTH 8 0
BBX 8 6 0 0
BITMAP
3E
D7
F5
D5
76
3C
ENDCHAR
STARTCHAR 32B7
ENCODING 12983
SWIDTH 1000 0
DWIDTH 8 0
BBX 7 6 0 0
BITMAP
7C
9E
F6
DA
7C
38
ENDCHAR
STARTCHAR 32B8
ENCODING 12984
SWIDTH 1000 0
DWIDTH 8 0
BBX 8 6 0 0
BITMAP
7C
9F
F3
D5
76
3C
ENDCHAR
STARTCHAR 32B9
ENCODING 12985
SWIDTH 1000 0
DWIDTH 8 0
BBX 8 6 0 0
BITMAP
7C
57
F5
DD
7E
3C
ENDCHAR
STARTCHAR 32BA
ENCODING 12986
SWIDTH 1000 0
DWIDTH 8 0
BBX 8 6 0 0
BITMAP
7E
97
B9
D7
76
3C
ENDCHAR
STARTCHAR 32BB
ENCODING 12987
SWIDTH 1000 0
DWIDTH 8 0
BBX 8 6 0 0
BITMAP
7E
97
F9
DF
7E
3C
ENDCHAR
STARTCHAR 32BC
ENCODING 12988
SWIDTH 1000 0
DWIDTH 8 0
BBX 7 6 0 0
BITMAP
3C
DE
B2
DE
74
3C
ENDCHAR
STARTCHAR 32BD
ENCODING 12989
SWIDTH 1000 0
DWIDTH 8 0
BBX 8 6 0 0
BITMAP
7E
97
F7
DB
7E
3C
ENDCHAR
STARTCHAR 32BE
ENCODING 12990
SWIDTH 1000 0
DWIDTH 8 0
BBX 8 6 0 0
BITMAP
3E
DF
FB
DF
76
3C
ENDCHAR
STARTCHAR 32BF
ENCODING 12991
SWIDTH 1000 0
DWIDTH 8 0
BBX 8 8 0 -2
BITMAP
3C
FE
CD
BD
9D
BD
42
3C
ENDCHAR
STARTCHAR 32D0
ENCODING 13008
SWIDTH 1000 0
DWIDTH 8 0
BBX 8 8 0 -1
BITMAP
38
46
BD
89
91
91
42
3C
ENDCHAR
STARTCHAR 32D1
ENCODING 13009
SWIDTH 1000 0
DWIDTH 8 0
BBX 7 8 0 -1
BITMAP
38
44
8A
B2
92
92
44
38
ENDCHAR
STARTCHAR 32D2
ENCODING 13010
SWIDTH 1000 0
DWIDTH 8 0
BBX 8 8 0 -1
BITMAP
38
46
B5
AD
A9
89
52
3C
ENDCHAR
STARTCHAR 32D3
ENCODING 13011
SWIDTH 1000 0
DWIDTH 8 0
BBX 8 8 0 -1
BITMAP
38
46
BD
91
91
AD
42
3C
ENDCHAR
STARTCHAR 32D4
ENCODING 13012
SWIDTH 1000 0
DWIDTH 8 0
BBX 8 8 0 -1
BITMAP
38
4E
BB
9D
99
A9
4A
3C
ENDCHAR
STARTCHAR 32D5
ENCODING 13013
SWIDTH 1000 0
DWIDTH 8 0
BBX 8 8 0 -1
BITMAP
38
56
B5
9D
95
A9
42
3C
ENDCHAR
STARTCHAR 32D6
ENCODING 13014
SWIDTH 1000 0
DWIDTH 8 0
BBX 8 8 0 -1
BITMAP
38
56
B5
99
BD
89
4A
3C
ENDCHAR
STARTCHAR 32D7
ENCODING 13015
SWIDTH 1000 0
DWIDTH 8 0
BBX 8 8 0 -1
BITMAP
38
46
9D
A9
89
91
42
3C
ENDCHAR
STARTCHAR 32D8
ENCODING 13016
SWIDTH 1000 0
DWIDTH 8 0
BBX 8 8 0 -1
BITMAP
38
46
91
AD
89
91
42
3C
ENDCHAR
STARTCHAR 32D9
ENCODING 13017
SWIDTH 1000 0
DWIDTH 8 0
BBX 8 8 0 -1
BITMAP
38
46
BD
85
85
BD
42
3C
ENDCHAR
STARTCHAR 32DA
ENCODING 13018
SWIDTH 1000 0
DWIDTH 8 0
BBX 8 8 0 -1
BITMAP
3C
46
89
FD
89
89
52
3C
ENDCHAR
STARTCHAR 32DB
ENCODING 13019
SWIDTH 1000 0
DWIDTH 8 0
BBX 8 8 0 -1
BITMAP
38
46
91
A5
8D
B1
42
3C
ENDCHAR
STARTCHAR 32DC
ENCODING 13020
SWIDTH 1000 0
DWIDTH 8 0
BBX 8 8 0 -1
BITMAP
38
7E
85
89
99
A5
42
3C
ENDCHAR
STARTCHAR 32DD
ENCODING 13021
SWIDTH 1000 0
DWIDTH 8 0
BBX 8 8 0 -1
BITMAP
38
46
81
FD
A9
99
42
3C
ENDCHAR
STARTCHAR 32DE
ENCODING 13022
SWIDTH 1000 0
DWIDTH 8 0
BBX 8 8 0 -1
BITMAP
38
46
A5
85
89
91
42
3C
ENDCHAR
STARTCHAR 32DF
ENCODING 13023
SWIDTH 1000 0
DWIDTH 8 0
BBX 8 8 0 -1
BITMAP
38
56
9D
A9
89
95
42
3C
ENDCHAR
STARTCHAR 32E0
ENCODING 13024
SWIDTH 1000 0
DWIDTH 8 0
BBX 8 8 0 -1
BITMAP
38
46
B9
BF
91
91
62
3C
ENDCHAR
STARTCHAR 32E1
ENCODING 13025
SWIDTH 1000 0
DWIDTH 8 0
BBX 8 8 0 -1
BITMAP
38
46
95
A5
89
91
42
3C
ENDCHAR
STARTCHAR 32E2
ENCODING 13026
SWIDTH 1000 0
DWIDTH 8 0
BBX 8 8 0 -1
BITMAP
38
5E
81
BF
91
91
42
3C
ENDCHAR
STARTCHAR 32E3
ENCODING 13027
SWIDTH 1000 0
DWIDTH 8 0
BBX 7 8 1 -1
BITMAP
38
E4
A2
92
AA
22
84
78
ENDCHAR
STARTCHAR 32E4
ENCODING 13028
SWIDTH 1000 0
DWIDTH 8 0
BBX 8 8 0 -1
BITMAP
38
4E
89
BD
91
91
62
3C
ENDCHAR
STARTCHAR 32E5
ENCODING 13029
SWIDTH 1000 0
DWIDTH 8 0
BBX 8 8 0 -1
BITMAP
38
46
BD
81
B9
85
42
3C
ENDCHAR
STARTCHAR 32E6
ENCODING 13030
SWIDTH 1000 0
DWIDTH 8 0
BBX 8 8 0 -1
BITMAP
38
7E
85
99
99
A5
42
3C
ENDCHAR
STARTCHAR 32E7
ENCODING 13031
SWIDTH 1000 0
DWIDTH 8 0
BBX 8 8 0 -1
BITMAP
38
4E
BD
89
95
F1
42
3C
ENDCHAR
STARTCHAR 32E8
ENCODING 13032
SWIDTH 1000 0
DWIDTH 8 0
BBX 8 8 0 -1
BITMAP
38
46
8D
89
91
A1
42
3C
ENDCHAR
STARTCHAR 32E9
ENCODING 13033
SWIDTH 1000 0
DWIDTH 8 0
BBX 8 8 0 -1
BITMAP
38
46
91
95
A3
81
42
3C
ENDCHAR
STARTCHAR 32EA
ENCODING 13034
SWIDTH 1000 0
DWIDTH 8 0
BBX 8 8 0 -1
BITMAP
38
46
85
A9
B1
99
42
3C
ENDCHAR
STARTCHAR 32EB
ENCODING 13035
SWIDTH 1000 0
DWIDTH 8 0
BBX 8 8 0 -1
BITMAP
38
46
BD
85
89
91
42
3C
ENDCHAR
STARTCHAR 32EC
ENCODING 13036
SWIDTH 1000 0
DWIDTH 8 0
BBX 8 8 0 -1
BITMAP
38
46
91
A9
C5
81
42
3C
ENDCHAR
STARTCHAR 32ED
ENCODING 13037
SWIDTH 1000 0
DWIDTH 8 0
BBX 8 8 0 -1
BITMAP
38
56
B1
99
B5
91
42
3C
ENDCHAR
STARTCHAR 32EE
ENCODING 13038
SWIDTH 1000 0
DWIDTH 8 0
BBX 8 8 0 -1
BITMAP
38
46
BD
85
99
89
42
3C
ENDCHAR
STARTCHAR 32EF
ENCODING 13039
SWIDTH 1000 0
DWIDTH 8 0
BBX 8 8 0 -1
BITMAP
38
46
89
89
81
9D
42
3C
ENDCHAR
STARTCHAR 32F0
ENCODING 13040
SWIDTH 1000 0
DWIDTH 8 0
BBX 8 8 0 -1
BITMAP
38
56
91
A1
A5
B9
42
3C
ENDCHAR
STARTCHAR 32F1
ENCODING 13041
SWIDTH 1000 0
DWIDTH 8 0
BBX 8 8 0 -1
BITMAP
38
46
85
99
95
81
42
3C
ENDCHAR
STARTCHAR 32F2
ENCODING 13042
SWIDTH 1000 0
DWIDTH 8 0
BBX 8 8 0 -1
BITMAP
3C
46
B9
F7
99
99
42
3C
ENDCHAR
STARTCHAR 32F3
ENCODING 13043
SWIDTH 1000 0
DWIDTH 8 0
BBX 8 8 0 -1
BITMAP
38
66
95
BF
91
91
42
3C
ENDCHAR
STARTCHAR 32F4
ENCODING 13044
SWIDTH 1000 0
DWIDTH 8 0
BBX 8 8 0 -1
BITMAP
38
46
BD
89
89
B5
42
3C
ENDCHAR
STARTCHAR 32F5
ENCODING 13045
SWIDTH 1000 0
DWIDTH 8 0
BBX 8 8 0 -1
BITMAP
38
46
BD
BD
89
BD
42
3C
ENDCHAR
STARTCHAR 32F6
ENCODING 13046
SWIDTH 1000 0
DWIDTH 8 0
BBX 8 8 0 -1
BITMAP
38
5E
81
BD
89
89
42
3C
ENDCHAR
STARTCHAR 32F7
ENCODING 13047
SWIDTH 1000 0
DWIDTH 8 0
BBX 7 8 0 -1
BITMAP
38
44
8A
AA
8A
8A
54
38
ENDCHAR
STARTCHAR 32F8
ENCODING 13048
SWIDTH 1000 0
DWIDTH 8 0
BBX 8 8 0 -1
BITMAP
38
46
89
A9
AD
89
42
3C
ENDCHAR
STARTCHAR 32F9
ENCODING 13049
SWIDTH 1000 0
DWIDTH 8 0
BBX 8 8 0 -1
BITMAP
38
46
81
A3
A5
B9
42
3C
ENDCHAR
STARTCHAR 32FA
ENCODING 13050
SWIDTH 1000 0
DWIDTH 8 0
BBX 8 7 0 -1
BITMAP
3C
C2
BD
A5
A5
7A
3C
ENDCHAR
STARTCHAR 32FB
ENCODING 13051
SWIDTH 1000 0
DWIDTH 8 0
BBX 8 8 0 -1
BITMAP
38
46
BD
A5
89
89
42
3C
ENDCHAR
STARTCHAR 32FC
ENCODING 13052
SWIDTH 1000 0
DWIDTH 8 0
BBX 6 8 1 -1
BITMAP
30
C8
EC
B4
FC
A4
88
70
ENDCHAR
STARTCHAR 32FD
ENCODING 13053
SWIDTH 1000 0
DWIDTH 8 0
BBX 8 8 0 -1
BITMAP
38
46
BD
91
91
AD
42
3C
ENDCHAR
STARTCHAR 32FE
ENCODING 13054
SWIDTH 1000 0
DWIDTH 8 0
BBX 8 8 0 -1
BITMAP
38
46
BD
BD
89
89
42
3C
ENDCHAR
STARTCHAR 32FF
ENCODING 13055
SWIDTH 1000 0
DWIDTH 8 0
BBX 7 6 0 0
BITMAP
2A
E6
0E
66
6E
48
ENDCHAR
STARTCHAR 3300
ENCODING 13056
SWIDTH 1000 0
DWIDTH 8 0
BBX 7 7 1 -1
BITMAP
C6
28
52
00
00
E4
08
ENDCHAR
STARTCHAR 3301
ENCODING 13057
SWIDTH 1000 0
DWIDTH 8 0
BBX 6 7 1 -1
BITMAP
C0
60
9C
A4
E8
44
48
ENDCHAR
STARTCHAR 3302
ENCODING 13058
SWIDTH 1000 0
DWIDTH 8 0
BBX 6 7 1 -1
BITMAP
C0
60
88
90
7C
E8
28
ENDCHAR
STARTCHAR 3303
ENCODING 13059
SWIDTH 1000 0
DWIDTH 8 0
BBX 6 7 0 -1
BITMAP
60
3C
40
40
20
60
A0
ENDCHAR
STARTCHAR 3304
ENCODING 13060
SWIDTH 1000 0
DWIDTH 8 0
BBX 7 6 0 0
BITMAP
6C
4C
00
8A
34
C0
ENDCHAR
STARTCHAR 3305
ENCODING 13061
SWIDTH 1000 0
DWIDTH 8 0
BBX 6 7 1 -1
BITMAP
20
48
44
08
20
E0
40
ENDCHAR
STARTCHAR 3306
ENCODING 13062
SWIDTH 1000 0
DWIDTH 8 0
BBX 6 6 1 1
BITMAP
E8
48
44
00
40
80
ENDCHAR
STARTCHAR 3307
ENCODING 13063
SWIDTH 1000 0
DWIDTH 8 0
BBX 8 7 0 -1
BITMAP
44
42
C6
20
61
DA
40
ENDCHAR
STARTCHAR 3308
ENCODING 13064
SWIDTH 1000 0
DWIDTH 8 0
BBX 7 7 0 -1
BITMAP
40
4C
C0
20
C0
6E
60
ENDCHAR
STARTCHAR 3309
ENCODING 13065
SWIDTH 1000 0
DWIDTH 8 0
BBX 6 7 1 0
BITMAP
E0
44
D8
C0
40
20
80
ENDCHAR
STARTCHAR 330A
ENCODING 13066
SWIDTH 1000 0
DWIDTH 8 0
BBX 6 7 1 0
BITMAP
40
FC
40
C0
40
80
A0
ENDCHAR
STARTCHAR 330B
ENCODING 13067
SWIDTH 1000 0
DWIDTH 8 0
BBX 6 7 1 -1
BITMAP
44
E8
B8
40
80
40
40
ENDCHAR
STARTCHAR 330C
ENCODING 13068
SWIDTH 1000 0
DWIDTH 8 0
BBX 7 7 1 -1
BITMAP
48
EE
A4
A0
00
64
48
ENDCHAR
STARTCHAR 330D
ENCODING 13069
SWIDTH 1000 0
DWIDTH 8 0
BBX 7 7 1 -1
BITMAP
40
FE
B4
48
00
5E
40
ENDCHAR
STARTCHAR 330E
ENCODING 13070
SWIDTH 1000 0
DWIDTH 8 0
BBX 6 6 1 1
BITMAP
EC
B4
48
00
20
C0
ENDCHAR
STARTCHAR 330F
ENCODING 13071
SWIDTH 1000 0
DWIDTH 8 0
BBX 7 6 1 1
BITMAP
AA
C4
48
C0
20
40
ENDCHAR
STARTCHAR 3310
ENCODING 13072
SWIDTH 1000 0
DWIDTH 8 0
BBX 6 8 1 -1
BITMAP
10
C0
E0
00
18
14
18
20
ENDCHAR
STARTCHAR 3311
ENCODING 13073
SWIDTH 1000 0
DWIDTH 8 0
BBX 6 5 1 2
BITMAP
CC
A0
5C
00
C0
ENDCHAR
STARTCHAR 3312
ENCODING 13074
SWIDTH 1000 0
DWIDTH 8 0
BBX 7 7 1 -1
BITMAP
80
88
C4
0C
80
5E
40
ENDCHAR
STARTCHAR 3313
ENCODING 13075
SWIDTH 1000 0
DWIDTH 8 0
BBX 7 7 0 -1
BITMAP
40
40
EE
32
50
6E
20
ENDCHAR
STARTCHAR 3314
ENCODING 13076
SWIDTH 1000 0
DWIDTH 8 0
BBX 6 6 1 1
BITMAP
A0
E0
00
1C
14
14
ENDCHAR
STARTCHAR 3315
ENCODING 13077
SWIDTH 1000 0
DWIDTH 8 0
BBX 8 8 0 -1
BITMAP
40
4E
6A
24
4A
BA
45
02
ENDCHAR
STARTCHAR 3316
ENCODING 13078
SWIDTH 1000 0
DWIDTH 8 0
BBX 7 7 1 -1
BITMAP
80
BA
AA
50
00
D4
2A
ENDCHAR
STARTCHAR 3317
ENCODING 13079
SWIDTH 1000 0
DWIDTH 8 0
BBX 7 7 0 -1
BITMAP
40
CE
EA
0C
E0
BA
14
ENDCHAR
STARTCHAR 3318
ENCODING 13080
SWIDTH 1000 0
DWIDTH 8 0
BBX 6 7 1 0
BITMAP
28
EC
44
88
40
80
A0
ENDCHAR
STARTCHAR 3319
ENCODING 13081
SWIDTH 1000 0
DWIDTH 8 0
BBX 8 8 0 -1
BITMAP
08
7E
CC
0F
08
22
44
08
ENDCHAR
STARTCHAR 331A
ENCODING 13082
SWIDTH 1000 0
DWIDTH 8 0
BBX 7 8 1 -1
BITMAP
40
AC
5A
14
28
FE
4A
04
ENDCHAR
STARTCHAR 331B
ENCODING 13083
SWIDTH 1000 0
DWIDTH 8 0
BBX 6 6 1 0
BITMAP
DC
54
08
08
E8
08
ENDCHAR
STARTCHAR 331C
ENCODING 13084
SWIDTH 1000 0
DWIDTH 8 0
BBX 6 6 1 0
BITMAP
E0
5C
00
80
40
A0
ENDCHAR
STARTCHAR 331D
ENCODING 13085
SWIDTH 1000 0
DWIDTH 8 0
BBX 6 6 1 -1
BITMAP
C0
40
DC
24
40
80
ENDCHAR
STARTCHAR 331E
ENCODING 13086
SWIDTH 1000 0
DWIDTH 8 0
BBX 6 7 0 -1
BITMAP
60
2C
60
00
B0
40
10
ENDCHAR
STARTCHAR 331F
ENCODING 13087
SWIDTH 1000 0
DWIDTH 8 0
BBX 6 7 1 -1
BITMAP
04
E8
48
00
80
C8
54
ENDCHAR
STARTCHAR 3320
ENCODING 13088
SWIDTH 1000 0
DWIDTH 8 0
BBX 8 7 0 0
BITMAP
75
22
04
22
EE
45
02
ENDCHAR
STARTCHAR 3321
ENCODING 13089
SWIDTH 1000 0
DWIDTH 8 0
BBX 5 6 1 0
BITMAP
28
48
90
10
58
88
ENDCHAR
STARTCHAR 3322
ENCODING 13090
SWIDTH 1000 0
DWIDTH 8 0
BBX 6 6 1 0
BITMAP
A8
C4
68
40
E0
80
ENDCHAR
STARTCHAR 3323
ENCODING 13091
SWIDTH 1000 0
DWIDTH 8 0
BBX 7 6 0 0
BITMAP
90
62
34
00
20
40
ENDCHAR
STARTCHAR 3324
ENCODING 13092
SWIDTH 1000 0
DWIDTH 8 0
BBX 6 6 1 0
BITMAP
E0
5C
80
80
40
A0
ENDCHAR
STARTCHAR 3325
ENCODING 13093
SWIDTH 1000 0
DWIDTH 8 0
BBX 6 7 1 0
BITMAP
50
C0
40
40
80
14
18
ENDCHAR
STARTCHAR 3326
ENCODING 13094
SWIDTH 1000 0
DWIDTH 8 0
BBX 6 7 1 -1
BITMAP
A0
A0
E0
00
18
1C
28
ENDCHAR
STARTCHAR 3327
ENCODING 13095
SWIDTH 1000 0
DWIDTH 8 0
BBX 6 5 1 2
BITMAP
E0
00
10
04
18
ENDCHAR
STARTCHAR 3328
ENCODING 13096
SWIDTH 1000 0
DWIDTH 8 0
BBX 6 6 1 0
BITMAP
80
60
40
04
08
10
ENDCHAR
STARTCHAR 3329
ENCODING 13097
SWIDTH 1000 0
DWIDTH 8 0
BBX 7 6 0 0
BITMAP
22
44
80
00
20
40
ENDCHAR
STARTCHAR 332A
ENCODING 13098
SWIDTH 1000 0
DWIDTH 8 0
BBX 7 6 0 0
BITMAP
66
94
00
60
A0
40
ENDCHAR
STARTCHAR 332B
ENCODING 13099
SWIDTH 1000 0
DWIDTH 8 0
BBX 7 7 1 -1
BITMAP
30
AC
80
00
10
EA
54
ENDCHAR
STARTCHAR 332D
ENCODING 13101
SWIDTH 1000 0
DWIDTH 8 0
BBX 7 6 0 0
BITMAP
4C
90
00
40
6E
CA
ENDCHAR
STARTCHAR 332E
ENCODING 13102
SWIDTH 1000 0
DWIDTH 8 0
BBX 7 7 0 -1
BITMAP
36
02
E4
74
62
4A
72
ENDCHAR
STARTCHAR 332F
ENCODING 13103
SWIDTH 1000 0
DWIDTH 8 0
BBX 7 7 0 -1
BITMAP
30
26
C4
60
20
60
A0
ENDCHAR
STARTCHAR 3330
ENCODING 13104
SWIDTH 1000 0
DWIDTH 8 0
BBX 6 7 1 0
BITMAP
60
40
80
C0
1C
04
1C
ENDCHAR
STARTCHAR 3331
ENCODING 13105
SWIDTH 1000 0
DWIDTH 8 0
BBX 6 6 1 0
BITMAP
40
80
C0
18
1C
28
ENDCHAR
STARTCHAR 3332
ENCODING 13106
SWIDTH 1000 0
DWIDTH 8 0
BBX 8 7 0 -1
BITMAP
40
2E
44
00
C1
3A
50
ENDCHAR
STARTCHAR 3333
ENCODING 13107
SWIDTH 1000 0
DWIDTH 8 0
BBX 6 6 1 -1
BITMAP
C0
24
48
00
00
E4
ENDCHAR
STARTCHAR 3334
ENCODING 13108
SWIDTH 1000 0
DWIDTH 8 0
BBX 7 7 1 -1
BITMAP
08
E2
42
04
82
7A
B2
ENDCHAR
STARTCHAR 3335
ENCODING 13109
SWIDTH 1000 0
DWIDTH 8 0
BBX 6 7 1 0
BITMAP
C8
2C
44
08
80
40
80
ENDCHAR
STARTCHAR 3336
ENCODING 13110
SWIDTH 1000 0
DWIDTH 8 0
BBX 7 6 0 0
BITMAP
66
92
00
60
5C
46
ENDCHAR
STARTCHAR 3337
ENCODING 13111
SWIDTH 1000 0
DWIDTH 8 0
BBX 6 7 1 -1
BITMAP
60
40
B0
00
14
04
08
ENDCHAR
STARTCHAR 3338
ENCODING 13112
SWIDTH 1000 0
DWIDTH 8 0
BBX 7 6 0 0
BITMAP
76
9C
00
20
40
40
ENDCHAR
STARTCHAR 3339
ENCODING 13113
SWIDTH 1000 0
DWIDTH 8 0
BBX 7 6 0 0
BITMAP
40
BE
12
10
10
20
ENDCHAR
STARTCHAR 333A
ENCODING 13114
SWIDTH 1000 0
DWIDTH 8 0
BBX 8 6 0 0
BITMAP
75
92
04
60
20
50
ENDCHAR
STARTCHAR 333B
ENCODING 13115
SWIDTH 1000 0
DWIDTH 8 0
BBX 7 7 0 -1
BITMAP
10
7E
90
00
50
50
60
ENDCHAR
STARTCHAR 333C
ENCODING 13116
SWIDTH 1000 0
DWIDTH 8 0
BBX 6 5 0 0
BITMAP
7C
90
00
60
20
ENDCHAR
STARTCHAR 333D
ENCODING 13117
SWIDTH 1000 0
DWIDTH 8 0
BBX 7 7 0 -1
BITMAP
30
56
7C
80
00
12
64
ENDCHAR
STARTCHAR 333E
ENCODING 13118
SWIDTH 1000 0
DWIDTH 8 0
BBX 6 6 1 0
BITMAP
E0
9C
24
00
40
80
ENDCHAR
STARTCHAR 333F
ENCODING 13119
SWIDTH 1000 0
DWIDTH 8 0
BBX 7 6 0 0
BITMAP
D0
60
D0
08
02
0C
ENDCHAR
STARTCHAR 3340
ENCODING 13120
SWIDTH 1000 0
DWIDTH 8 0
BBX 7 7 0 -1
BITMAP
30
F0
42
0C
10
40
40
ENDCHAR
STARTCHAR 3341
ENCODING 13121
SWIDTH 1000 0
DWIDTH 8 0
BBX 6 6 0 0
BITMAP
7C
40
00
20
60
E0
ENDCHAR
STARTCHAR 3342
ENCODING 13122
SWIDTH 1000 0
DWIDTH 8 0
BBX 5 6 1 1
BITMAP
F8
80
00
00
40
80
ENDCHAR
STARTCHAR 3343
ENCODING 13123
SWIDTH 1000 0
DWIDTH 8 0
BBX 7 8 0 -1
BITMAP
62
14
24
00
40
AE
0A
04
ENDCHAR
STARTCHAR 3344
ENCODING 13124
SWIDTH 1000 0
DWIDTH 8 0
BBX 7 6 0 0
BITMAP
76
2C
20
20
60
A0
ENDCHAR
STARTCHAR 3345
ENCODING 13125
SWIDTH 1000 0
DWIDTH 8 0
BBX 7 6 0 0
BITMAP
72
22
04
00
50
80
ENDCHAR
STARTCHAR 3346
ENCODING 13126
SWIDTH 1000 0
DWIDTH 8 0
BBX 6 6 1 -1
BITMAP
C0
20
5C
24
80
40
ENDCHAR
STARTCHAR 3347
ENCODING 13127
SWIDTH 1000 0
DWIDTH 8 0
BBX 6 8 1 -1
BITMAP
C0
20
44
08
88
74
A8
10
ENDCHAR
STARTCHAR 3348
ENCODING 13128
SWIDTH 1000 0
DWIDTH 8 0
BBX 7 6 0 1
BITMAP
46
44
60
08
F2
A4
ENDCHAR
STARTCHAR 3349
ENCODING 13129
SWIDTH 1000 0
DWIDTH 8 0
BBX 5 5 1 1
BITMAP
80
E0
00
08
08
ENDCHAR
STARTCHAR 334A
ENCODING 13130
SWIDTH 1000 0
DWIDTH 8 0
BBX 7 6 0 0
BITMAP
44
44
68
20
9C
A6
ENDCHAR
STARTCHAR 334B
ENCODING 13131
SWIDTH 1000 0
DWIDTH 8 0
BBX 6 6 1 0
BITMAP
20
60
80
10
1C
18
ENDCHAR
STARTCHAR 334C
ENCODING 13132
SWIDTH 1000 0
DWIDTH 8 0
BBX 7 7 1 -1
BITMAP
02
5C
94
14
10
44
98
ENDCHAR
STARTCHAR 334D
ENCODING 13133
SWIDTH 1000 0
DWIDTH 8 0
BBX 7 6 1 0
BITMAP
58
80
00
00
4A
94
ENDCHAR
STARTCHAR 334E
ENCODING 13134
SWIDTH 1000 0
DWIDTH 8 0
BBX 6 7 1 -1
BITMAP
80
FC
80
00
00
40
80
ENDCHAR
STARTCHAR 334F
ENCODING 13135
SWIDTH 1000 0
DWIDTH 8 0
BBX 5 6 1 0
BITMAP
F8
80
40
40
40
40
ENDCHAR
STARTCHAR 3350
ENCODING 13136
SWIDTH 1000 0
DWIDTH 8 0
BBX 6 7 1 0
BITMAP
18
C4
C8
00
80
40
80
ENDCHAR
STARTCHAR 3351
ENCODING 13137
SWIDTH 1000 0
DWIDTH 8 0
BBX 6 6 1 0
BITMAP
44
44
88
00
48
9C
ENDCHAR
STARTCHAR 3352
ENCODING 13138
SWIDTH 1000 0
DWIDTH 8 0
BBX 5 6 2 0
BITMAP
80
80
90
30
08
10
ENDCHAR
STARTCHAR 3353
ENCODING 13139
SWIDTH 1000 0
DWIDTH 8 0
BBX 8 6 0 1
BITMAP
03
42
74
86
00
70
ENDCHAR
STARTCHAR 3354
ENCODING 13140
SWIDTH 1000 0
DWIDTH 8 0
BBX 8 6 0 0
BITMAP
66
78
A0
60
25
0A
ENDCHAR
STARTCHAR 3355
ENCODING 13141
SWIDTH 1000 0
DWIDTH 8 0
BBX 6 6 1 1
BITMAP
80
A0
C0
08
10
2C
ENDCHAR
STARTCHAR 3356
ENCODING 13142
SWIDTH 1000 0
DWIDTH 8 0
BBX 7 6 0 0
BITMAP
92
AC
40
14
52
94
ENDCHAR
STARTCHAR 3357
ENCODING 13143
SWIDTH 1000 0
DWIDTH 8 0
BBX 6 6 1 0
BITMAP
EC
44
08
00
40
80
ENDCHAR
STARTCHAR 3371
ENCODING 13169
SWIDTH 1000 0
DWIDTH 8 0
BBX 6 6 1 1
BITMAP
B0
B0
FC
FC
EC
EC
ENDCHAR
STARTCHAR 337B
ENCODING 13179
SWIDTH 1000 0
DWIDTH 8 0
BBX 7 6 0 0
BITMAP
72
3E
7C
6C
FA
32
ENDCHAR
STARTCHAR 337C
ENCODING 13180
SWIDTH 1000 0
DWIDTH 8 0
BBX 8 6 0 1
BITMAP
FF
DB
DF
FF
FB
FB
ENDCHAR
STARTCHAR 337D
ENCODING 13181
SWIDTH 1000 0
DWIDTH 8 0
BBX 7 7 1 -1
BITMAP
40
5C
E8
58
5C
B8
BE
ENDCHAR
STARTCHAR 337E
ENCODING 13182
SWIDTH 1000 0
DWIDTH 8 0
BBX 7 6 0 0
BITMAP
F0
FC
FE
FE
FE
5E
ENDCHAR
STARTCHAR 337F
ENCODING 13183
SWIDTH 1000 0
DWIDTH 8 0
BBX 8 8 0 -1
BITMAP
51
FF
7C
DE
32
FF
7F
08
ENDCHAR
STARTCHAR 3385
ENCODING 13189
SWIDTH 1000 0
DWIDTH 8 0
BBX 6 6 1 0
BITMAP
9C
D4
D8
D4
D4
9C
ENDCHAR
STARTCHAR 3386
ENCODING 13190
SWIDTH 1000 0
DWIDTH 8 0
BBX 6 6 1 0
BITMAP
BC
B4
B8
B4
F4
FC
ENDCHAR
STARTCHAR 3387
ENCODING 13191
SWIDTH 1000 0
DWIDTH 8 0
BBX 7 6 0 0
BITMAP
7E
8A
8C
9A
9A
7E
ENDCHAR
STARTCHAR 3388
ENCODING 13192
SWIDTH 1000 0
DWIDTH 8 0
BBX 8 6 0 0
BITMAP
01
07
6E
96
9C
DA
ENDCHAR
STARTCHAR 3389
ENCODING 13193
SWIDTH 1000 0
DWIDTH 8 0
BBX 8 6 1 0
BITMAP
81
81
97
DA
DB
9E
ENDCHAR
STARTCHAR 338D
ENCODING 13197
SWIDTH 1000 0
DWIDTH 8 0
BBX 8 5 0 0
BITMAP
57
96
A4
FB
8F
ENDCHAR
STARTCHAR 338E
ENCODING 13198
SWIDTH 1000 0
DWIDTH 8 0
BBX 7 5 1 -1
BITMAP
EE
EC
EC
F6
1E
ENDCHAR
STARTCHAR 338F
ENCODING 13199
SWIDTH 1000 0
DWIDTH 8 0
BBX 7 7 1 -1
BITMAP
80
80
AE
CE
C8
AE
0E
ENDCHAR
STARTCHAR 3390
ENCODING 13200
SWIDTH 1000 0
DWIDTH 8 0
BBX 7 6 0 0
BITMAP
48
48
7E
4C
4C
CE
ENDCHAR
STARTCHAR 3396
ENCODING 13206
SWIDTH 1000 0
DWIDTH 8 0
BBX 7 6 1 0
BITMAP
04
04
EC
E8
EA
EC
ENDCHAR
STARTCHAR 3397
ENCODING 13207
SWIDTH 1000 0
DWIDTH 8 0
BBX 7 6 1 1
BITMAP
26
2A
EA
AC
AA
FC
ENDCHAR
STARTCHAR 3398
ENCODING 13208
SWIDTH 1000 0
DWIDTH 8 0
BBX 7 6 1 0
BITMAP
86
8A
AA
CC
C8
AC
ENDCHAR
STARTCHAR 339B
ENCODING 13211
SWIDTH 1000 0
DWIDTH 8 0
BBX 7 4 0 -1
BITMAP
0E
EE
CE
EE
ENDCHAR
STARTCHAR 339C
ENCODING 13212
SWIDTH 1000 0
DWIDTH 8 0
BBX 6 4 1 0
BITMAP
FC
FC
FC
FC
ENDCHAR
STARTCHAR 339D
ENCODING 13213
SWIDTH 1000 0
DWIDTH 8 0
BBX 6 4 1 0
BITMAP
DC
9C
9C
DC
ENDCHAR
STARTCHAR 339E
ENCODING 13214
SWIDTH 1000 0
DWIDTH 8 0
BBX 6 6 1 0
BITMAP
80
80
9C
DC
DC
9C
ENDCHAR
STARTCHAR 339F
ENCODING 13215
SWIDTH 1000 0
DWIDTH 8 0
BBX 7 7 1 0
BITMAP
06
04
06
FC
FC
FC
FC
ENDCHAR
STARTCHAR 33A0
ENCODING 13216
SWIDTH 1000 0
DWIDTH 8 0
BBX 7 7 1 0
BITMAP
06
04
06
DC
9C
9C
DC
ENDCHAR
STARTCHAR 33A1
ENCODING 13217
SWIDTH 1000 0
DWIDTH 8 0
BBX 6 7 1 0
BITMAP
04
04
04
FC
54
54
54
ENDCHAR
STARTCHAR 33A2
ENCODING 13218
SWIDTH 1000 0
DWIDTH 8 0
BBX 7 7 1 0
BITMAP
06
84
86
9C
DC
DC
9C
ENDCHAR
STARTCHAR 33A3
ENCODING 13219
SWIDTH 1000 0
DWIDTH 8 0
BBX 7 6 1 1
BITMAP
04
06
FC
FC
FC
FC
ENDCHAR
STARTCHAR 33A4
ENCODING 13220
SWIDTH 1000 0
DWIDTH 8 0
BBX 7 6 1 1
BITMAP
06
06
DC
9C
9C
DC
ENDCHAR
STARTCHAR 33A5
ENCODING 13221
SWIDTH 1000 0
DWIDTH 8 0
BBX 6 6 2 1
BITMAP
0C
0C
F8
A8
A8
A8
ENDCHAR
STARTCHAR 33A6
ENCODING 13222
SWIDTH 1000 0
DWIDTH 8 0
BBX 7 7 1 0
BITMAP
04
84
86
9C
DC
DC
9C
ENDCHAR
STARTCHAR 33B0
ENCODING 13232
SWIDTH 1000 0
DWIDTH 8 0
BBX 6 5 1 0
BITMAP
CC
A8
A4
EC
80
ENDCHAR
STARTCHAR 33B1
ENCODING 13233
SWIDTH 1000 0
DWIDTH 8 0
BBX 6 4 1 0
BITMAP
EC
A8
A4
AC
ENDCHAR
STARTCHAR 33B2
ENCODING 13234
SWIDTH 1000 0
DWIDTH 8 0
BBX 7 5 0 0
BITMAP
56
94
A2
76
80
ENDCHAR
STARTCHAR 33B3
ENCODING 13235
SWIDTH 1000 0
DWIDTH 8 0
BBX 6 4 1 0
BITMAP
FC
D8
D4
DC
ENDCHAR
STARTCHAR 33C2
ENCODING 13250
SWIDTH 1000 0
DWIDTH 8 0
BBX 7 4 0 0
BITMAP
EE
2E
EE
FE
ENDCHAR
STARTCHAR 33C4
ENCODING 13252
SWIDTH 1000 0
DWIDTH 8 0
BBX 6 4 1 0
BITMAP
7C
90
90
CC
ENDCHAR
STARTCHAR 33C8
ENCODING 13256
SWIDTH 1000 0
DWIDTH 8 0
BBX 6 6 1 0
BITMAP
3C
F4
B8
B4
B4
FC
ENDCHAR
STARTCHAR 33CB
ENCODING 13259
SWIDTH 1000 0
DWIDTH 8 0
BBX 8 6 0 0
BITMAP
FF
49
7F
48
48
48
ENDCHAR
STARTCHAR 33CD
ENCODING 13261
SWIDTH 1000 0
DWIDTH 8 0
BBX 7 6 1 0
BITMAP
90
D8
98
D8
D8
B6
ENDCHAR
STARTCHAR 33D4
ENCODING 13268
SWIDTH 1000 0
DWIDTH 8 0
BBX 6 6 1 -1
BITMAP
10
10
FC
F4
F4
FC
ENDCHAR
STARTCHAR 33D7
ENCODING 13271
SWIDTH 1000 0
DWIDTH 8 0
BBX 6 7 1 -1
BITMAP
14
D4
DC
D4
D4
D4
80
ENDCHAR
STARTCHAR 33D8
ENCODING 13272
SWIDTH 1000 0
DWIDTH 8 0
BBX 6 5 1 -1
BITMAP
DC
DC
DC
FC
80
ENDCHAR
STARTCHAR 33DA
ENCODING 13274
SWIDTH 1000 0
DWIDTH 8 0
BBX 6 6 1 0
BITMAP
DC
B4
BC
F8
94
90
ENDCHAR
STARTCHAR 3400
ENCODING 13312
SWIDTH 1000 0
DWIDTH 8 0
BBX 6 6 1 1
BITMAP
30
30
FC
30
30
FC
ENDCHAR
STARTCHAR 3401
ENCODING 13313
SWIDTH 1000 0
DWIDTH 8 0
BBX 8 6 0 1
BITMAP
FF
08
7E
4A
52
7E
ENDCHAR
STARTCHAR 3402
ENCODING 13314
SWIDTH 1000 0
DWIDTH 8 0
BBX 6 6 1 1
BITMAP
48
70
78
50
FC
5C
ENDCHAR
STARTCHAR 3404
ENCODING 13316
SWIDTH 1000 0
DWIDTH 8 0
BBX 5 5 2 0
BITMAP
28
70
A0
A0
78
ENDCHAR
STARTCHAR 3405
ENCODING 13317
SWIDTH 1000 0
DWIDTH 8 0
BBX 5 6 2 0
BITMAP
10
10
60
30
48
80
ENDCHAR
STARTCHAR 3406
ENCODING 13318
SWIDTH 1000 0
DWIDTH 8 0
BBX 5 7 1 0
BITMAP
70
78
78
70
78
48
90
ENDCHAR
STARTCHAR 3407
ENCODING 13319
SWIDTH 1000 0
DWIDTH 8 0
BBX 6 8 1 -1
BITMAP
20
20
50
54
F8
20
C4
78
ENDCHAR
STARTCHAR 3408
ENCODING 13320
SWIDTH 1000 0
DWIDTH 8 0
BBX 6 7 1 0
BITMAP
30
30
4C
F8
20
C4
78
ENDCHAR
STARTCHAR 3409
ENCODING 13321
SWIDTH 1000 0
DWIDTH 8 0
BBX 6 7 1 0
BITMAP
78
10
10
F8
20
C4
78
ENDCHAR
STARTCHAR 340A
ENCODING 13322
SWIDTH 1000 0
DWIDTH 8 0
BBX 6 8 1 -1
BITMAP
10
10
7C
14
F8
20
C4
78
ENDCHAR
STARTCHAR 340B
ENCODING 13323
SWIDTH 1000 0
DWIDTH 8 0
BBX 6 8 1 -1
BITMAP
10
10
38
10
F8
20
C4
78
ENDCHAR
STARTCHAR 340C
ENCODING 13324
SWIDTH 1000 0
DWIDTH 8 0
BBX 7 6 1 2
BITMAP
7E
50
DC
F4
50
7C
ENDCHAR
STARTCHAR 340D
ENCODING 13325
SWIDTH 1000 0
DWIDTH 8 0
BBX 6 7 1 0
BITMAP
F8
AC
48
F8
20
C4
78
ENDCHAR
STARTCHAR 340E
ENCODING 13326
SWIDTH 1000 0
DWIDTH 8 0
BBX 6 8 1 -1
BITMAP
10
68
30
48
F8
20
C4
78
ENDCHAR
STARTCHAR 340F
ENCODING 13327
SWIDTH 1000 0
DWIDTH 8 0
BBX 6 7 1 0
BITMAP
78
38
48
F8
20
C4
78
ENDCHAR
STARTCHAR 3410
ENCODING 13328
SWIDTH 1000 0
DWIDTH 8 0
BBX 6 8 1 -1
BITMAP
40
D8
D8
38
F8
20
C4
78
ENDCHAR
STARTCHAR 3411
ENCODING 13329
SWIDTH 1000 0
DWIDTH 8 0
BBX 6 8 1 -1
BITMAP
20
78
4C
30
F8
20
C4
78
ENDCHAR
STARTCHAR 3412
ENCODING 13330
SWIDTH 1000 0
DWIDTH 8 0
BBX 6 7 1 0
BITMAP
7C
7C
84
F8
20
C4
78
ENDCHAR
STARTCHAR 3413
ENCODING 13331
SWIDTH 1000 0
DWIDTH 8 0
BBX 6 7 1 0
BITMAP
78
78
38
F8
20
C4
78
ENDCHAR
STARTCHAR 3414
ENCODING 13332
SWIDTH 1000 0
DWIDTH 8 0
BBX 6 7 1 0
BITMAP
78
FC
FC
F8
20
C4
78
ENDCHAR
STARTCHAR 3415
ENCODING 13333
SWIDTH 1000 0
DWIDTH 8 0
BBX 6 8 1 -1
BITMAP
10
EC
FC
A4
F8
20
C4
78
ENDCHAR
STARTCHAR 3416
ENCODING 13334
SWIDTH 1000 0
DWIDTH 8 0
BBX 7 6 0 1
BITMAP
28
F8
28
78
78
7E
ENDCHAR
STARTCHAR 3417
ENCODING 13335
SWIDTH 1000 0
DWIDTH 8 0
BBX 6 8 1 -1
BITMAP
20
38
6C
74
F8
20
C4
78
ENDCHAR
STARTCHAR 3418
ENCODING 13336
SWIDTH 1000 0
DWIDTH 8 0
BBX 6 8 1 -1
BITMAP
10
E8
34
EC
F8
20
C4
78
ENDCHAR
STARTCHAR 3419
ENCODING 13337
SWIDTH 1000 0
DWIDTH 8 0
BBX 6 7 1 0
BITMAP
7C
78
00
FC
20
C4
78
ENDCHAR
STARTCHAR 341A
ENCODING 13338
SWIDTH 1000 0
DWIDTH 8 0
BBX 6 8 1 -1
BITMAP
04
F8
04
78
F8
20
C4
78
ENDCHAR
STARTCHAR 341B
ENCODING 13339
SWIDTH 1000 0
DWIDTH 8 0
BBX 6 8 1 -1
BITMAP
40
98
AC
24
F8
20
C4
78
ENDCHAR
STARTCHAR 341C
ENCODING 13340
SWIDTH 1000 0
DWIDTH 8 0
BBX 8 7 0 -1
BITMAP
20
28
F8
3E
6A
7A
33
ENDCHAR
STARTCHAR 341D
ENCODING 13341
SWIDTH 1000 0
DWIDTH 8 0
BBX 6 8 1 -1
BITMAP
50
EC
9C
00
FC
20
C4
78
ENDCHAR
STARTCHAR 341E
ENCODING 13342
SWIDTH 1000 0
DWIDTH 8 0
BBX 6 8 1 -1
BITMAP
48
4C
78
78
F4
7C
C0
30
ENDCHAR
STARTCHAR 341F
ENCODING 13343
SWIDTH 1000 0
DWIDTH 8 0
BBX 6 8 1 -1
BITMAP
20
78
78
CC
F8
20
C4
78
ENDCHAR
STARTCHAR 3420
ENCODING 13344
SWIDTH 1000 0
DWIDTH 8 0
BBX 6 8 1 -1
BITMAP
20
F0
50
D4
F8
20
C4
78
ENDCHAR
STARTCHAR 3421
ENCODING 13345
SWIDTH 1000 0
DWIDTH 8 0
BBX 7 8 0 -2
BITMAP
40
4E
EE
5E
56
5E
94
9E
ENDCHAR
STARTCHAR 3422
ENCODING 13346
SWIDTH 1000 0
DWIDTH 8 0
BBX 6 8 1 -1
BITMAP
84
B8
98
B8
F8
20
C4
78
ENDCHAR
STARTCHAR 3423
ENCODING 13347
SWIDTH 1000 0
DWIDTH 8 0
BBX 7 8 0 -1
BITMAP
08
7E
48
7E
BE
BC
A0
1E
ENDCHAR
STARTCHAR 3424
ENCODING 13348
SWIDTH 1000 0
DWIDTH 8 0
BBX 7 8 0 -1
BITMAP
4C
4E
7E
DE
5E
58
92
9E
ENDCHAR
STARTCHAR 3425
ENCODING 13349
SWIDTH 1000 0
DWIDTH 8 0
BBX 7 8 0 -1
BITMAP
02
FC
5E
14
7C
10
62
3C
ENDCHAR
STARTCHAR 3426
ENCODING 13350
SWIDTH 1000 0
DWIDTH 8 0
BBX 6 8 1 -1
BITMAP
20
94
68
FC
20
50
E0
7C
ENDCHAR
STARTCHAR 3427
ENCODING 13351
SWIDTH 1000 0
DWIDTH 8 0
BBX 8 8 0 -2
BITMAP
08
48
48
FF
1A
28
48
38
ENDCHAR
STARTCHAR 3428
ENCODING 13352
SWIDTH 1000 0
DWIDTH 8 0
BBX 7 6 1 0
BITMAP
FC
48
FE
6C
48
48
ENDCHAR
STARTCHAR 3429
ENCODING 13353
SWIDTH 1000 0
DWIDTH 8 0
BBX 8 8 0 -2
BITMAP
5C
5C
FF
5C
5C
FF
5A
9A
ENDCHAR
STARTCHAR 342A
ENCODING 13354
SWIDTH 1000 0
DWIDTH 8 0
BBX 8 8 0 -1
BITMAP
08
FE
4A
4A
7C
18
27
40
ENDCHAR
STARTCHAR 342B
ENCODING 13355
SWIDTH 1000 0
DWIDTH 8 0
BBX 6 7 1 0
BITMAP
10
FC
8C
94
AC
FC
80
ENDCHAR
STARTCHAR 342C
ENCODING 13356
SWIDTH 1000 0
DWIDTH 8 0
BBX 7 6 1 0
BITMAP
10
FE
28
D4
58
5E
ENDCHAR
STARTCHAR 342D
ENCODING 13357
SWIDTH 1000 0
DWIDTH 8 0
BBX 7 8 1 0
BITMAP
10
FE
00
FC
B4
B4
FC
84
ENDCHAR
STARTCHAR 342E
ENCODING 13358
SWIDTH 1000 0
DWIDTH 8 0
BBX 6 7 1 0
BITMAP
78
80
7C
78
7C
48
20
ENDCHAR
STARTCHAR 342F
ENCODING 13359
SWIDTH 1000 0
DWIDTH 8 0
BBX 8 8 0 -1
BITMAP
08
FF
3C
7E
7C
FF
3C
24
ENDCHAR
STARTCHAR 3430
ENCODING 13360
SWIDTH 1000 0
DWIDTH 8 0
BBX 6 6 1 1
BITMAP
3C
64
64
E4
64
7C
ENDCHAR
STARTCHAR 3431
ENCODING 13361
SWIDTH 1000 0
DWIDTH 8 0
BBX 6 7 1 0
BITMAP
30
48
A4
D4
68
30
C0
ENDCHAR
STARTCHAR 3432
ENCODING 13362
SWIDTH 1000 0
DWIDTH 8 0
BBX 8 7 0 0
BITMAP
08
48
7E
48
CC
52
41
ENDCHAR
STARTCHAR 3433
ENCODING 13363
SWIDTH 1000 0
DWIDTH 8 0
BBX 8 8 0 -1
BITMAP
20
5E
4C
4C
CC
4C
54
47
ENDCHAR
STARTCHAR 3434
ENCODING 13364
SWIDTH 1000 0
DWIDTH 8 0
BBX 7 8 1 -1
BITMAP
40
80
9E
94
AC
C8
90
A0
ENDCHAR
STARTCHAR 3436
ENCODING 13366
SWIDTH 1000 0
DWIDTH 8 0
BBX 6 7 1 0
BITMAP
3C
64
64
F8
60
64
7C
ENDCHAR
STARTCHAR 3438
ENCODING 13368
SWIDTH 1000 0
DWIDTH 8 0
BBX 7 8 0 -1
BITMAP
10
50
5E
72
C8
58
54
42
ENDCHAR
STARTCHAR 3439
ENCODING 13369
SWIDTH 1000 0
DWIDTH 8 0
BBX 6 7 1 0
BITMAP
E0
BC
DC
BC
88
84
84
ENDCHAR
STARTCHAR 343A
ENCODING 13370
SWIDTH 1000 0
DWIDTH 8 0
BBX 7 7 0 0
BITMAP
04
54
54
D4
56
5A
58
ENDCHAR
STARTCHAR 343B
ENCODING 13371
SWIDTH 1000 0
DWIDTH 8 0
BBX 7 7 0 0
BITMAP
68
5E
5A
DA
56
52
52
ENDCHAR
STARTCHAR 343C
ENCODING 13372
SWIDTH 1000 0
DWIDTH 8 0
BBX 6 7 1 0
BITMAP
58
98
98
BC
98
B8
80
ENDCHAR
STARTCHAR 3441
ENCODING 13377
SWIDTH 1000 0
DWIDTH 8 0
BBX 6 8 1 -1
BITMAP
50
B0
B4
BC
B0
B0
BC
A0
ENDCHAR
STARTCHAR 3442
ENCODING 13378
SWIDTH 1000 0
DWIDTH 8 0
BBX 7 8 0 -1
BITMAP
20
5E
5E
5A
DE
52
52
52
ENDCHAR
STARTCHAR 3443
ENCODING 13379
SWIDTH 1000 0
DWIDTH 8 0
BBX 8 8 0 0
BITMAP
14
54
6F
46
D6
66
6A
4A
ENDCHAR
STARTCHAR 3444
ENCODING 13380
SWIDTH 1000 0
DWIDTH 8 0
BBX 7 8 1 -1
BITMAP
40
9C
A4
AC
BE
BE
A4
84
ENDCHAR
STARTCHAR 3445
ENCODING 13381
SWIDTH 1000 0
DWIDTH 8 0
BBX 6 7 2 0
BITMAP
C0
F8
E0
B8
A0
FC
80
ENDCHAR
STARTCHAR 3446
ENCODING 13382
SWIDTH 1000 0
DWIDTH 8 0
BBX 7 7 1 -1
BITMAP
BC
A4
BC
98
A8
AC
CE
ENDCHAR
STARTCHAR 3449
ENCODING 13385
SWIDTH 1000 0
DWIDTH 8 0
BBX 7 8 1 -2
BITMAP
40
BC
BC
AC
BC
B4
D6
C2
ENDCHAR
STARTCHAR 344A
ENCODING 13386
SWIDTH 1000 0
DWIDTH 8 0
BBX 8 7 0 -1
BITMAP
48
5F
4C
CC
4C
54
54
ENDCHAR
STARTCHAR 344B
ENCODING 13387
SWIDTH 1000 0
DWIDTH 8 0
BBX 7 8 0 -1
BITMAP
34
54
5E
56
DE
56
5E
52
ENDCHAR
STARTCHAR 344C
ENCODING 13388
SWIDTH 1000 0
DWIDTH 8 0
BBX 8 8 0 -1
BITMAP
20
5F
5F
54
DE
5F
5F
50
ENDCHAR
STARTCHAR 344D
ENCODING 13389
SWIDTH 1000 0
DWIDTH 8 0
BBX 7 7 0 0
BITMAP
4A
4C
5E
FE
4C
5A
48
ENDCHAR
STARTCHAR 344E
ENCODING 13390
SWIDTH 1000 0
DWIDTH 8 0
BBX 5 8 2 0
BITMAP
08
F0
A8
A0
E8
E8
F8
C8
ENDCHAR
STARTCHAR 3450
ENCODING 13392
SWIDTH 1000 0
DWIDTH 8 0
BBX 7 7 1 0
BITMAP
10
9C
FE
90
94
D0
90
ENDCHAR
STARTCHAR 3451
ENCODING 13393
SWIDTH 1000 0
DWIDTH 8 0
BBX 7 7 0 0
BITMAP
40
5E
DE
5E
52
5E
52
ENDCHAR
STARTCHAR 3452
ENCODING 13394
SWIDTH 1000 0
DWIDTH 8 0
BBX 5 7 2 0
BITMAP
20
50
E8
F0
B0
50
88
ENDCHAR
STARTCHAR 3453
ENCODING 13395
SWIDTH 1000 0
DWIDTH 8 0
BBX 7 7 1 0
BITMAP
50
9E
90
BE
9C
B4
9E
ENDCHAR
STARTCHAR 3457
ENCODING 13399
SWIDTH 1000 0
DWIDTH 8 0
BBX 7 8 1 0
BITMAP
40
BC
BC
BE
A6
DC
B4
84
ENDCHAR
STARTCHAR 3458
ENCODING 13400
SWIDTH 1000 0
DWIDTH 8 0
BBX 6 8 1 -1
BITMAP
40
94
FC
B4
F8
A8
DC
A4
ENDCHAR
STARTCHAR 3459
ENCODING 13401
SWIDTH 1000 0
DWIDTH 8 0
BBX 7 8 1 -1
BITMAP
40
BC
B8
B8
B8
B8
B8
9E
ENDCHAR
STARTCHAR 345A
ENCODING 13402
SWIDTH 1000 0
DWIDTH 8 0
BBX 8 7 0 0
BITMAP
5F
5E
7E
FE
5D
6F
6C
ENDCHAR
STARTCHAR 345B
ENCODING 13403
SWIDTH 1000 0
DWIDTH 8 0
BBX 8 7 0 0
BITMAP
08
5F
5E
DE
4C
5A
48
ENDCHAR
STARTCHAR 345C
ENCODING 13404
SWIDTH 1000 0
DWIDTH 8 0
BBX 8 8 0 -1
BITMAP
11
5E
78
5F
DA
5A
5A
52
ENDCHAR
STARTCHAR 345E
ENCODING 13406
SWIDTH 1000 0
DWIDTH 8 0
BBX 7 8 1 -2
BITMAP
50
BC
A8
A4
98
BE
98
A8
ENDCHAR
STARTCHAR 345F
ENCODING 13407
SWIDTH 1000 0
DWIDTH 8 0
BBX 8 7 0 -1
BITMAP
5C
50
DE
7F
40
54
42
ENDCHAR
STARTCHAR 3463
ENCODING 13411
SWIDTH 1000 0
DWIDTH 8 0
BBX 8 8 0 -1
BITMAP
34
54
7F
54
D6
76
54
54
ENDCHAR
STARTCHAR 3464
ENCODING 13412
SWIDTH 1000 0
DWIDTH 8 0
BBX 7 7 1 0
BITMAP
98
BE
84
BC
B4
BC
A4
ENDCHAR
STARTCHAR 3465
ENCODING 13413
SWIDTH 1000 0
DWIDTH 8 0
BBX 8 7 0 -1
BITMAP
3E
5E
5E
CF
5D
49
52
ENDCHAR
STARTCHAR 3466
ENCODING 13414
SWIDTH 1000 0
DWIDTH 8 0
BBX 7 8 0 -2
BITMAP
20
5C
5E
5E
D8
5E
68
76
ENDCHAR
STARTCHAR 3467
ENCODING 13415
SWIDTH 1000 0
DWIDTH 8 0
BBX 6 7 1 -1
BITMAP
40
98
FC
B0
F8
FC
90
ENDCHAR
STARTCHAR 3468
ENCODING 13416
SWIDTH 1000 0
DWIDTH 8 0
BBX 7 7 1 -1
BITMAP
BC
A4
BC
FE
90
A8
A6
ENDCHAR
STARTCHAR 346A
ENCODING 13418
SWIDTH 1000 0
DWIDTH 8 0
BBX 6 8 1 -1
BITMAP
50
7C
B0
AC
B8
B8
A8
C0
ENDCHAR
STARTCHAR 346E
ENCODING 13422
SWIDTH 1000 0
DWIDTH 8 0
BBX 7 7 1 0
BITMAP
BE
BC
BC
BC
BC
90
90
ENDCHAR
STARTCHAR 346F
ENCODING 13423
SWIDTH 1000 0
DWIDTH 8 0
BBX 6 7 2 -1
BITMAP
7C
F8
F8
F8
F8
A8
C4
ENDCHAR
STARTCHAR 3471
ENCODING 13425
SWIDTH 1000 0
DWIDTH 8 0
BBX 6 7 1 0
BITMAP
78
BC
94
A0
FC
B8
90
ENDCHAR
STARTCHAR 3473
ENCODING 13427
SWIDTH 1000 0
DWIDTH 8 0
BBX 6 8 1 -2
BITMAP
40
BC
BC
94
BC
BC
BC
A4
ENDCHAR
STARTCHAR 3474
ENCODING 13428
SWIDTH 1000 0
DWIDTH 8 0
BBX 8 7 0 0
BITMAP
3E
5E
5F
FE
5E
4C
53
ENDCHAR
STARTCHAR 3475
ENCODING 13429
SWIDTH 1000 0
DWIDTH 8 0
BBX 7 7 1 0
BITMAP
08
BE
AC
B8
FE
A8
D6
ENDCHAR
STARTCHAR 3476
ENCODING 13430
SWIDTH 1000 0
DWIDTH 8 0
BBX 8 8 0 0
BITMAP
30
5F
5E
DE
5E
4B
5F
40
ENDCHAR
STARTCHAR 3477
ENCODING 13431
SWIDTH 1000 0
DWIDTH 8 0
BBX 7 8 1 -1
BITMAP
68
AC
9A
BE
B8
BC
BA
BE
ENDCHAR
STARTCHAR 3478
ENCODING 13432
SWIDTH 1000 0
DWIDTH 8 0
BBX 7 8 1 -1
BITMAP
50
BE
BC
BA
FE
B4
B4
8C
ENDCHAR
STARTCHAR 3479
ENCODING 13433
SWIDTH 1000 0
DWIDTH 8 0
BBX 6 8 1 -1
BITMAP
10
28
74
FC
FC
78
78
48
ENDCHAR
STARTCHAR 347B
ENCODING 13435
SWIDTH 1000 0
DWIDTH 8 0
BBX 6 8 1 0
BITMAP
10
BC
BC
BC
80
B4
BC
A4
ENDCHAR
STARTCHAR 347C
ENCODING 13436
SWIDTH 1000 0
DWIDTH 8 0
BBX 7 8 1 -1
BITMAP
08
7C
F8
F8
F6
FC
DC
94
ENDCHAR
STARTCHAR 347D
ENCODING 13437
SWIDTH 1000 0
DWIDTH 8 0
BBX 8 8 0 -1
BITMAP
28
5A
5F
7E
DE
5F
7F
40
ENDCHAR
STARTCHAR 347E
ENCODING 13438
SWIDTH 1000 0
DWIDTH 8 0
BBX 6 8 1 -1
BITMAP
40
9C
A8
90
FC
BC
BC
A4
ENDCHAR
STARTCHAR 347F
ENCODING 13439
SWIDTH 1000 0
DWIDTH 8 0
BBX 6 7 2 0
BITMAP
70
A8
F8
FC
B0
A8
A0
ENDCHAR
STARTCHAR 3480
ENCODING 13440
SWIDTH 1000 0
DWIDTH 8 0
BBX 8 8 0 -1
BITMAP
28
5F
4C
5E
DE
5E
5E
52
ENDCHAR
STARTCHAR 3481
ENCODING 13441
SWIDTH 1000 0
DWIDTH 8 0
BBX 7 8 0 -1
BITMAP
20
5E
5E
5E
DE
5E
5E
40
ENDCHAR
STARTCHAR 3482
ENCODING 13442
SWIDTH 1000 0
DWIDTH 8 0
BBX 6 8 0 -1
BITMAP
40
50
80
8C
98
B4
1C
08
ENDCHAR
STARTCHAR 3483
ENCODING 13443
SWIDTH 1000 0
DWIDTH 8 0
BBX 6 7 1 -1
BITMAP
CC
BC
B8
B8
BC
9C
E4
ENDCHAR
STARTCHAR 3484
ENCODING 13444
SWIDTH 1000 0
DWIDTH 8 0
BBX 8 8 0 -1
BITMAP
34
5C
5F
74
DA
41
5A
75
ENDCHAR
STARTCHAR 3485
ENCODING 13445
SWIDTH 1000 0
DWIDTH 8 0
BBX 7 8 0 -1
BITMAP
28
5E
4C
4E
D2
4C
5E
52
ENDCHAR
STARTCHAR 3486
ENCODING 13446
SWIDTH 1000 0
DWIDTH 8 0
BBX 7 7 0 0
BITMAP
08
5E
7C
FE
5E
5E
4A
ENDCHAR
STARTCHAR 3487
ENCODING 13447
SWIDTH 1000 0
DWIDTH 8 0
BBX 8 7 0 0
BITMAP
40
5F
FF
5F
40
5D
6D
ENDCHAR
STARTCHAR 3488
ENCODING 13448
SWIDTH 1000 0
DWIDTH 8 0
BBX 7 7 1 -1
BITMAP
F0
FE
BC
BC
BC
B4
92
ENDCHAR
STARTCHAR 3489
ENCODING 13449
SWIDTH 1000 0
DWIDTH 8 0
BBX 8 8 0 -1
BITMAP
08
5A
5F
7E
CD
7F
4C
7B
ENDCHAR
STARTCHAR 348A
ENCODING 13450
SWIDTH 1000 0
DWIDTH 8 0
BBX 7 7 0 0
BITMAP
7E
5E
C8
5E
5E
7E
40
ENDCHAR
STARTCHAR 348B
ENCODING 13451
SWIDTH 1000 0
DWIDTH 8 0
BBX 7 7 1 0
BITMAP
AC
F8
AE
DC
AC
AC
D4
ENDCHAR
STARTCHAR 348C
ENCODING 13452
SWIDTH 1000 0
DWIDTH 8 0
BBX 6 7 1 0
BITMAP
FC
B8
A4
BC
98
98
AC
ENDCHAR
STARTCHAR 348D
ENCODING 13453
SWIDTH 1000 0
DWIDTH 8 0
BBX 7 7 0 -1
BITMAP
14
4E
48
D6
58
6E
4A
ENDCHAR
STARTCHAR 348E
ENCODING 13454
SWIDTH 1000 0
DWIDTH 8 0
BBX 7 7 1 -1
BITMAP
38
FE
A6
EE
EE
A8
C8
ENDCHAR
STARTCHAR 3491
ENCODING 13457
SWIDTH 1000 0
DWIDTH 8 0
BBX 7 7 0 0
BITMAP
5E
50
56
DE
5E
5E
50
ENDCHAR
STARTCHAR 3492
ENCODING 13458
SWIDTH 1000 0
DWIDTH 8 0
BBX 7 8 1 -1
BITMAP
58
BC
BE
90
FE
98
B4
D2
ENDCHAR
STARTCHAR 3493
ENCODING 13459
SWIDTH 1000 0
DWIDTH 8 0
BBX 7 8 0 -1
BITMAP
04
5E
4E
40
FE
6E
54
6A
ENDCHAR
STARTCHAR 3494
ENCODING 13460
SWIDTH 1000 0
DWIDTH 8 0
BBX 7 7 0 0
BITMAP
7E
58
5E
EE
5A
7E
40
ENDCHAR
STARTCHAR 3495
ENCODING 13461
SWIDTH 1000 0
DWIDTH 8 0
BBX 6 7 1 0
BITMAP
10
FC
AC
DC
FC
DC
D0
ENDCHAR
STARTCHAR 3496
ENCODING 13462
SWIDTH 1000 0
DWIDTH 8 0
BBX 7 7 0 0
BITMAP
42
5E
5E
CC
6E
60
40
ENDCHAR
STARTCHAR 3499
ENCODING 13465
SWIDTH 1000 0
DWIDTH 8 0
BBX 8 7 0 0
BITMAP
66
56
66
D7
7E
52
50
ENDCHAR
STARTCHAR 349A
ENCODING 13466
SWIDTH 1000 0
DWIDTH 8 0
BBX 8 7 0 0
BITMAP
5E
4C
4E
DE
4C
41
40
ENDCHAR
STARTCHAR 349B
ENCODING 13467
SWIDTH 1000 0
DWIDTH 8 0
BBX 7 8 0 -1
BITMAP
08
5A
5A
54
E8
7C
7C
56
ENDCHAR
STARTCHAR 349C
ENCODING 13468
SWIDTH 1000 0
DWIDTH 8 0
BBX 8 8 0 -1
BITMAP
08
6E
5E
6E
EE
7F
52
40
ENDCHAR
STARTCHAR 349D
ENCODING 13469
SWIDTH 1000 0
DWIDTH 8 0
BBX 8 8 0 -1
BITMAP
0C
46
5E
5E
DF
66
64
42
ENDCHAR
STARTCHAR 349E
ENCODING 13470
SWIDTH 1000 0
DWIDTH 8 0
BBX 7 8 0 0
BITMAP
5A
5E
4E
5E
FE
5E
56
52
ENDCHAR
STARTCHAR 349F
ENCODING 13471
SWIDTH 1000 0
DWIDTH 8 0
BBX 7 8 0 -1
BITMAP
28
5E
5E
5E
CE
68
7E
52
ENDCHAR
STARTCHAR 34A0
ENCODING 13472
SWIDTH 1000 0
DWIDTH 8 0
BBX 7 8 0 -1
BITMAP
28
4E
5A
5C
C0
7E
7E
40
ENDCHAR
STARTCHAR 34A1
ENCODING 13473
SWIDTH 1000 0
DWIDTH 8 0
BBX 7 8 1 -1
BITMAP
22
BC
FA
CC
FA
FE
F4
84
ENDCHAR
STARTCHAR 34A4
ENCODING 13476
SWIDTH 1000 0
DWIDTH 8 0
BBX 8 7 0 0
BITMAP
3E
5C
5C
7F
F6
56
52
ENDCHAR
STARTCHAR 34A5
ENCODING 13477
SWIDTH 1000 0
DWIDTH 8 0
BBX 6 8 1 -1
BITMAP
58
BC
AC
98
BC
BC
BC
80
ENDCHAR
STARTCHAR 34A6
ENCODING 13478
SWIDTH 1000 0
DWIDTH 8 0
BBX 7 7 0 0
BITMAP
1C
5E
7E
7E
DE
7E
40
ENDCHAR
STARTCHAR 34A7
ENCODING 13479
SWIDTH 1000 0
DWIDTH 8 0
BBX 7 8 1 0
BITMAP
22
7C
DE
DC
AE
FE
FE
D8
ENDCHAR
STARTCHAR 34A8
ENCODING 13480
SWIDTH 1000 0
DWIDTH 8 0
BBX 8 8 0 -1
BITMAP
08
3E
76
7E
FF
7F
52
5E
ENDCHAR
STARTCHAR 34A9
ENCODING 13481
SWIDTH 1000 0
DWIDTH 8 0
BBX 7 7 0 0
BITMAP
3C
5E
C8
5E
5E
5E
6A
ENDCHAR
STARTCHAR 34AA
ENCODING 13482
SWIDTH 1000 0
DWIDTH 8 0
BBX 7 6 1 0
BITMAP
7C
FE
FC
FE
5C
CE
ENDCHAR
STARTCHAR 34AB
ENCODING 13483
SWIDTH 1000 0
DWIDTH 8 0
BBX 7 7 0 -1
BITMAP
3E
3C
20
FE
28
28
0E
ENDCHAR
STARTCHAR 34AD
ENCODING 13485
SWIDTH 1000 0
DWIDTH 8 0
BBX 6 7 1 0
BITMAP
FC
B4
FC
48
48
DC
20
ENDCHAR
STARTCHAR 34AF
ENCODING 13487
SWIDTH 1000 0
DWIDTH 8 0
BBX 8 8 0 -1
BITMAP
2C
3B
6F
6E
7F
2F
C4
04
ENDCHAR
STARTCHAR 34B0
ENCODING 13488
SWIDTH 1000 0
DWIDTH 8 0
BBX 7 6 1 1
BITMAP
70
28
44
7E
10
FE
ENDCHAR
STARTCHAR 34B2
ENCODING 13490
SWIDTH 1000 0
DWIDTH 8 0
BBX 6 7 1 0
BITMAP
60
30
4C
F8
78
78
48
ENDCHAR
STARTCHAR 34B3
ENCODING 13491
SWIDTH 1000 0
DWIDTH 8 0
BBX 6 7 1 0
BITMAP
FC
94
D4
D4
FC
94
84
ENDCHAR
STARTCHAR 34B4
ENCODING 13492
SWIDTH 1000 0
DWIDTH 8 0
BBX 6 7 1 0
BITMAP
70
30
5C
D8
B4
FC
84
ENDCHAR
STARTCHAR 34B5
ENCODING 13493
SWIDTH 1000 0
DWIDTH 8 0
BBX 7 6 1 0
BITMAP
20
FC
FC
84
78
86
ENDCHAR
STARTCHAR 34B6
ENCODING 13494
SWIDTH 1000 0
DWIDTH 8 0
BBX 6 7 1 0
BITMAP
30
50
8C
F8
88
F8
88
ENDCHAR
STARTCHAR 34B8
ENCODING 13496
SWIDTH 1000 0
DWIDTH 8 0
BBX 6 7 1 -1
BITMAP
08
50
FC
44
78
30
DC
ENDCHAR
STARTCHAR 34B9
ENCODING 13497
SWIDTH 1000 0
DWIDTH 8 0
BBX 8 8 0 -1
BITMAP
24
FF
7E
7E
7E
FF
36
41
ENDCHAR
STARTCHAR 34BA
ENCODING 13498
SWIDTH 1000 0
DWIDTH 8 0
BBX 6 6 1 0
BITMAP
FC
B4
FC
D4
E4
FC
ENDCHAR
STARTCHAR 34BB
ENCODING 13499
SWIDTH 1000 0
DWIDTH 8 0
BBX 7 7 0 0
BITMAP
7E
5A
3E
3C
3C
2E
C0
ENDCHAR
STARTCHAR 34BC
ENCODING 13500
SWIDTH 1000 0
DWIDTH 8 0
BBX 8 8 0 -1
BITMAP
18
FF
18
7E
7A
5A
4A
46
ENDCHAR
STARTCHAR 34BD
ENCODING 13501
SWIDTH 1000 0
DWIDTH 8 0
BBX 8 6 0 1
BITMAP
7E
7A
34
FE
2B
3E
ENDCHAR
STARTCHAR 34BE
ENCODING 13502
SWIDTH 1000 0
DWIDTH 8 0
BBX 7 7 0 0
BITMAP
7E
5E
28
3E
E0
5E
20
ENDCHAR
STARTCHAR 34BF
ENCODING 13503
SWIDTH 1000 0
DWIDTH 8 0
BBX 7 7 1 0
BITMAP
FC
74
FA
3E
FE
9E
B0
ENDCHAR
STARTCHAR 34C1
ENCODING 13505
SWIDTH 1000 0
DWIDTH 8 0
BBX 8 4 0 1
BITMAP
7F
AA
48
8F
ENDCHAR
STARTCHAR 34C2
ENCODING 13506
SWIDTH 1000 0
DWIDTH 8 0
BBX 8 7 1 -1
BITMAP
FF
F0
1E
FA
AC
A4
BE
ENDCHAR
STARTCHAR 34C3
ENCODING 13507
SWIDTH 1000 0
DWIDTH 8 0
BBX 6 7 1 0
BITMAP
FC
EC
F0
F0
FC
F4
BC
ENDCHAR
STARTCHAR 34C4
ENCODING 13508
SWIDTH 1000 0
DWIDTH 8 0
BBX 7 8 0 -2
BITMAP
44
F4
2E
74
64
D4
FC
76
ENDCHAR
STARTCHAR 34C5
ENCODING 13509
SWIDTH 1000 0
DWIDTH 8 0
BBX 8 8 0 -1
BITMAP
01
5F
44
44
84
84
44
08
ENDCHAR
STARTCHAR 34C7
ENCODING 13511
SWIDTH 1000 0
DWIDTH 8 0
BBX 7 7 0 -2
BITMAP
06
D8
48
BE
88
94
92
ENDCHAR
STARTCHAR 34C8
ENCODING 13512
SWIDTH 1000 0
DWIDTH 8 0
BBX 7 6 1 1
BITMAP
BE
10
50
9C
B4
9C
ENDCHAR
STARTCHAR 34C9
ENCODING 13513
SWIDTH 1000 0
DWIDTH 8 0
BBX 8 6 0 1
BITMAP
5C
08
3F
48
9E
5E
ENDCHAR
STARTCHAR 34CA
ENCODING 13514
SWIDTH 1000 0
DWIDTH 8 0
BBX 6 6 1 1
BITMAP
3C
FC
BC
BC
BC
A4
ENDCHAR
STARTCHAR 34CB
ENCODING 13515
SWIDTH 1000 0
DWIDTH 8 0
BBX 7 9 1 -2
BITMAP
18
98
3E
58
98
7E
90
AC
04
ENDCHAR
STARTCHAR 34CC
ENCODING 13516
SWIDTH 1000 0
DWIDTH 8 0
BBX 7 6 0 1
BITMAP
18
94
5E
9E
88
BE
ENDCHAR
STARTCHAR 34CE
ENCODING 13518
SWIDTH 1000 0
DWIDTH 8 0
BBX 8 8 0 -1
BITMAP
1E
5F
5D
5F
BE
94
0C
32
ENDCHAR
STARTCHAR 34CF
ENCODING 13519
SWIDTH 1000 0
DWIDTH 8 0
BBX 6 7 1 0
BITMAP
BC
AC
64
BC
BC
A4
24
ENDCHAR
STARTCHAR 34D0
ENCODING 13520
SWIDTH 1000 0
DWIDTH 8 0
BBX 8 6 0 1
BITMAP
08
3E
7F
87
BE
BE
ENDCHAR
STARTCHAR 34D1
ENCODING 13521
SWIDTH 1000 0
DWIDTH 8 0
BBX 8 8 0 0
BITMAP
08
BE
08
7F
BF
BE
88
88
ENDCHAR
STARTCHAR 34D3
ENCODING 13523
SWIDTH 1000 0
DWIDTH 8 0
BBX 6 8 1 0
BITMAP
10
BC
D0
BC
BC
BC
B4
24
ENDCHAR
STARTCHAR 34D4
ENCODING 13524
SWIDTH 1000 0
DWIDTH 8 0
BBX 7 7 1 -1
BITMAP
04
B4
7E
B4
BC
B4
94
ENDCHAR
STARTCHAR 34D5
ENCODING 13525
SWIDTH 1000 0
DWIDTH 8 0
BBX 7 8 1 -2
BITMAP
08
0C
FE
B8
BC
BC
B8
DC
ENDCHAR
STARTCHAR 34D6
ENCODING 13526
SWIDTH 1000 0
DWIDTH 8 0
BBX 7 7 1 0
BITMAP
3C
FC
BC
FE
BC
90
10
ENDCHAR
STARTCHAR 34D7
ENCODING 13527
SWIDTH 1000 0
DWIDTH 8 0
BBX 8 7 0 0
BITMAP
3F
F6
6C
92
9D
AE
AB
ENDCHAR
STARTCHAR 34D8
ENCODING 13528
SWIDTH 1000 0
DWIDTH 8 0
BBX 8 6 0 0
BITMAP
7E
7E
4A
52
7E
BD
ENDCHAR
STARTCHAR 34D9
ENCODING 13529
SWIDTH 1000 0
DWIDTH 8 0
BBX 6 7 1 0
BITMAP
94
FC
B4
94
E4
FC
84
ENDCHAR
STARTCHAR 34DA
ENCODING 13530
SWIDTH 1000 0
DWIDTH 8 0
BBX 6 8 1 -1
BITMAP
04
E4
54
54
54
94
04
08
ENDCHAR
STARTCHAR 34DB
ENCODING 13531
SWIDTH 1000 0
DWIDTH 8 0
BBX 7 8 1 -1
BITMAP
3E
F4
54
54
54
54
A4
08
ENDCHAR
STARTCHAR 34DC
ENCODING 13532
SWIDTH 1000 0
DWIDTH 8 0
BBX 7 8 0 -1
BITMAP
40
5E
8A
EA
CA
92
E2
04
ENDCHAR
STARTCHAR 34DD
ENCODING 13533
SWIDTH 1000 0
DWIDTH 8 0
BBX 6 8 1 -2
BITMAP
64
6C
FC
6C
7C
FC
64
A4
ENDCHAR
STARTCHAR 34DE
ENCODING 13534
SWIDTH 1000 0
DWIDTH 8 0
BBX 6 8 1 -1
BITMAP
40
7C
54
F4
54
E4
64
68
ENDCHAR
STARTCHAR 34DF
ENCODING 13535
SWIDTH 1000 0
DWIDTH 8 0
BBX 6 7 1 0
BITMAP
24
FC
AC
FC
AC
B4
04
ENDCHAR
STARTCHAR 34E0
ENCODING 13536
SWIDTH 1000 0
DWIDTH 8 0
BBX 6 7 1 -1
BITMAP
44
4C
7C
4C
FC
9C
F4
ENDCHAR
STARTCHAR 34E1
ENCODING 13537
SWIDTH 1000 0
DWIDTH 8 0
BBX 6 6 1 0
BITMAP
04
FC
FC
4C
DC
F4
ENDCHAR
STARTCHAR 34E2
ENCODING 13538
SWIDTH 1000 0
DWIDTH 8 0
BBX 7 7 0 -1
BITMAP
22
3A
4E
B6
66
FE
7E
ENDCHAR
STARTCHAR 34E3
ENCODING 13539
SWIDTH 1000 0
DWIDTH 8 0
BBX 6 7 1 -1
BITMAP
04
6C
9C
7C
0C
FC
FC
ENDCHAR
STARTCHAR 34E4
ENCODING 13540
SWIDTH 1000 0
DWIDTH 8 0
BBX 6 6 1 0
BITMAP
4C
FC
4C
FC
FC
FC
ENDCHAR
STARTCHAR 34E7
ENCODING 13543
SWIDTH 1000 0
DWIDTH 8 0
BBX 7 7 0 0
BITMAP
22
56
BE
7E
7E
7A
4A
ENDCHAR
STARTCHAR 34E8
ENCODING 13544
SWIDTH 1000 0
DWIDTH 8 0
BBX 7 6 0 0
BITMAP
22
FE
26
FE
26
52
ENDCHAR
STARTCHAR 34E9
ENCODING 13545
SWIDTH 1000 0
DWIDTH 8 0
BBX 7 7 0 0
BITMAP
32
7E
EE
7E
4E
8A
90
ENDCHAR
STARTCHAR 34EA
ENCODING 13546
SWIDTH 1000 0
DWIDTH 8 0
BBX 8 7 0 -1
BITMAP
20
7F
75
75
75
65
DA
ENDCHAR
STARTCHAR 34EC
ENCODING 13548
SWIDTH 1000 0
DWIDTH 8 0
BBX 7 8 0 -1
BITMAP
22
56
7E
66
FE
7E
52
80
ENDCHAR
STARTCHAR 34ED
ENCODING 13549
SWIDTH 1000 0
DWIDTH 8 0
BBX 6 7 1 0
BITMAP
F4
FC
6C
7C
CC
84
10
ENDCHAR
STARTCHAR 34EE
ENCODING 13550
SWIDTH 1000 0
DWIDTH 8 0
BBX 7 7 0 0
BITMAP
7A
7E
7E
7E
7E
8A
80
ENDCHAR
STARTCHAR 34EF
ENCODING 13551
SWIDTH 1000 0
DWIDTH 8 0
BBX 7 8 0 -1
BITMAP
0A
F6
B6
4E
7E
7E
7E
4A
ENDCHAR
STARTCHAR 34F1
ENCODING 13553
SWIDTH 1000 0
DWIDTH 8 0
BBX 7 7 0 0
BITMAP
22
36
76
FE
76
7A
62
ENDCHAR
STARTCHAR 34F2
ENCODING 13554
SWIDTH 1000 0
DWIDTH 8 0
BBX 7 7 0 0
BITMAP
72
7E
7E
7E
7E
BA
22
ENDCHAR
STARTCHAR 34F3
ENCODING 13555
SWIDTH 1000 0
DWIDTH 8 0
BBX 7 6 0 0
BITMAP
7A
7E
76
FE
56
B2
ENDCHAR
STARTCHAR 34F4
ENCODING 13556
SWIDTH 1000 0
DWIDTH 8 0
BBX 6 7 1 0
BITMAP
F4
EC
EC
AC
EC
64
80
ENDCHAR
STARTCHAR 34F5
ENCODING 13557
SWIDTH 1000 0
DWIDTH 8 0
BBX 6 6 1 0
BITMAP
E4
EC
4C
EC
2C
24
ENDCHAR
STARTCHAR 34F6
ENCODING 13558
SWIDTH 1000 0
DWIDTH 8 0
BBX 6 7 1 0
BITMAP
74
6C
0C
FC
2C
64
94
ENDCHAR
STARTCHAR 34F7
ENCODING 13559
SWIDTH 1000 0
DWIDTH 8 0
BBX 7 8 0 -1
BITMAP
22
72
76
76
26
FE
72
22
ENDCHAR
STARTCHAR 34F8
ENCODING 13560
SWIDTH 1000 0
DWIDTH 8 0
BBX 6 6 1 0
BITMAP
F4
FC
FC
9C
6C
74
ENDCHAR
STARTCHAR 34F9
ENCODING 13561
SWIDTH 1000 0
DWIDTH 8 0
BBX 7 7 0 0
BITMAP
7A
56
76
6E
7E
72
AA
ENDCHAR
STARTCHAR 34FA
ENCODING 13562
SWIDTH 1000 0
DWIDTH 8 0
BBX 7 8 0 -1
BITMAP
32
3A
7E
76
56
7E
9A
84
ENDCHAR
STARTCHAR 34FB
ENCODING 13563
SWIDTH 1000 0
DWIDTH 8 0
BBX 6 7 1 0
BITMAP
F4
FC
7C
FC
FC
F4
08
ENDCHAR
STARTCHAR 34FC
ENCODING 13564
SWIDTH 1000 0
DWIDTH 8 0
BBX 6 6 1 0
BITMAP
74
BC
7C
44
64
44
ENDCHAR
STARTCHAR 34FD
ENCODING 13565
SWIDTH 1000 0
DWIDTH 8 0
BBX 7 7 0 0
BITMAP
5A
36
7E
BE
7E
1A
20
ENDCHAR
STARTCHAR 34FE
ENCODING 13566
SWIDTH 1000 0
DWIDTH 8 0
BBX 7 7 0 0
BITMAP
7A
7E
7E
7E
76
52
92
ENDCHAR
STARTCHAR 3500
ENCODING 13568
SWIDTH 1000 0
DWIDTH 8 0
BBX 7 6 0 0
BITMAP
72
76
FE
76
56
52
ENDCHAR
STARTCHAR 3501
ENCODING 13569
SWIDTH 1000 0
DWIDTH 8 0
BBX 7 7 0 0
BITMAP
6A
7E
7E
7E
3E
32
C2
ENDCHAR
STARTCHAR 3502
ENCODING 13570
SWIDTH 1000 0
DWIDTH 8 0
BBX 6 8 1 -2
BITMAP
20
24
FC
2C
FC
6C
A4
A4
ENDCHAR
STARTCHAR 3503
ENCODING 13571
SWIDTH 1000 0
DWIDTH 8 0
BBX 7 8 1 -1
BITMAP
40
A8
5C
5C
7E
FC
24
C0
ENDCHAR
STARTCHAR 3504
ENCODING 13572
SWIDTH 1000 0
DWIDTH 8 0
BBX 6 7 1 0
BITMAP
F4
FC
FC
FC
2C
74
A4
ENDCHAR
STARTCHAR 3505
ENCODING 13573
SWIDTH 1000 0
DWIDTH 8 0
BBX 6 8 1 -2
BITMAP
04
F4
FC
FC
FC
BC
F4
34
ENDCHAR
STARTCHAR 3506
ENCODING 13574
SWIDTH 1000 0
DWIDTH 8 0
BBX 6 8 1 -2
BITMAP
54
F4
FC
6C
5C
6C
64
64
ENDCHAR
STARTCHAR 3507
ENCODING 13575
SWIDTH 1000 0
DWIDTH 8 0
BBX 6 7 1 0
BITMAP
E4
AC
FC
FC
6C
64
04
ENDCHAR
STARTCHAR 350A
ENCODING 13578
SWIDTH 1000 0
DWIDTH 8 0
BBX 7 8 0 -1
BITMAP
22
FA
76
76
36
7E
42
24
ENDCHAR
STARTCHAR 350B
ENCODING 13579
SWIDTH 1000 0
DWIDTH 8 0
BBX 6 6 1 0
BITMAP
C4
FC
BC
5C
FC
F4
ENDCHAR
STARTCHAR 350C
ENCODING 13580
SWIDTH 1000 0
DWIDTH 8 0
BBX 7 6 0 1
BITMAP
C8
9E
56
7A
52
0A
ENDCHAR
STARTCHAR 350D
ENCODING 13581
SWIDTH 1000 0
DWIDTH 8 0
BBX 7 8 0 -2
BITMAP
42
7E
F6
76
76
F6
52
52
ENDCHAR
STARTCHAR 350E
ENCODING 13582
SWIDTH 1000 0
DWIDTH 8 0
BBX 7 8 1 -1
BITMAP
E8
FE
E4
DE
FE
FC
24
C8
ENDCHAR
STARTCHAR 350F
ENCODING 13583
SWIDTH 1000 0
DWIDTH 8 0
BBX 7 7 0 -1
BITMAP
7A
36
F6
FE
6E
7A
5A
ENDCHAR
STARTCHAR 3511
ENCODING 13585
SWIDTH 1000 0
DWIDTH 8 0
BBX 7 8 1 -1
BITMAP
58
FE
FC
F6
DE
FC
24
C8
ENDCHAR
STARTCHAR 3512
ENCODING 13586
SWIDTH 1000 0
DWIDTH 8 0
BBX 6 8 1 0
BITMAP
D4
F4
7C
FC
FC
FC
F4
94
ENDCHAR
STARTCHAR 3513
ENCODING 13587
SWIDTH 1000 0
DWIDTH 8 0
BBX 7 8 0 -1
BITMAP
14
64
2E
26
F6
26
2A
22
ENDCHAR
STARTCHAR 3514
ENCODING 13588
SWIDTH 1000 0
DWIDTH 8 0
BBX 6 7 1 0
BITMAP
0C
F4
B4
00
F8
88
70
ENDCHAR
STARTCHAR 3515
ENCODING 13589
SWIDTH 1000 0
DWIDTH 8 0
BBX 6 6 1 0
BITMAP
88
F8
EC
EC
8C
F4
ENDCHAR
STARTCHAR 3516
ENCODING 13590
SWIDTH 1000 0
DWIDTH 8 0
BBX 6 7 1 0
BITMAP
0C
F4
B4
00
7C
04
04
ENDCHAR
STARTCHAR 3517
ENCODING 13591
SWIDTH 1000 0
DWIDTH 8 0
BBX 7 6 0 0
BITMAP
34
7C
7E
B6
7E
3A
ENDCHAR
STARTCHAR 3518
ENCODING 13592
SWIDTH 1000 0
DWIDTH 8 0
BBX 6 7 1 0
BITMAP
48
E8
FC
EC
EC
EC
F4
ENDCHAR
STARTCHAR 3519
ENCODING 13593
SWIDTH 1000 0
DWIDTH 8 0
BBX 7 7 0 -1
BITMAP
04
74
FE
5E
FE
56
9A
ENDCHAR
STARTCHAR 351A
ENCODING 13594
SWIDTH 1000 0
DWIDTH 8 0
BBX 6 7 1 -1
BITMAP
28
48
5C
EC
4C
F4
F4
ENDCHAR
STARTCHAR 351C
ENCODING 13596
SWIDTH 1000 0
DWIDTH 8 0
BBX 6 7 1 0
BITMAP
28
C8
FC
EC
4C
CC
54
ENDCHAR
STARTCHAR 351D
ENCODING 13597
SWIDTH 1000 0
DWIDTH 8 0
BBX 6 8 1 -2
BITMAP
08
F8
FC
FC
FC
DC
DC
94
ENDCHAR
STARTCHAR 351E
ENCODING 13598
SWIDTH 1000 0
DWIDTH 8 0
BBX 7 8 0 -2
BITMAP
14
64
FE
2E
FE
FE
26
2A
ENDCHAR
STARTCHAR 351F
ENCODING 13599
SWIDTH 1000 0
DWIDTH 8 0
BBX 7 8 0 0
BITMAP
68
BC
7C
7E
7E
14
20
04
ENDCHAR
STARTCHAR 3520
ENCODING 13600
SWIDTH 1000 0
DWIDTH 8 0
BBX 6 7 1 0
BITMAP
E8
F8
4C
6C
EC
94
20
ENDCHAR
STARTCHAR 3521
ENCODING 13601
SWIDTH 1000 0
DWIDTH 8 0
BBX 6 7 1 -1
BITMAP
08
F8
BC
FC
EC
FC
BC
ENDCHAR
STARTCHAR 3523
ENCODING 13603
SWIDTH 1000 0
DWIDTH 8 0
BBX 6 8 1 -1
BITMAP
08
E8
FC
FC
FC
F4
F4
A4
ENDCHAR
STARTCHAR 3524
ENCODING 13604
SWIDTH 1000 0
DWIDTH 8 0
BBX 7 8 0 -1
BITMAP
24
7C
EE
7E
76
7E
7E
4A
ENDCHAR
STARTCHAR 3525
ENCODING 13605
SWIDTH 1000 0
DWIDTH 8 0
BBX 6 7 1 -1
BITMAP
F8
6C
EC
FC
EC
FC
F4
ENDCHAR
STARTCHAR 3526
ENCODING 13606
SWIDTH 1000 0
DWIDTH 8 0
BBX 7 8 0 0
BITMAP
54
FC
76
FE
76
76
5A
A0
ENDCHAR
STARTCHAR 3527
ENCODING 13607
SWIDTH 1000 0
DWIDTH 8 0
BBX 7 8 0 -1
BITMAP
34
3C
7C
76
76
76
BA
10
ENDCHAR
STARTCHAR 3528
ENCODING 13608
SWIDTH 1000 0
DWIDTH 8 0
BBX 7 8 1 0
BITMAP
40
7E
A4
7C
34
74
54
54
ENDCHAR
STARTCHAR 3529
ENCODING 13609
SWIDTH 1000 0
DWIDTH 8 0
BBX 7 7 1 0
BITMAP
40
7E
B4
F4
7C
74
FC
ENDCHAR
STARTCHAR 352A
ENCODING 13610
SWIDTH 1000 0
DWIDTH 8 0
BBX 7 6 1 1
BITMAP
7E
FC
6C
7C
4C
04
ENDCHAR
STARTCHAR 352B
ENCODING 13611
SWIDTH 1000 0
DWIDTH 8 0
BBX 8 8 0 -1
BITMAP
10
10
FF
20
32
5C
90
1F
ENDCHAR
STARTCHAR 352C
ENCODING 13612
SWIDTH 1000 0
DWIDTH 8 0
BBX 7 8 0 -1
BITMAP
6C
7C
00
3C
3C
FE
08
08
ENDCHAR
STARTCHAR 352D
ENCODING 13613
SWIDTH 1000 0
DWIDTH 8 0
BBX 7 7 1 0
BITMAP
9C
BC
D8
BE
F8
28
04
ENDCHAR
STARTCHAR 352E
ENCODING 13614
SWIDTH 1000 0
DWIDTH 8 0
BBX 7 8 1 -2
BITMAP
E8
E8
68
EE
70
FC
78
BE
ENDCHAR
STARTCHAR 352F
ENCODING 13615
SWIDTH 1000 0
DWIDTH 8 0
BBX 6 7 1 0
BITMAP
FC
90
88
BC
B8
FC
80
ENDCHAR
STARTCHAR 3530
ENCODING 13616
SWIDTH 1000 0
DWIDTH 8 0
BBX 6 7 1 0
BITMAP
FC
A8
B8
A8
A8
FC
80
ENDCHAR
STARTCHAR 3531
ENCODING 13617
SWIDTH 1000 0
DWIDTH 8 0
BBX 7 7 1 0
BITMAP
FE
DC
FC
FC
AC
FE
80
ENDCHAR
STARTCHAR 3533
ENCODING 13619
SWIDTH 1000 0
DWIDTH 8 0
BBX 6 7 1 0
BITMAP
FC
D8
F8
F8
FC
FC
80
ENDCHAR
STARTCHAR 3534
ENCODING 13620
SWIDTH 1000 0
DWIDTH 8 0
BBX 6 7 1 0
BITMAP
FC
F8
F8
FC
A8
FC
80
ENDCHAR
STARTCHAR 3535
ENCODING 13621
SWIDTH 1000 0
DWIDTH 8 0
BBX 6 7 1 0
BITMAP
FC
F8
F8
F8
FC
FC
80
ENDCHAR
STARTCHAR 3536
ENCODING 13622
SWIDTH 1000 0
DWIDTH 8 0
BBX 7 7 1 0
BITMAP
FC
FC
FC
FC
FC
FE
80
ENDCHAR
STARTCHAR 3537
ENCODING 13623
SWIDTH 1000 0
DWIDTH 8 0
BBX 8 6 0 1
BITMAP
FF
7E
7E
6A
62
7F
ENDCHAR
STARTCHAR 3538
ENCODING 13624
SWIDTH 1000 0
DWIDTH 8 0
BBX 8 7 0 0
BITMAP
FF
6E
7E
7E
70
5E
7C
ENDCHAR
STARTCHAR 3539
ENCODING 13625
SWIDTH 1000 0
DWIDTH 8 0
BBX 6 8 1 0
BITMAP
50
50
5C
D4
54
54
64
6C
ENDCHAR
STARTCHAR 353A
ENCODING 13626
SWIDTH 1000 0
DWIDTH 8 0
BBX 7 7 1 0
BITMAP
10
FC
18
FE
48
7E
40
ENDCHAR
STARTCHAR 353B
ENCODING 13627
SWIDTH 1000 0
DWIDTH 8 0
BBX 7 7 1 0
BITMAP
FE
10
72
10
FE
10
10
ENDCHAR
STARTCHAR 353C
ENCODING 13628
SWIDTH 1000 0
DWIDTH 8 0
BBX 7 8 1 0
BITMAP
48
7E
FC
5C
DE
FE
10
10
ENDCHAR
STARTCHAR 353D
ENCODING 13629
SWIDTH 1000 0
DWIDTH 8 0
BBX 6 8 1 -1
BITMAP
10
1C
FC
84
B4
B4
FC
84
ENDCHAR
STARTCHAR 353E
ENCODING 13630
SWIDTH 1000 0
DWIDTH 8 0
BBX 6 6 1 1
BITMAP
F8
88
88
88
84
FC
ENDCHAR
STARTCHAR 353F
ENCODING 13631
SWIDTH 1000 0
DWIDTH 8 0
BBX 6 7 1 0
BITMAP
7C
48
48
48
48
F8
08
ENDCHAR
STARTCHAR 3541
ENCODING 13633
SWIDTH 1000 0
DWIDTH 8 0
BBX 8 8 -1 -1
BITMAP
10
27
35
25
FD
55
75
EC
ENDCHAR
STARTCHAR 3542
ENCODING 13634
SWIDTH 1000 0
DWIDTH 8 0
BBX 8 6 0 0
BITMAP
7F
40
5E
5F
42
80
ENDCHAR
STARTCHAR 3543
ENCODING 13635
SWIDTH 1000 0
DWIDTH 8 0
BBX 8 6 0 0
BITMAP
7F
7E
54
7F
54
A4
ENDCHAR
STARTCHAR 3544
ENCODING 13636
SWIDTH 1000 0
DWIDTH 8 0
BBX 8 7 0 -1
BITMAP
7F
7F
48
52
54
48
BE
ENDCHAR
STARTCHAR 3545
ENCODING 13637
SWIDTH 1000 0
DWIDTH 8 0
BBX 8 7 0 0
BITMAP
7F
7E
7E
6A
7C
88
88
ENDCHAR
STARTCHAR 3546
ENCODING 13638
SWIDTH 1000 0
DWIDTH 8 0
BBX 8 7 0 0
BITMAP
7F
48
7F
48
5E
9E
92
ENDCHAR
STARTCHAR 3547
ENCODING 13639
SWIDTH 1000 0
DWIDTH 8 0
BBX 8 6 0 0
BITMAP
7F
48
7E
42
54
BF
ENDCHAR
STARTCHAR 3548
ENCODING 13640
SWIDTH 1000 0
DWIDTH 8 0
BBX 8 8 0 -1
BITMAP
7F
48
7F
48
56
74
9A
20
ENDCHAR
STARTCHAR 3549
ENCODING 13641
SWIDTH 1000 0
DWIDTH 8 0
BBX 7 7 0 0
BITMAP
7E
48
54
7E
54
9C
94
ENDCHAR
STARTCHAR 354A
ENCODING 13642
SWIDTH 1000 0
DWIDTH 8 0
BBX 8 7 0 0
BITMAP
7F
48
7F
7E
7E
AA
22
ENDCHAR
STARTCHAR 354B
ENCODING 13643
SWIDTH 1000 0
DWIDTH 8 0
BBX 8 6 0 0
BITMAP
7F
48
54
5F
7E
BE
ENDCHAR
STARTCHAR 354C
ENCODING 13644
SWIDTH 1000 0
DWIDTH 8 0
BBX 7 6 0 0
BITMAP
7E
5C
5C
7E
94
94
ENDCHAR
STARTCHAR 354D
ENCODING 13645
SWIDTH 1000 0
DWIDTH 8 0
BBX 7 7 0 0
BITMAP
7E
40
5E
5E
5E
9E
90
ENDCHAR
STARTCHAR 354E
ENCODING 13646
SWIDTH 1000 0
DWIDTH 8 0
BBX 7 6 0 0
BITMAP
7E
7C
7E
5E
7C
BE
ENDCHAR
STARTCHAR 3550
ENCODING 13648
SWIDTH 1000 0
DWIDTH 8 0
BBX 7 7 0 0
BITMAP
7E
6C
7C
5A
5E
92
04
ENDCHAR
STARTCHAR 3551
ENCODING 13649
SWIDTH 1000 0
DWIDTH 8 0
BBX 8 7 0 0
BITMAP
7F
7A
7F
7E
62
82
90
ENDCHAR
STARTCHAR 3552
ENCODING 13650
SWIDTH 1000 0
DWIDTH 8 0
BBX 8 7 0 0
BITMAP
7F
7F
7E
7F
54
96
03
ENDCHAR
STARTCHAR 3553
ENCODING 13651
SWIDTH 1000 0
DWIDTH 8 0
BBX 8 6 0 0
BITMAP
7F
7E
7E
7E
7F
FF
ENDCHAR
STARTCHAR 3555
ENCODING 13653
SWIDTH 1000 0
DWIDTH 8 0
BBX 6 8 1 -1
BITMAP
20
40
48
F4
20
40
88
70
ENDCHAR
STARTCHAR 3556
ENCODING 13654
SWIDTH 1000 0
DWIDTH 8 0
BBX 7 7 1 0
BITMAP
24
5C
BA
FE
38
54
12
ENDCHAR
STARTCHAR 3557
ENCODING 13655
SWIDTH 1000 0
DWIDTH 8 0
BBX 8 7 0 0
BITMAP
52
FC
7C
FC
75
93
6E
ENDCHAR
STARTCHAR 3559
ENCODING 13657
SWIDTH 1000 0
DWIDTH 8 0
BBX 7 8 0 -1
BITMAP
40
54
7C
BE
DE
66
6E
90
ENDCHAR
STARTCHAR 355A
ENCODING 13658
SWIDTH 1000 0
DWIDTH 8 0
BBX 7 7 1 -1
BITMAP
FC
88
58
D0
30
30
CE
ENDCHAR
STARTCHAR 355B
ENCODING 13659
SWIDTH 1000 0
DWIDTH 8 0
BBX 6 8 1 -1
BITMAP
F8
50
6C
F8
48
30
6C
80
ENDCHAR
STARTCHAR 355C
ENCODING 13660
SWIDTH 1000 0
DWIDTH 8 0
BBX 7 9 1 -2
BITMAP
10
FC
94
F8
F8
48
30
6E
80
ENDCHAR
STARTCHAR 355D
ENCODING 13661
SWIDTH 1000 0
DWIDTH 8 0
BBX 6 9 1 -1
BITMAP
10
FC
10
78
30
F8
30
10
68
ENDCHAR
STARTCHAR 355E
ENCODING 13662
SWIDTH 1000 0
DWIDTH 8 0
BBX 8 7 0 0
BITMAP
7F
7D
55
7E
7A
BB
94
ENDCHAR
STARTCHAR 355F
ENCODING 13663
SWIDTH 1000 0
DWIDTH 8 0
BBX 7 8 1 -2
BITMAP
40
5E
7A
FA
F6
F4
F6
98
ENDCHAR
STARTCHAR 3560
ENCODING 13664
SWIDTH 1000 0
DWIDTH 8 0
BBX 6 8 1 0
BITMAP
50
BC
7C
BC
FC
50
38
C0
ENDCHAR
STARTCHAR 3561
ENCODING 13665
SWIDTH 1000 0
DWIDTH 8 0
BBX 8 8 0 -1
BITMAP
20
37
7E
F6
2A
72
75
59
ENDCHAR
STARTCHAR 3562
ENCODING 13666
SWIDTH 1000 0
DWIDTH 8 0
BBX 8 7 0 -1
BITMAP
20
37
79
E6
76
76
51
ENDCHAR
STARTCHAR 3563
ENCODING 13667
SWIDTH 1000 0
DWIDTH 8 0
BBX 6 7 1 0
BITMAP
10
10
CC
78
48
78
48
ENDCHAR
STARTCHAR 3564
ENCODING 13668
SWIDTH 1000 0
DWIDTH 8 0
BBX 6 6 1 -1
BITMAP
10
D0
F8
D8
DC
2C
ENDCHAR
STARTCHAR 3565
ENCODING 13669
SWIDTH 1000 0
DWIDTH 8 0
BBX 6 6 1 -1
BITMAP
10
D0
D0
D0
E8
04
ENDCHAR
STARTCHAR 3566
ENCODING 13670
SWIDTH 1000 0
DWIDTH 8 0
BBX 6 8 1 -1
BITMAP
78
48
78
10
FC
10
28
44
ENDCHAR
STARTCHAR 3567
ENCODING 13671
SWIDTH 1000 0
DWIDTH 8 0
BBX 6 6 1 0
BITMAP
FC
E4
E4
F8
E0
40
ENDCHAR
STARTCHAR 3568
ENCODING 13672
SWIDTH 1000 0
DWIDTH 8 0
BBX 7 6 1 0
BITMAP
B8
E8
E8
E8
EC
4E
ENDCHAR
STARTCHAR 3569
ENCODING 13673
SWIDTH 1000 0
DWIDTH 8 0
BBX 6 8 1 -1
BITMAP
10
D4
FC
D0
FC
D0
10
10
ENDCHAR
STARTCHAR 356A
ENCODING 13674
SWIDTH 1000 0
DWIDTH 8 0
BBX 7 7 1 0
BITMAP
10
D0
FE
D0
D8
D8
2E
ENDCHAR
STARTCHAR 356B
ENCODING 13675
SWIDTH 1000 0
DWIDTH 8 0
BBX 6 8 1 0
BITMAP
10
D0
FC
D0
DC
E4
24
08
ENDCHAR
STARTCHAR 356C
ENCODING 13676
SWIDTH 1000 0
DWIDTH 8 0
BBX 7 6 1 1
BITMAP
9C
D4
E2
D8
D4
3A
ENDCHAR
STARTCHAR 356D
ENCODING 13677
SWIDTH 1000 0
DWIDTH 8 0
BBX 6 7 1 -1
BITMAP
04
D8
D0
FC
D0
D8
24
ENDCHAR
STARTCHAR 356E
ENCODING 13678
SWIDTH 1000 0
DWIDTH 8 0
BBX 7 7 1 -1
BITMAP
10
D4
E2
DC
C8
C8
14
ENDCHAR
STARTCHAR 356F
ENCODING 13679
SWIDTH 1000 0
DWIDTH 8 0
BBX 6 7 1 0
BITMAP
20
FC
A4
DC
F4
B4
8C
ENDCHAR
STARTCHAR 3570
ENCODING 13680
SWIDTH 1000 0
DWIDTH 8 0
BBX 6 7 1 0
BITMAP
04
D8
D0
F8
D4
D8
1C
ENDCHAR
STARTCHAR 3571
ENCODING 13681
SWIDTH 1000 0
DWIDTH 8 0
BBX 6 7 1 0
BITMAP
10
D4
D4
FC
D8
D8
2C
ENDCHAR
STARTCHAR 3572
ENCODING 13682
SWIDTH 1000 0
DWIDTH 8 0
BBX 6 8 1 -1
BITMAP
10
D0
D0
FC
D0
FC
50
10
ENDCHAR
STARTCHAR 3573
ENCODING 13683
SWIDTH 1000 0
DWIDTH 8 0
BBX 6 7 1 0
BITMAP
EC
F4
F4
EC
E4
3C
24
ENDCHAR
STARTCHAR 3574
ENCODING 13684
SWIDTH 1000 0
DWIDTH 8 0
BBX 6 6 1 0
BITMAP
FC
E4
D8
D8
D8
2C
ENDCHAR
STARTCHAR 3575
ENCODING 13685
SWIDTH 1000 0
DWIDTH 8 0
BBX 6 6 1 1
BITMAP
FC
D0
D0
FC
D0
3C
ENDCHAR
STARTCHAR 3576
ENCODING 13686
SWIDTH 1000 0
DWIDTH 8 0
BBX 6 6 1 1
BITMAP
FC
E0
E0
F8
E8
7C
ENDCHAR
STARTCHAR 3578
ENCODING 13688
SWIDTH 1000 0
DWIDTH 8 0
BBX 6 7 1 0
BITMAP
10
D0
FC
C4
E8
C8
3C
ENDCHAR
STARTCHAR 3579
ENCODING 13689
SWIDTH 1000 0
DWIDTH 8 0
BBX 7 8 1 0
BITMAP
10
D4
FE
D0
D4
E8
44
12
ENDCHAR
STARTCHAR 357A
ENCODING 13690
SWIDTH 1000 0
DWIDTH 8 0
BBX 8 6 0 0
BITMAP
7E
7E
02
FF
1E
04
ENDCHAR
STARTCHAR 357B
ENCODING 13691
SWIDTH 1000 0
DWIDTH 8 0
BBX 6 7 1 0
BITMAP
14
FC
10
74
48
78
48
ENDCHAR
STARTCHAR 357C
ENCODING 13692
SWIDTH 1000 0
DWIDTH 8 0
BBX 6 6 1 1
BITMAP
E4
DC
EC
EC
FC
04
ENDCHAR
STARTCHAR 357D
ENCODING 13693
SWIDTH 1000 0
DWIDTH 8 0
BBX 7 7 1 -2
BITMAP
24
F4
E4
E4
E8
94
22
ENDCHAR
STARTCHAR 357E
ENCODING 13694
SWIDTH 1000 0
DWIDTH 8 0
BBX 7 8 0 -1
BITMAP
08
34
52
10
08
6C
A8
0E
ENDCHAR
STARTCHAR 3580
ENCODING 13696
SWIDTH 1000 0
DWIDTH 8 0
BBX 7 8 1 0
BITMAP
10
FC
FE
D4
F8
FE
10
10
ENDCHAR
STARTCHAR 3581
ENCODING 13697
SWIDTH 1000 0
DWIDTH 8 0
BBX 7 6 1 0
BITMAP
04
D8
F4
FE
D8
3E
ENDCHAR
STARTCHAR 3582
ENCODING 13698
SWIDTH 1000 0
DWIDTH 8 0
BBX 7 7 1 0
BITMAP
10
D4
FC
FC
FC
D4
1E
ENDCHAR
STARTCHAR 3583
ENCODING 13699
SWIDTH 1000 0
DWIDTH 8 0
BBX 7 8 1 -1
BITMAP
04
F8
E0
FE
E0
FC
3C
54
ENDCHAR
STARTCHAR 3584
ENCODING 13700
SWIDTH 1000 0
DWIDTH 8 0
BBX 6 7 1 -1
BITMAP
14
DC
DC
FC
FC
DC
2C
ENDCHAR
STARTCHAR 3585
ENCODING 13701
SWIDTH 1000 0
DWIDTH 8 0
BBX 7 6 1 1
BITMAP
C8
FE
EA
FC
E6
4A
ENDCHAR
STARTCHAR 3586
ENCODING 13702
SWIDTH 1000 0
DWIDTH 8 0
BBX 6 7 1 0
BITMAP
18
F8
FC
FC
FC
3C
24
ENDCHAR
STARTCHAR 3587
ENCODING 13703
SWIDTH 1000 0
DWIDTH 8 0
BBX 6 7 1 0
BITMAP
FC
D0
FC
FC
FC
3C
24
ENDCHAR
STARTCHAR 358B
ENCODING 13707
SWIDTH 1000 0
DWIDTH 8 0
BBX 7 7 0 0
BITMAP
3C
06
24
08
6C
A8
0E
ENDCHAR
STARTCHAR 358C
ENCODING 13708
SWIDTH 1000 0
DWIDTH 8 0
BBX 7 8 0 -1
BITMAP
20
50
5C
14
0A
6C
A8
0E
ENDCHAR
STARTCHAR 358D
ENCODING 13709
SWIDTH 1000 0
DWIDTH 8 0
BBX 7 7 0 0
BITMAP
18
0A
34
08
6C
A8
0E
ENDCHAR
STARTCHAR 358E
ENCODING 13710
SWIDTH 1000 0
DWIDTH 8 0
BBX 7 7 0 -1
BITMAP
08
6C
A8
16
2C
04
24
ENDCHAR
STARTCHAR 358F
ENCODING 13711
SWIDTH 1000 0
DWIDTH 8 0
BBX 7 6 1 1
BITMAP
3C
FC
FC
FC
D0
3E
ENDCHAR
STARTCHAR 3590
ENCODING 13712
SWIDTH 1000 0
DWIDTH 8 0
BBX 8 7 0 0
BITMAP
7E
7E
7C
FF
7C
10
20
ENDCHAR
STARTCHAR 3591
ENCODING 13713
SWIDTH 1000 0
DWIDTH 8 0
BBX 7 7 1 1
BITMAP
C8
FE
FA
FC
F4
24
0A
ENDCHAR
STARTCHAR 3592
ENCODING 13714
SWIDTH 1000 0
DWIDTH 8 0
BBX 7 7 1 1
BITMAP
C4
FC
FC
D0
FE
34
10
ENDCHAR
STARTCHAR 3593
ENCODING 13715
SWIDTH 1000 0
DWIDTH 8 0
BBX 6 8 1 -1
BITMAP
10
D8
F0
FC
FC
FC
10
10
ENDCHAR
STARTCHAR 3594
ENCODING 13716
SWIDTH 1000 0
DWIDTH 8 0
BBX 7 7 1 0
BITMAP
7E
D0
FE
D8
FE
1C
14
ENDCHAR
STARTCHAR 3595
ENCODING 13717
SWIDTH 1000 0
DWIDTH 8 0
BBX 6 8 1 0
BITMAP
10
D4
FC
C8
FC
FC
10
10
ENDCHAR
STARTCHAR 3596
ENCODING 13718
SWIDTH 1000 0
DWIDTH 8 0
BBX 6 8 1 -1
BITMAP
10
FC
30
FC
FC
78
78
48
ENDCHAR
STARTCHAR 3597
ENCODING 13719
SWIDTH 1000 0
DWIDTH 8 0
BBX 6 7 1 0
BITMAP
34
F4
FC
C8
F8
C8
10
ENDCHAR
STARTCHAR 3598
ENCODING 13720
SWIDTH 1000 0
DWIDTH 8 0
BBX 7 6 1 0
BITMAP
BE
FC
E0
FE
F8
3C
ENDCHAR
STARTCHAR 3599
ENCODING 13721
SWIDTH 1000 0
DWIDTH 8 0
BBX 7 7 0 0
BITMAP
06
7A
5A
08
6C
A8
0E
ENDCHAR
STARTCHAR 359A
ENCODING 13722
SWIDTH 1000 0
DWIDTH 8 0
BBX 7 6 0 1
BITMAP
4C
44
0C
6C
A8
0E
ENDCHAR
STARTCHAR 359B
ENCODING 13723
SWIDTH 1000 0
DWIDTH 8 0
BBX 7 6 0 1
BITMAP
7C
6C
18
6C
A8
0E
ENDCHAR
STARTCHAR 359C
ENCODING 13724
SWIDTH 1000 0
DWIDTH 8 0
BBX 7 6 0 1
BITMAP
7E
7C
18
6C
A8
0E
ENDCHAR
STARTCHAR 359D
ENCODING 13725
SWIDTH 1000 0
DWIDTH 8 0
BBX 7 7 0 0
BITMAP
02
7E
42
08
6C
A8
0E
ENDCHAR
STARTCHAR 359F
ENCODING 13727
SWIDTH 1000 0
DWIDTH 8 0
BBX 7 8 1 -1
BITMAP
06
DA
DC
FE
DC
D8
06
10
ENDCHAR
STARTCHAR 35A0
ENCODING 13728
SWIDTH 1000 0
DWIDTH 8 0
BBX 6 7 1 0
BITMAP
10
E4
FC
D8
C4
FC
14
ENDCHAR
STARTCHAR 35A1
ENCODING 13729
SWIDTH 1000 0
DWIDTH 8 0
BBX 6 8 1 -1
BITMAP
10
FC
C8
EC
EC
F8
38
34
ENDCHAR
STARTCHAR 35A2
ENCODING 13730
SWIDTH 1000 0
DWIDTH 8 0
BBX 7 6 1 0
BITMAP
10
FE
F8
F8
F8
2C
ENDCHAR
STARTCHAR 35A3
ENCODING 13731
SWIDTH 1000 0
DWIDTH 8 0
BBX 7 8 1 0
BITMAP
10
D2
FE
E0
FE
FC
3C
24
ENDCHAR
STARTCHAR 35A4
ENCODING 13732
SWIDTH 1000 0
DWIDTH 8 0
BBX 6 7 1 0
BITMAP
D8
D0
FC
F4
F4
3C
24
ENDCHAR
STARTCHAR 35A5
ENCODING 13733
SWIDTH 1000 0
DWIDTH 8 0
BBX 6 6 1 1
BITMAP
FC
F4
FC
F4
F4
3C
ENDCHAR
STARTCHAR 35A6
ENCODING 13734
SWIDTH 1000 0
DWIDTH 8 0
BBX 7 8 1 0
BITMAP
10
FE
D0
FC
FC
D8
74
50
ENDCHAR
STARTCHAR 35A7
ENCODING 13735
SWIDTH 1000 0
DWIDTH 8 0
BBX 7 8 1 0
BITMAP
0C
F0
FE
EA
E6
FC
3C
24
ENDCHAR
STARTCHAR 35A8
ENCODING 13736
SWIDTH 1000 0
DWIDTH 8 0
BBX 6 7 1 0
BITMAP
D8
F8
FC
D8
F4
14
10
ENDCHAR
STARTCHAR 35A9
ENCODING 13737
SWIDTH 1000 0
DWIDTH 8 0
BBX 7 7 1 -1
BITMAP
BE
FC
FC
F4
F4
1C
1A
ENDCHAR
STARTCHAR 35AA
ENCODING 13738
SWIDTH 1000 0
DWIDTH 8 0
BBX 7 7 1 0
BITMAP
0C
C8
FE
FA
FC
D6
1A
ENDCHAR
STARTCHAR 35AB
ENCODING 13739
SWIDTH 1000 0
DWIDTH 8 0
BBX 7 7 1 -1
BITMAP
10
FC
FE
EC
F0
D8
2C
ENDCHAR
STARTCHAR 35AF
ENCODING 13743
SWIDTH 1000 0
DWIDTH 8 0
BBX 7 7 0 0
BITMAP
BE
BA
32
08
6C
A8
0E
ENDCHAR
STARTCHAR 35B0
ENCODING 13744
SWIDTH 1000 0
DWIDTH 8 0
BBX 7 7 0 0
BITMAP
6A
AC
6A
96
BE
BA
02
ENDCHAR
STARTCHAR 35B2
ENCODING 13746
SWIDTH 1000 0
DWIDTH 8 0
BBX 7 8 0 -1
BITMAP
20
5E
6A
3A
0C
6C
A8
0E
ENDCHAR
STARTCHAR 35B3
ENCODING 13747
SWIDTH 1000 0
DWIDTH 8 0
BBX 8 8 0 -1
BITMAP
48
3F
54
4C
18
6C
A8
0E
ENDCHAR
STARTCHAR 35B6
ENCODING 13750
SWIDTH 1000 0
DWIDTH 8 0
BBX 7 6 1 1
BITMAP
BE
FC
FC
FC
FC
3E
ENDCHAR
STARTCHAR 35B7
ENCODING 13751
SWIDTH 1000 0
DWIDTH 8 0
BBX 7 7 1 0
BITMAP
BC
FC
DA
FE
D8
30
0C
ENDCHAR
STARTCHAR 35B8
ENCODING 13752
SWIDTH 1000 0
DWIDTH 8 0
BBX 6 8 1 -1
BITMAP
10
DC
FC
F4
FC
FC
3C
10
ENDCHAR
STARTCHAR 35B9
ENCODING 13753
SWIDTH 1000 0
DWIDTH 8 0
BBX 7 6 1 1
BITMAP
98
DC
D8
E8
FC
7E
ENDCHAR
STARTCHAR 35BA
ENCODING 13754
SWIDTH 1000 0
DWIDTH 8 0
BBX 6 7 1 1
BITMAP
FC
D8
FC
D8
DC
18
18
ENDCHAR
STARTCHAR 35BB
ENCODING 13755
SWIDTH 1000 0
DWIDTH 8 0
BBX 7 7 1 0
BITMAP
BC
FE
D8
C0
FE
14
12
ENDCHAR
STARTCHAR 35BC
ENCODING 13756
SWIDTH 1000 0
DWIDTH 8 0
BBX 6 8 1 0
BITMAP
18
DC
FC
D8
D0
FC
18
14
ENDCHAR
STARTCHAR 35BE
ENCODING 13758
SWIDTH 1000 0
DWIDTH 8 0
BBX 8 7 0 0
BITMAP
7E
7E
20
FF
7C
10
60
ENDCHAR
STARTCHAR 35BF
ENCODING 13759
SWIDTH 1000 0
DWIDTH 8 0
BBX 7 7 1 0
BITMAP
FC
FC
FC
FA
FA
1C
18
ENDCHAR
STARTCHAR 35C0
ENCODING 13760
SWIDTH 1000 0
DWIDTH 8 0
BBX 6 8 1 -1
BITMAP
10
FC
FC
F4
FC
F4
3C
24
ENDCHAR
STARTCHAR 35C1
ENCODING 13761
SWIDTH 1000 0
DWIDTH 8 0
BBX 6 7 1 0
BITMAP
BC
FC
DC
FC
C4
00
08
ENDCHAR
STARTCHAR 35C2
ENCODING 13762
SWIDTH 1000 0
DWIDTH 8 0
BBX 7 8 1 0
BITMAP
10
D4
D2
D8
DC
FC
1C
14
ENDCHAR
STARTCHAR 35C3
ENCODING 13763
SWIDTH 1000 0
DWIDTH 8 0
BBX 7 7 1 0
BITMAP
BC
F8
FE
F4
FC
3C
24
ENDCHAR
STARTCHAR 35C4
ENCODING 13764
SWIDTH 1000 0
DWIDTH 8 0
BBX 7 7 1 0
BITMAP
BC
FC
D0
FE
D8
10
28
ENDCHAR
STARTCHAR 35C5
ENCODING 13765
SWIDTH 1000 0
DWIDTH 8 0
BBX 6 6 1 0
BITMAP
9C
FC
DC
FC
FC
3C
ENDCHAR
STARTCHAR 35C6
ENCODING 13766
SWIDTH 1000 0
DWIDTH 8 0
BBX 7 8 1 -1
BITMAP
18
FE
D8
FC
F4
FC
10
10
ENDCHAR
STARTCHAR 35C7
ENCODING 13767
SWIDTH 1000 0
DWIDTH 8 0
BBX 6 7 1 -1
BITMAP
BC
F4
E8
FC
E8
28
34
ENDCHAR
STARTCHAR 35C9
ENCODING 13769
SWIDTH 1000 0
DWIDTH 8 0
BBX 6 7 1 0
BITMAP
BC
F4
4C
F8
78
F8
48
ENDCHAR
STARTCHAR 35CA
ENCODING 13770
SWIDTH 1000 0
DWIDTH 8 0
BBX 6 6 1 1
BITMAP
FC
B4
FC
FC
B4
FC
ENDCHAR
STARTCHAR 35CB
ENCODING 13771
SWIDTH 1000 0
DWIDTH 8 0
BBX 7 7 1 -1
BITMAP
10
D8
DE
F0
FE
E8
34
ENDCHAR
STARTCHAR 35CC
ENCODING 13772
SWIDTH 1000 0
DWIDTH 8 0
BBX 6 7 1 1
BITMAP
10
FC
C4
FC
D4
FC
3C
ENDCHAR
STARTCHAR 35CD
ENCODING 13773
SWIDTH 1000 0
DWIDTH 8 0
BBX 7 8 1 -1
BITMAP
0C
D0
FE
D4
C4
DC
1C
14
ENDCHAR
STARTCHAR 35D0
ENCODING 13776
SWIDTH 1000 0
DWIDTH 8 0
BBX 7 7 1 1
BITMAP
10
D4
FE
D0
EE
FC
7E
ENDCHAR
STARTCHAR 35D3
ENCODING 13779
SWIDTH 1000 0
DWIDTH 8 0
BBX 6 6 1 1
BITMAP
08
FC
F4
D8
FC
FC
ENDCHAR
STARTCHAR 35D4
ENCODING 13780
SWIDTH 1000 0
DWIDTH 8 0
BBX 7 7 1 0
BITMAP
9A
BC
BA
AC
1C
2C
02
ENDCHAR
STARTCHAR 35D5
ENCODING 13781
SWIDTH 1000 0
DWIDTH 8 0
BBX 7 8 1 -1
BITMAP
18
FE
FC
FE
FC
FE
24
24
ENDCHAR
STARTCHAR 35D6
ENCODING 13782
SWIDTH 1000 0
DWIDTH 8 0
BBX 6 7 1 0
BITMAP
0C
F0
E4
C0
FC
E4
3C
ENDCHAR
STARTCHAR 35D7
ENCODING 13783
SWIDTH 1000 0
DWIDTH 8 0
BBX 7 7 0 0
BITMAP
7C
5E
2E
64
5E
94
24
ENDCHAR
STARTCHAR 35D8
ENCODING 13784
SWIDTH 1000 0
DWIDTH 8 0
BBX 7 7 1 -1
BITMAP
10
FE
FC
FC
FC
C8
18
ENDCHAR
STARTCHAR 35D9
ENCODING 13785
SWIDTH 1000 0
DWIDTH 8 0
BBX 7 7 1 0
BITMAP
DE
FA
D4
DE
FA
3A
04
ENDCHAR
STARTCHAR 35DA
ENCODING 13786
SWIDTH 1000 0
DWIDTH 8 0
BBX 7 7 1 0
BITMAP
BC
FC
FC
D8
FE
14
10
ENDCHAR
STARTCHAR 35DB
ENCODING 13787
SWIDTH 1000 0
DWIDTH 8 0
BBX 6 8 1 0
BITMAP
28
FC
D4
CC
D0
FC
18
24
ENDCHAR
STARTCHAR 35DC
ENCODING 13788
SWIDTH 1000 0
DWIDTH 8 0
BBX 7 8 1 0
BITMAP
10
FE
D0
F8
EE
FC
34
3C
ENDCHAR
STARTCHAR 35DE
ENCODING 13790
SWIDTH 1000 0
DWIDTH 8 0
BBX 6 7 1 -1
BITMAP
08
68
FC
F8
F4
F8
34
ENDCHAR
STARTCHAR 35DF
ENCODING 13791
SWIDTH 1000 0
DWIDTH 8 0
BBX 7 8 0 -1
BITMAP
40
3E
4A
44
5E
2C
A8
0E
ENDCHAR
STARTCHAR 35E0
ENCODING 13792
SWIDTH 1000 0
DWIDTH 8 0
BBX 7 8 0 -1
BITMAP
04
6A
A4
5E
4C
6C
A8
0E
ENDCHAR
STARTCHAR 35E1
ENCODING 13793
SWIDTH 1000 0
DWIDTH 8 0
BBX 7 7 0 0
BITMAP
3C
6C
0A
00
60
AC
04
ENDCHAR
STARTCHAR 35E2
ENCODING 13794
SWIDTH 1000 0
DWIDTH 8 0
BBX 6 7 1 0
BITMAP
18
D8
FC
FC
EC
FC
34
ENDCHAR
STARTCHAR 35E3
ENCODING 13795
SWIDTH 1000 0
DWIDTH 8 0
BBX 7 8 1 -1
BITMAP
1C
DE
FE
C0
FE
FC
34
10
ENDCHAR
STARTCHAR 35E4
ENCODING 13796
SWIDTH 1000 0
DWIDTH 8 0
BBX 6 8 1 -1
BITMAP
08
FC
B0
F8
7C
78
78
48
ENDCHAR
STARTCHAR 35E5
ENCODING 13797
SWIDTH 1000 0
DWIDTH 8 0
BBX 7 7 1 0
BITMAP
BC
FC
FC
FA
EA
1C
18
ENDCHAR
STARTCHAR 35E6
ENCODING 13798
SWIDTH 1000 0
DWIDTH 8 0
BBX 6 7 1 -1
BITMAP
BC
FC
FC
FC
FC
18
18
ENDCHAR
STARTCHAR 35E7
ENCODING 13799
SWIDTH 1000 0
DWIDTH 8 0
BBX 7 7 1 0
BITMAP
10
FE
CE
FE
D0
FC
3E
ENDCHAR
STARTCHAR 35E8
ENCODING 13800
SWIDTH 1000 0
DWIDTH 8 0
BBX 6 7 1 0
BITMAP
F8
BC
FC
E4
78
78
48
ENDCHAR
STARTCHAR 35E9
ENCODING 13801
SWIDTH 1000 0
DWIDTH 8 0
BBX 6 7 1 0
BITMAP
BC
FC
DC
D0
FC
3C
24
ENDCHAR
STARTCHAR 35EA
ENCODING 13802
SWIDTH 1000 0
DWIDTH 8 0
BBX 7 8 1 0
BITMAP
3A
FC
FE
D0
C0
DA
1C
14
ENDCHAR
STARTCHAR 35EB
ENCODING 13803
SWIDTH 1000 0
DWIDTH 8 0
BBX 6 7 1 0
BITMAP
FC
E8
E8
FC
FC
34
10
ENDCHAR
STARTCHAR 35EC
ENCODING 13804
SWIDTH 1000 0
DWIDTH 8 0
BBX 7 8 1 -1
BITMAP
58
FE
38
30
6C
F4
18
60
ENDCHAR
STARTCHAR 35ED
ENCODING 13805
SWIDTH 1000 0
DWIDTH 8 0
BBX 6 7 1 0
BITMAP
0C
D4
D8
FC
F8
D4
38
ENDCHAR
STARTCHAR 35EF
ENCODING 13807
SWIDTH 1000 0
DWIDTH 8 0
BBX 7 8 0 -1
BITMAP
10
3C
3C
64
18
6C
A8
0E
ENDCHAR
STARTCHAR 35F1
ENCODING 13809
SWIDTH 1000 0
DWIDTH 8 0
BBX 6 7 1 1
BITMAP
F4
FC
FC
FC
D8
34
10
ENDCHAR
STARTCHAR 35F2
ENCODING 13810
SWIDTH 1000 0
DWIDTH 8 0
BBX 7 7 1 0
BITMAP
10
FC
FE
FE
FE
FC
3C
ENDCHAR
STARTCHAR 35F3
ENCODING 13811
SWIDTH 1000 0
DWIDTH 8 0
BBX 7 7 1 1
BITMAP
10
DE
FC
C8
DE
D4
1C
ENDCHAR
STARTCHAR 35F4
ENCODING 13812
SWIDTH 1000 0
DWIDTH 8 0
BBX 6 7 1 0
BITMAP
BC
FC
E4
FC
FC
34
24
ENDCHAR
STARTCHAR 35F5
ENCODING 13813
SWIDTH 1000 0
DWIDTH 8 0
BBX 6 7 1 0
BITMAP
10
D0
FC
D8
D8
F8
34
ENDCHAR
STARTCHAR 35F6
ENCODING 13814
SWIDTH 1000 0
DWIDTH 8 0
BBX 7 6 1 0
BITMAP
BC
EC
DE
F6
9C
14
ENDCHAR
STARTCHAR 35FB
ENCODING 13819
SWIDTH 1000 0
DWIDTH 8 0
BBX 6 6 1 1
BITMAP
B8
DC
FC
FC
FC
40
ENDCHAR
STARTCHAR 35FC
ENCODING 13820
SWIDTH 1000 0
DWIDTH 8 0
BBX 7 8 1 0
BITMAP
1A
DC
FE
D0
FE
D8
14
10
ENDCHAR
STARTCHAR 35FD
ENCODING 13821
SWIDTH 1000 0
DWIDTH 8 0
BBX 6 7 1 0
BITMAP
7C
B8
FC
BC
F8
78
48
ENDCHAR
STARTCHAR 35FE
ENCODING 13822
SWIDTH 1000 0
DWIDTH 8 0
BBX 7 8 1 -1
BITMAP
34
FC
FE
FE
FC
DC
2E
2E
ENDCHAR
STARTCHAR 35FF
ENCODING 13823
SWIDTH 1000 0
DWIDTH 8 0
BBX 6 7 1 0
BITMAP
AC
FC
E4
FC
FC
2C
24
ENDCHAR
STARTCHAR 3600
ENCODING 13824
SWIDTH 1000 0
DWIDTH 8 0
BBX 7 8 1 -1
BITMAP
10
EC
EC
EC
FE
D8
34
50
ENDCHAR
STARTCHAR 3601
ENCODING 13825
SWIDTH 1000 0
DWIDTH 8 0
BBX 7 7 1 0
BITMAP
BC
F8
FC
FE
FC
10
10
ENDCHAR
STARTCHAR 3602
ENCODING 13826
SWIDTH 1000 0
DWIDTH 8 0
BBX 7 7 1 0
BITMAP
18
7E
C8
EE
C4
C0
3A
ENDCHAR
STARTCHAR 3605
ENCODING 13829
SWIDTH 1000 0
DWIDTH 8 0
BBX 7 8 1 -1
BITMAP
10
EC
D0
FE
FC
F4
34
24
ENDCHAR
STARTCHAR 3606
ENCODING 13830
SWIDTH 1000 0
DWIDTH 8 0
BBX 7 7 1 0
BITMAP
10
FE
FC
FC
FE
EC
3E
ENDCHAR
STARTCHAR 3607
ENCODING 13831
SWIDTH 1000 0
DWIDTH 8 0
BBX 6 8 1 0
BITMAP
18
FC
DC
FC
F0
FC
18
14
ENDCHAR
STARTCHAR 3608
ENCODING 13832
SWIDTH 1000 0
DWIDTH 8 0
BBX 6 6 1 0
BITMAP
AC
E8
CC
EC
EC
58
ENDCHAR
STARTCHAR 3609
ENCODING 13833
SWIDTH 1000 0
DWIDTH 8 0
BBX 6 8 1 -1
BITMAP
08
DC
E0
FC
FC
CC
3C
38
ENDCHAR
STARTCHAR 360A
ENCODING 13834
SWIDTH 1000 0
DWIDTH 8 0
BBX 7 7 1 0
BITMAP
BC
FE
EC
FE
FC
3C
24
ENDCHAR
STARTCHAR 360B
ENCODING 13835
SWIDTH 1000 0
DWIDTH 8 0
BBX 7 7 1 0
BITMAP
BE
FC
D4
FC
FC
30
06
ENDCHAR
STARTCHAR 360C
ENCODING 13836
SWIDTH 1000 0
DWIDTH 8 0
BBX 6 8 1 -1
BITMAP
14
DC
FC
FC
FC
FC
3C
08
ENDCHAR
STARTCHAR 360D
ENCODING 13837
SWIDTH 1000 0
DWIDTH 8 0
BBX 7 8 1 -1
BITMAP
34
F4
DC
D4
DE
FA
3C
22
ENDCHAR
STARTCHAR 360F
ENCODING 13839
SWIDTH 1000 0
DWIDTH 8 0
BBX 7 8 0 -1
BITMAP
10
0C
56
5E
2C
6C
A8
0E
ENDCHAR
STARTCHAR 3610
ENCODING 13840
SWIDTH 1000 0
DWIDTH 8 0
BBX 6 6 1 0
BITMAP
B8
FC
F4
F4
F8
14
ENDCHAR
STARTCHAR 3611
ENCODING 13841
SWIDTH 1000 0
DWIDTH 8 0
BBX 7 8 1 -1
BITMAP
28
FC
EE
EC
E8
FC
2C
28
ENDCHAR
STARTCHAR 3612
ENCODING 13842
SWIDTH 1000 0
DWIDTH 8 0
BBX 7 8 0 -1
BITMAP
22
4C
BE
9E
08
6C
A8
0E
ENDCHAR
STARTCHAR 3613
ENCODING 13843
SWIDTH 1000 0
DWIDTH 8 0
BBX 6 6 1 1
BITMAP
AC
FC
FC
EC
FC
3C
ENDCHAR
STARTCHAR 3615
ENCODING 13845
SWIDTH 1000 0
DWIDTH 8 0
BBX 7 7 1 0
BITMAP
1C
FE
F8
FE
F6
FC
3E
ENDCHAR
STARTCHAR 3616
ENCODING 13846
SWIDTH 1000 0
DWIDTH 8 0
BBX 6 6 1 0
BITMAP
7C
A8
FC
DC
DC
6C
ENDCHAR
STARTCHAR 3619
ENCODING 13849
SWIDTH 1000 0
DWIDTH 8 0
BBX 6 7 1 -1
BITMAP
BC
C4
FC
FC
F4
38
1C
ENDCHAR
STARTCHAR 361B
ENCODING 13851
SWIDTH 1000 0
DWIDTH 8 0
BBX 6 8 1 -1
BITMAP
10
D8
FC
F8
FC
FC
3C
3C
ENDCHAR
STARTCHAR 361C
ENCODING 13852
SWIDTH 1000 0
DWIDTH 8 0
BBX 7 7 1 0
BITMAP
7E
EE
FE
FE
7E
78
48
ENDCHAR
STARTCHAR 361D
ENCODING 13853
SWIDTH 1000 0
DWIDTH 8 0
BBX 6 7 1 0
BITMAP
FC
7C
54
34
2C
C4
78
ENDCHAR
STARTCHAR 361E
ENCODING 13854
SWIDTH 1000 0
DWIDTH 8 0
BBX 6 7 1 0
BITMAP
FC
A4
FC
B4
D4
FC
84
ENDCHAR
STARTCHAR 3620
ENCODING 13856
SWIDTH 1000 0
DWIDTH 8 0
BBX 6 7 1 0
BITMAP
FC
A4
B4
EC
F4
FC
84
ENDCHAR
STARTCHAR 3621
ENCODING 13857
SWIDTH 1000 0
DWIDTH 8 0
BBX 6 7 1 0
BITMAP
FC
FC
FC
DC
B4
FC
84
ENDCHAR
STARTCHAR 3622
ENCODING 13858
SWIDTH 1000 0
DWIDTH 8 0
BBX 6 7 1 0
BITMAP
FC
94
94
FC
BC
FC
84
ENDCHAR
STARTCHAR 3623
ENCODING 13859
SWIDTH 1000 0
DWIDTH 8 0
BBX 6 7 1 0
BITMAP
FC
FC
FC
FC
FC
FC
84
ENDCHAR
STARTCHAR 3624
ENCODING 13860
SWIDTH 1000 0
DWIDTH 8 0
BBX 6 7 1 0
BITMAP
FC
BC
EC
BC
BC
FC
84
ENDCHAR
STARTCHAR 3625
ENCODING 13861
SWIDTH 1000 0
DWIDTH 8 0
BBX 6 7 1 0
BITMAP
FC
A4
B4
FC
DC
FC
84
ENDCHAR
STARTCHAR 3626
ENCODING 13862
SWIDTH 1000 0
DWIDTH 8 0
BBX 6 8 1 0
BITMAP
50
50
DC
54
54
54
24
08
ENDCHAR
STARTCHAR 3627
ENCODING 13863
SWIDTH 1000 0
DWIDTH 8 0
BBX 7 6 0 0
BITMAP
5E
54
FE
4A
48
08
ENDCHAR
STARTCHAR 3628
ENCODING 13864
SWIDTH 1000 0
DWIDTH 8 0
BBX 7 7 0 0
BITMAP
48
7E
FA
5A
56
12
12
ENDCHAR
STARTCHAR 3629
ENCODING 13865
SWIDTH 1000 0
DWIDTH 8 0
BBX 7 7 0 0
BITMAP
54
74
FE
54
54
94
26
ENDCHAR
STARTCHAR 362A
ENCODING 13866
SWIDTH 1000 0
DWIDTH 8 0
BBX 7 8 0 -1
BITMAP
46
48
EA
5C
48
6C
08
0E
ENDCHAR
STARTCHAR 362B
ENCODING 13867
SWIDTH 1000 0
DWIDTH 8 0
BBX 7 8 0 -2
BITMAP
4C
4C
7E
EC
4C
5E
4C
14
ENDCHAR
STARTCHAR 362C
ENCODING 13868
SWIDTH 1000 0
DWIDTH 8 0
BBX 8 7 0 0
BITMAP
58
4F
F2
4A
52
0C
02
ENDCHAR
STARTCHAR 362D
ENCODING 13869
SWIDTH 1000 0
DWIDTH 8 0
BBX 8 7 0 -1
BITMAP
48
57
52
FA
5A
52
9A
ENDCHAR
STARTCHAR 3630
ENCODING 13872
SWIDTH 1000 0
DWIDTH 8 0
BBX 5 7 1 0
BITMAP
48
58
E8
58
48
B8
08
ENDCHAR
STARTCHAR 3631
ENCODING 13873
SWIDTH 1000 0
DWIDTH 8 0
BBX 8 7 0 0
BITMAP
48
5E
FA
5F
92
12
12
ENDCHAR
STARTCHAR 3632
ENCODING 13874
SWIDTH 1000 0
DWIDTH 8 0
BBX 7 7 0 -1
BITMAP
5E
7E
F8
5C
5C
9C
36
ENDCHAR
STARTCHAR 3633
ENCODING 13875
SWIDTH 1000 0
DWIDTH 8 0
BBX 7 6 1 1
BITMAP
30
FC
30
FC
FC
FE
ENDCHAR
STARTCHAR 3634
ENCODING 13876
SWIDTH 1000 0
DWIDTH 8 0
BBX 7 6 1 1
BITMAP
10
F4
B4
FE
10
FE
ENDCHAR
STARTCHAR 3636
ENCODING 13878
SWIDTH 1000 0
DWIDTH 8 0
BBX 7 7 1 1
BITMAP
48
7C
BC
7C
88
FC
FE
ENDCHAR
STARTCHAR 3637
ENCODING 13879
SWIDTH 1000 0
DWIDTH 8 0
BBX 7 8 0 -1
BITMAP
4C
5E
E0
44
54
68
0C
32
ENDCHAR
STARTCHAR 3638
ENCODING 13880
SWIDTH 1000 0
DWIDTH 8 0
BBX 7 6 1 1
BITMAP
FC
74
FC
00
FC
FE
ENDCHAR
STARTCHAR 3639
ENCODING 13881
SWIDTH 1000 0
DWIDTH 8 0
BBX 8 7 0 0
BITMAP
28
6A
7C
6E
90
7E
FF
ENDCHAR
STARTCHAR 363A
ENCODING 13882
SWIDTH 1000 0
DWIDTH 8 0
BBX 8 7 0 0
BITMAP
56
54
F5
56
74
D3
15
ENDCHAR
STARTCHAR 363B
ENCODING 13883
SWIDTH 1000 0
DWIDTH 8 0
BBX 7 7 0 0
BITMAP
40
5E
5A
FE
5A
96
1E
ENDCHAR
STARTCHAR 363F
ENCODING 13887
SWIDTH 1000 0
DWIDTH 8 0
BBX 8 6 0 1
BITMAP
5E
7E
FE
5E
88
3F
ENDCHAR
STARTCHAR 3640
ENCODING 13888
SWIDTH 1000 0
DWIDTH 8 0
BBX 7 9 0 -1
BITMAP
48
5E
4A
F6
48
5C
54
16
20
ENDCHAR
STARTCHAR 3641
ENCODING 13889
SWIDTH 1000 0
DWIDTH 8 0
BBX 8 7 0 0
BITMAP
40
4F
50
EE
5F
CF
12
ENDCHAR
STARTCHAR 3642
ENCODING 13890
SWIDTH 1000 0
DWIDTH 8 0
BBX 8 7 0 0
BITMAP
4C
54
FE
5E
4C
97
20
ENDCHAR
STARTCHAR 3643
ENCODING 13891
SWIDTH 1000 0
DWIDTH 8 0
BBX 7 6 0 0
BITMAP
46
48
EE
5E
84
12
ENDCHAR
STARTCHAR 3644
ENCODING 13892
SWIDTH 1000 0
DWIDTH 8 0
BBX 8 7 0 0
BITMAP
40
55
7E
F4
57
5E
3F
ENDCHAR
STARTCHAR 3645
ENCODING 13893
SWIDTH 1000 0
DWIDTH 8 0
BBX 8 7 0 0
BITMAP
5E
52
FC
5F
6C
1B
08
ENDCHAR
STARTCHAR 3647
ENCODING 13895
SWIDTH 1000 0
DWIDTH 8 0
BBX 8 6 0 0
BITMAP
5F
4C
ED
4E
46
9D
ENDCHAR
STARTCHAR 3648
ENCODING 13896
SWIDTH 1000 0
DWIDTH 8 0
BBX 8 9 0 -2
BITMAP
48
4E
7F
F8
5C
5E
7C
9C
37
ENDCHAR
STARTCHAR 3649
ENCODING 13897
SWIDTH 1000 0
DWIDTH 8 0
BBX 8 6 0 0
BITMAP
4C
5E
FE
5F
80
02
ENDCHAR
STARTCHAR 364A
ENCODING 13898
SWIDTH 1000 0
DWIDTH 8 0
BBX 7 7 1 -1
BITMAP
5E
5E
FE
7E
5A
54
1A
ENDCHAR
STARTCHAR 364E
ENCODING 13902
SWIDTH 1000 0
DWIDTH 8 0
BBX 8 7 0 -1
BITMAP
43
FF
5E
5F
5E
9E
21
ENDCHAR
STARTCHAR 364F
ENCODING 13903
SWIDTH 1000 0
DWIDTH 8 0
BBX 8 9 0 -2
BITMAP
40
47
4E
EE
44
46
4C
04
0A
ENDCHAR
STARTCHAR 3650
ENCODING 13904
SWIDTH 1000 0
DWIDTH 8 0
BBX 7 8 0 -1
BITMAP
48
5A
7E
FE
5E
7E
1E
12
ENDCHAR
STARTCHAR 3651
ENCODING 13905
SWIDTH 1000 0
DWIDTH 8 0
BBX 8 6 0 1
BITMAP
18
3C
7E
52
76
FF
ENDCHAR
STARTCHAR 3652
ENCODING 13906
SWIDTH 1000 0
DWIDTH 8 0
BBX 7 6 1 1
BITMAP
EC
E8
FE
E8
7C
FE
ENDCHAR
STARTCHAR 3653
ENCODING 13907
SWIDTH 1000 0
DWIDTH 8 0
BBX 8 7 0 0
BITMAP
08
7E
7E
76
24
7F
FF
ENDCHAR
STARTCHAR 3654
ENCODING 13908
SWIDTH 1000 0
DWIDTH 8 0
BBX 8 8 0 -1
BITMAP
40
5E
7F
FE
5C
FF
04
04
ENDCHAR
STARTCHAR 3655
ENCODING 13909
SWIDTH 1000 0
DWIDTH 8 0
BBX 7 7 0 0
BITMAP
5E
5E
FE
5E
DE
12
12
ENDCHAR
STARTCHAR 3659
ENCODING 13913
SWIDTH 1000 0
DWIDTH 8 0
BBX 7 6 1 1
BITMAP
58
3E
9A
3E
7C
FE
ENDCHAR
STARTCHAR 365A
ENCODING 13914
SWIDTH 1000 0
DWIDTH 8 0
BBX 7 8 0 0
BITMAP
44
5E
7E
FE
58
FE
08
08
ENDCHAR
STARTCHAR 365B
ENCODING 13915
SWIDTH 1000 0
DWIDTH 8 0
BBX 8 7 0 -1
BITMAP
48
5F
7E
FE
5E
84
0C
ENDCHAR
STARTCHAR 365D
ENCODING 13917
SWIDTH 1000 0
DWIDTH 8 0
BBX 8 8 0 -1
BITMAP
40
5E
4A
FF
7E
9E
12
12
ENDCHAR
STARTCHAR 365E
ENCODING 13918
SWIDTH 1000 0
DWIDTH 8 0
BBX 8 8 0 -1
BITMAP
48
5E
7E
FE
4C
5F
9A
08
ENDCHAR
STARTCHAR 3660
ENCODING 13920
SWIDTH 1000 0
DWIDTH 8 0
BBX 6 6 1 1
BITMAP
F8
FC
EC
F4
7C
FC
ENDCHAR
STARTCHAR 3661
ENCODING 13921
SWIDTH 1000 0
DWIDTH 8 0
BBX 8 7 0 -1
BITMAP
42
5E
E9
54
7E
9C
12
ENDCHAR
STARTCHAR 3662
ENCODING 13922
SWIDTH 1000 0
DWIDTH 8 0
BBX 7 8 0 -1
BITMAP
4C
5E
6C
FE
5E
5E
9A
12
ENDCHAR
STARTCHAR 3663
ENCODING 13923
SWIDTH 1000 0
DWIDTH 8 0
BBX 7 7 0 0
BITMAP
5E
5E
EE
5E
4A
8A
18
ENDCHAR
ENDFONT
